<svg width="58" height="57" viewBox="0 0 58 57" fill="none" xmlns="http://www.w3.org/2000/svg">
<path d="M58 10.4921V46.9442C58 52.4901 53.4099 57.0011 47.7667 57.0011H10.2333C4.5901 57.0011 0 52.4901 0 46.9442V10.0569C0 4.51206 4.5901 0 10.2333 0H47.7678C48.0567 0 48.3421 0.01215 48.6254 0.0353454L26.0357 26.6328L20.8094 21.4966C19.4866 20.1966 17.7254 19.4797 15.8552 19.4797C13.985 19.4797 12.2227 20.1955 10.8987 21.4966C9.57582 22.7967 8.84639 24.5275 8.84639 26.3655C8.84527 28.2056 9.57469 29.9354 10.8987 31.2365L21.5467 41.7021C22.8707 43.0021 24.6308 43.719 26.5032 43.719C26.6055 43.719 26.7111 43.7168 26.8168 43.7123C28.7791 43.6251 30.6246 42.726 31.8823 41.2459L58 10.4921Z" fill="#552988"/>
</svg>
