<svg width="66" height="70" viewBox="0 0 66 70" fill="none" xmlns="http://www.w3.org/2000/svg">
<path d="M18.363 31.5508C24.0789 38.9901 30.5092 45.7587 37.9345 51.6269C38.7792 50.6624 39.6072 49.6633 40.492 48.7231C41.1697 48.004 41.8725 47.2953 42.6488 46.699C44.1996 45.5081 45.9391 45.3042 47.5733 46.3758C51.518 48.9616 55.4727 51.5422 59.2688 54.3509C62.1117 56.4545 62.1969 60.1447 59.571 62.5248C57.5895 64.3224 55.4994 66.0318 53.2859 67.5028C49.7452 69.8569 45.8356 69.9364 41.8692 68.8337C38.2467 67.826 35.0666 65.878 32.0434 63.6518C22.1775 56.387 13.6154 47.7275 6.33704 37.7145C4.19359 34.7657 2.19037 31.6856 1.01682 28.1786C-0.974715 22.2171 -0.120008 16.7828 4.28374 12.1799C5.28201 11.1377 6.30365 10.1162 7.35701 9.1344C9.84101 6.81999 12.7707 7.03951 14.7038 9.84307C16.8523 12.956 18.8371 16.19 20.8821 19.3807C21.4196 20.219 21.9755 21.0539 22.4162 21.9475C23.5898 24.3241 23.2576 26.3309 21.4547 28.2494C20.4497 29.3194 19.4481 30.3945 18.363 31.5543V31.5508Z" fill="white"/>
<path d="M35.9131 0.53908C39.8893 0.987561 44.0142 1.85649 47.8435 3.94648C57.4087 9.16533 63.2468 17.3869 65.4619 28.5306C65.688 29.6693 65.8052 30.8343 65.9307 31.9906C65.9703 32.3584 65.9191 32.7526 65.8333 33.1153C65.6468 33.8983 65.1582 34.4379 64.389 34.4449C63.6001 34.4519 63.0289 33.9614 62.8243 33.1398C62.6856 32.5809 62.6543 31.9888 62.5932 31.4089C61.5649 21.6527 57.1182 14.1231 49.3786 8.8132C45.125 5.89457 40.4307 4.27058 35.3519 3.96926C34.2658 3.90444 33.5197 3.14237 33.5313 2.12628C33.5412 1.06114 34.2443 0.535576 35.9131 0.53908Z" fill="white"/>
<path d="M59.2381 32.2458C59.2381 33.4929 58.6323 34.3314 57.7399 34.4345C56.8096 34.5429 56.0208 33.8358 55.9051 32.6224C55.5409 28.7834 54.4535 25.2055 52.3201 22.0131C48.3675 16.0992 42.9304 12.7611 35.9572 12.1269C35.643 12.0985 35.3254 12.0612 35.0199 11.9883C34.0344 11.752 33.4561 11.0894 33.539 10.3166C33.6287 9.48878 34.4417 8.74975 35.3548 8.72843C37.9542 8.66448 40.4553 9.24362 42.8355 10.2331C52.2804 14.1645 57.7399 21.347 59.1915 31.7395C59.2209 31.9438 59.2278 32.1517 59.2364 32.2458H59.2381Z" fill="white"/>
<path d="M35.6946 18.077C39.8906 18.423 43.5144 20.3068 46.4197 23.6354C48.5802 26.1116 49.838 29.0334 50.2622 32.3249C50.3444 32.9697 50.3198 33.6162 49.7229 34.0787C48.8531 34.7538 47.6677 34.4703 47.2796 33.4288C47.0971 32.9359 47.0281 32.3975 46.9245 31.8759C45.8706 26.6028 41.9097 22.5737 36.7567 21.5457C36.2733 21.4495 35.785 21.3854 35.2967 21.3128C34.1013 21.1339 33.4601 20.4756 33.5374 19.5016C33.6097 18.5969 34.371 18.0517 35.6929 18.077H35.6946Z" fill="white"/>
</svg>
