<svg width="124" height="124" viewBox="0 0 124 124" fill="none" xmlns="http://www.w3.org/2000/svg">
<g clip-path="url(#clip0_383_2713)">
<path d="M0 14.6431V55.8865H55.8865V0H14.6431C6.58546 0 0 6.58546 0 14.6431ZM31.3877 15.8343V25.735H41.2884V32.6239H31.3877V42.5246H24.4988V32.6239H14.5982V25.735H24.4988V15.8343H31.3877Z" fill="white"/>
<path d="M109.357 0H68.1135V55.8865H124V14.6431C124 6.5967 117.415 0 109.357 0ZM111.47 32.6239H84.7795V25.735H111.47V32.6239Z" fill="white"/>
<path d="M0 109.357C0 117.403 6.58546 124 14.6431 124H55.8865V68.1133H0V109.357ZM16.0703 85.8918L20.9476 81.0145L27.9489 88.0158L34.9502 81.0145L39.8162 85.8918L32.8149 92.8931L39.8162 99.8943L34.9502 104.772L27.9489 97.7703L20.9476 104.772L16.0703 99.8943L23.0716 92.8931L16.0703 85.8918Z" fill="white"/>
<path d="M68.1135 124H109.357C117.403 124 124 117.414 124 109.357V68.1133H68.1135V124ZM84.7795 83.4307H111.47V90.3196H84.7795V83.4307ZM84.7795 96.0509H111.47V102.94H84.7795V96.0509Z" fill="#00A036"/>
</g>
<defs>
<clipPath id="clip0_383_2713">
<rect width="124" height="124" fill="white"/>
</clipPath>
</defs>
</svg>
