<svg width="148" height="100" viewBox="0 0 148 100" fill="none" xmlns="http://www.w3.org/2000/svg">
<rect width="148" height="100" fill="white"/>
<path d="M34.388 63.5041C33.7928 63.7744 32.3752 64.1174 30.5896 64.1174C25.4385 64.1174 22.7764 61.0193 22.7764 56.9335C22.7764 52.0472 26.4016 49.3545 30.9143 49.3545C32.6566 49.3545 33.9876 49.6664 34.5936 49.9887L33.8794 52.5358C33.2193 52.2655 32.267 52.0056 31.0441 52.0056C28.3928 52.0056 26.3151 53.5547 26.3151 56.7464C26.3151 59.6158 28.0789 61.4144 31.0657 61.4144C32.1046 61.4144 33.2085 61.2168 33.9011 60.9465L34.3772 63.4937L34.388 63.5041Z" fill="#201E1E"/>
<path d="M48.1198 56.5802C48.1198 61.3002 45.1872 64.1177 40.8044 64.1177C36.4216 64.1177 33.792 60.9052 33.792 56.809C33.792 52.7128 36.6706 49.3027 41.0425 49.3027C45.6309 49.3027 48.1198 52.5984 48.1198 56.5699M37.3524 56.7362C37.3524 59.564 38.7267 61.5393 40.9776 61.5393C43.2285 61.5393 44.5595 59.4601 44.5595 56.6738C44.5595 54.0851 43.3042 51.8707 40.9776 51.8707C38.6509 51.8707 37.3524 53.9603 37.3524 56.7362Z" fill="#201E1E"/>
<path d="M48.8564 49.7595C49.9386 49.5932 51.5294 49.458 53.3475 49.458C55.5551 49.458 57.1026 49.7803 58.1631 50.5912C59.0721 51.267 59.5591 52.2858 59.5591 53.6062C59.5591 55.4152 58.2064 56.6627 56.9294 57.1098V57.1722C57.9683 57.5776 58.5419 58.5133 58.9206 59.8233C59.386 61.4555 59.8296 63.3269 60.111 63.8779H56.6589C56.4316 63.4516 56.0637 62.308 55.6416 60.5406C55.2196 58.7316 54.5811 58.2638 53.1851 58.243H52.1895V63.8779H48.8564V49.7491V49.7595ZM52.1895 55.9246H53.5206C55.1979 55.9246 56.1936 55.1137 56.1936 53.8661C56.1936 52.6185 55.2629 51.8908 53.7154 51.8908C52.893 51.8908 52.4384 51.9324 52.1895 51.9947V55.9246Z" fill="#201E1E"/>
<path d="M60.8564 63.8891V49.5732H64.7955L67.8905 54.8234C68.7779 56.3309 69.6328 58.1087 70.3254 59.7306H70.3687C70.1739 57.8384 70.1089 55.9047 70.1089 53.7422V49.5732H73.2039V63.8891H69.6653L66.4837 58.3686C65.5963 56.8404 64.6007 54.9898 63.8973 53.316H63.8107C63.919 55.2289 63.9623 57.2458 63.9623 59.585V63.8995H60.8673L60.8564 63.8891Z" fill="#201E1E"/>
<path d="M78.9619 49.5732H88.0521V52.2243H82.3275V55.4992H87.6734V58.1295H82.3275V63.8891H78.9619V49.5732Z" fill="#201E1E"/>
<path d="M88.9502 49.5732H92.3049V61.1653H98.2351V63.8891H88.9502V49.5732Z" fill="#201E1E"/>
<path d="M102.694 49.5732H99.3281V63.8891H102.694V49.5732Z" fill="#201E1E"/>
<path d="M103.744 49.7595C104.783 49.5932 106.244 49.458 108.3 49.458C110.356 49.458 111.871 49.8427 112.856 50.612C113.83 51.3398 114.447 52.525 114.447 53.9285C114.447 55.332 113.981 56.538 113.072 57.3281C111.914 58.347 110.216 58.8356 108.235 58.8356C107.791 58.8356 107.391 58.8148 107.088 58.7524V63.8987H103.744V49.7699V49.7595ZM107.088 56.2677C107.369 56.3301 107.705 56.3508 108.213 56.3508C109.999 56.3508 111.103 55.4775 111.103 54.0324C111.103 52.7225 110.151 51.9324 108.452 51.9324C107.791 51.9324 107.326 51.9739 107.088 52.0363V56.2677Z" fill="#201E1E"/>
<path d="M115.604 60.5518C116.491 60.9989 117.898 61.4459 119.337 61.4459C120.885 61.4459 121.707 60.8325 121.707 59.8968C121.707 58.9612 121.004 58.4933 119.207 57.9007C116.729 57.0482 115.095 55.7279 115.095 53.6486C115.095 51.2054 117.238 49.3652 120.733 49.3652C122.432 49.3652 123.655 49.6771 124.531 50.0826L123.785 52.6713C123.2 52.401 122.118 51.9955 120.69 51.9955C119.261 51.9955 118.525 52.6505 118.525 53.3783C118.525 54.2931 119.348 54.6986 121.296 55.3952C123.925 56.3309 125.148 57.6512 125.148 59.6681C125.148 62.0697 123.244 64.1074 119.153 64.1074C117.454 64.1074 115.777 63.6603 114.933 63.2133L115.614 60.5622L115.604 60.5518Z" fill="#201E1E"/>
<path d="M22.9054 66.1553C29.7446 71.8421 50.0785 75.9799 74.1243 75.9799C98.17 75.9799 117.887 71.9669 125.008 66.4152C115.777 71.052 96.4926 74.2437 74.2 74.2437C51.9074 74.2437 31.9306 70.9376 22.8945 66.1657" fill="#201E1E"/>
<path d="M23.2949 46.1108C30.6536 42.4201 44.3972 39.6443 60.9435 38.667C60.8353 38.116 60.7595 37.565 60.7162 36.9932C43.1202 38.1888 29.0196 41.6508 23.2949 46.1108Z" fill="#201E1E"/>
<path d="M125.397 46.3602C119.737 41.6506 104.814 38.0118 86.2011 36.8994C86.0063 37.4608 85.8007 38.0118 85.541 38.5732C103.245 39.4673 117.93 42.4199 125.397 46.3602Z" fill="#201E1E"/>
<path d="M122.66 37.2636C114.013 33.1674 102.315 30.246 89.4481 28.9569C88.6257 24.0705 85.6714 20.0887 81.2778 18.155C73.5944 14.7865 64.0173 19.0387 59.9375 27.6261C59.7427 28.0316 59.5695 28.437 59.4072 28.8529C46.194 30.0901 34.1712 33.0323 25.2974 37.2116C11.8353 43.5535 9 50.8622 9 55.8733C9 63.8681 16.1964 71.1041 29.2581 76.2399C41.2485 80.9599 57.113 83.5486 73.9191 83.5486C90.7251 83.5486 106.59 80.9495 118.58 76.2399C131.642 71.1041 138.838 63.8681 138.838 55.8733C138.838 50.883 136.024 43.6055 122.649 37.2636M73.9082 79.9098C40.1447 79.9098 12.7767 69.1495 12.7767 55.8733C12.7767 44.1669 34.0737 34.4046 62.2641 32.2629C62.513 31.2129 62.881 30.1629 63.368 29.1336C66.582 22.3551 73.8866 18.9243 79.687 21.4714C83.7776 23.2596 86.0176 27.5533 85.8661 32.2941C113.905 34.4878 135.04 44.2084 135.04 55.8733C135.04 69.1495 107.672 79.9098 73.9082 79.9098Z" fill="#201E1E"/>
<path d="M80.5739 36.4423C80.2384 37.3676 79.8056 38.1993 79.2861 38.9478C78.7667 39.686 78.1606 40.3305 77.4681 40.8608C76.7755 41.391 76.018 41.8068 75.1955 42.0979C74.3623 42.389 73.4749 42.5346 72.5334 42.5346C71.4837 42.5346 70.5206 42.3578 69.6657 42.0044C68.8108 41.6405 68.1182 41.1103 67.5771 40.4033C67.036 39.6964 66.6681 38.8127 66.4733 37.773C66.2785 36.7334 66.3001 35.5066 66.549 34.1239C66.7871 32.7619 67.1767 31.5351 67.7286 30.4435C68.2696 29.3519 68.9298 28.4266 69.7198 27.6781C70.4989 26.9295 71.3971 26.3473 72.4035 25.9419C73.4099 25.5364 74.4921 25.3389 75.6392 25.3389C76.6456 25.3389 77.533 25.4948 78.3013 25.7859C79.0589 26.0874 79.6973 26.5033 80.1951 27.0231C80.6929 27.5533 81.05 28.1667 81.2773 28.8841C81.4937 29.6014 81.5803 30.3603 81.5154 31.1713H78.1282C78.0741 30.246 77.7602 29.5286 77.1975 29.0192C76.6348 28.5098 75.9531 28.2499 75.1414 28.2499C73.7346 28.2499 72.5983 28.7593 71.7543 29.7678C70.9102 30.7762 70.3366 32.1693 70.0228 33.9263C69.7089 35.7249 69.7847 37.118 70.2717 38.1161C70.7587 39.1142 71.646 39.6132 72.9663 39.6132C73.9727 39.6132 74.8276 39.3429 75.531 38.8023C76.2344 38.2616 76.7863 37.4819 77.1975 36.4527H80.5847L80.5739 36.4423Z" fill="#201E1E"/>
<path d="M72.9671 36.3282L72.3286 39.9358H70.5322L72.0473 31.3691H78.1615L77.9018 32.8662H73.5839L73.2376 34.8104H77.0144L76.7438 36.3282H72.9671Z" fill="#201E1E"/>
</svg>
