<svg width="148" height="100" viewBox="0 0 148 100" fill="none" xmlns="http://www.w3.org/2000/svg">
<rect width="148" height="100" fill="white"/>
<path d="M53.2578 69.5254V42.7858C53.2578 42.3491 53.5067 42.0996 53.972 42.0996H64.2093C70.5183 42.0996 74.6522 45.4681 74.6522 50.6143V61.6969C74.6522 66.8328 70.5183 70.2116 64.2093 70.2116H53.972C53.5175 70.2116 53.2578 69.9725 53.2578 69.5254ZM59.4045 65.3461H64.4149C67.0013 65.3461 68.722 63.5371 68.7652 60.7716V51.5396C68.7652 48.7637 67.0554 46.9651 64.3825 46.9651H59.4045C59.2422 46.9651 59.1556 47.0483 59.1556 47.2043V65.1069C59.1556 65.2629 59.2422 65.3461 59.4045 65.3461Z" fill="#201E1E"/>
<path d="M141.465 69.6505L140.296 65.9182C140.253 65.7623 140.166 65.7207 140.047 65.7207H129.81C129.68 65.7207 129.604 65.7623 129.561 65.9182L128.392 69.6505C128.262 70.0144 128.014 70.2119 127.602 70.2119H122.754C122.256 70.2119 121.997 69.8897 122.17 69.453L131.065 42.6718C131.195 42.3079 131.444 42.1104 131.855 42.1104H138.002C138.424 42.1104 138.673 42.3079 138.792 42.6718L147.698 69.453C147.86 69.8897 147.612 70.2119 147.114 70.2119H142.266C141.854 70.2119 141.595 70.0144 141.476 69.6505M131.238 61.3438H138.64C138.803 61.3438 138.889 61.2606 138.846 61.0631L135.08 48.8161C134.993 48.6185 134.831 48.6185 134.745 48.8161L131.022 61.0631C130.979 61.2606 131.065 61.3438 131.228 61.3438" fill="#201E1E"/>
<path d="M119.432 69.4007L109.779 54.4298C109.692 54.305 109.692 54.1907 109.779 54.1075L118.891 42.9417C119.27 42.4635 119.064 42.0996 118.469 42.0996H113.415C113.036 42.0996 112.744 42.2244 112.539 42.5051L103.037 53.8372L109.563 64.2752L113.09 69.7645C113.296 70.0868 113.556 70.2116 113.924 70.2116H118.977C119.518 70.2116 119.735 69.8477 119.432 69.4111" fill="#201E1E"/>
<path d="M92.0746 65.169C91.3928 65.4913 90.592 65.668 89.6938 65.668C86.7287 65.668 84.7591 63.7447 84.7591 60.9272V42.775C84.7591 42.3384 84.5102 42.0889 84.0449 42.0889H79.5756C79.121 42.0889 78.8613 42.328 78.8613 42.775V60.8856C78.8613 66.6661 83.2116 70.5231 89.683 70.5231C90.5162 70.5231 91.3062 70.4608 92.0637 70.336V65.169H92.0746Z" fill="#201E1E"/>
<path d="M99.8126 42.11H95.3433C94.8888 42.11 94.6291 42.3491 94.6291 42.7962V60.938C94.6291 61.1147 94.6291 61.2914 94.6074 61.4682V69.6502C98.276 68.2051 100.527 65.055 100.527 60.8964V42.7858C100.527 42.3387 100.278 42.0996 99.8126 42.0996" fill="#201E1E"/>
<path d="M42.0466 49.8345C42.0466 38.3464 32.3071 29 20.3384 29C20.2735 29 20.2085 29 20.1544 29V32.7323C20.2193 32.7323 20.2843 32.7323 20.3384 32.7323C30.1644 32.7323 38.1508 40.4049 38.1508 49.8345C38.1508 59.2641 30.1536 66.9366 20.3384 66.9366C20.2735 66.9366 20.2085 66.9366 20.1544 66.9366V70.6689C20.2193 70.6689 20.2843 70.6689 20.3384 70.6689C32.3071 70.6689 42.0466 61.3225 42.0466 49.8345Z" fill="#201E1E"/>
<path d="M35.0557 49.8342C35.0557 42.0473 28.4545 35.7158 20.3383 35.7158C20.2733 35.7158 20.2084 35.7158 20.1543 35.7158V39.4481C20.2192 39.4481 20.2842 39.4481 20.3383 39.4481C26.3118 39.4481 31.1599 44.1058 31.1599 49.8342C31.1599 55.5626 26.301 60.2202 20.3383 60.2202C20.2733 60.2202 20.2084 60.2202 20.1543 60.2202V63.9526C20.2192 63.9526 20.2842 63.9526 20.3383 63.9526C28.4545 63.9526 35.0557 57.6211 35.0557 49.8342Z" fill="#201E1E"/>
<path d="M28.0649 49.8345C28.0649 45.7487 24.602 42.4219 20.3383 42.4219C20.2733 42.4219 20.2084 42.4219 20.1543 42.4219V46.1542C20.2192 46.1542 20.2842 46.1542 20.3383 46.1542C22.4485 46.1542 24.1691 47.8072 24.1691 49.8345C24.1691 51.8619 22.4485 53.5149 20.3383 53.5149C20.2733 53.5149 20.2084 53.5149 20.1543 53.5149V57.2576C20.2192 57.2576 20.2842 57.2576 20.3383 57.2576C24.5912 57.2576 28.0649 53.9307 28.0649 49.8449" fill="#201E1E"/>
<path d="M20.176 66.9472H4.86333V39.3551H20.176V35.6436H1V70.6588H20.176V66.9472Z" fill="#201E1E"/>
</svg>
