<svg width="395" height="284" viewBox="0 0 395 284" fill="none" xmlns="http://www.w3.org/2000/svg">
<path d="M91.0567 248.782H28.2497C24.7789 248.782 21.9747 246.136 21.9747 242.884C21.9747 239.632 24.7789 236.985 28.2497 236.985H91.0567C94.5274 236.985 97.3316 239.632 97.3316 242.884C97.3316 246.136 94.5274 248.782 91.0567 248.782Z" fill="#33B261"/>
<path d="M127.533 218.632H67.1395C63.6688 218.632 60.8646 215.985 60.8646 212.733C60.8646 209.482 63.6688 206.835 67.1395 206.835H127.533C131.004 206.835 133.808 209.482 133.808 212.733C133.808 215.985 131.004 218.632 127.533 218.632Z" fill="#33B261"/>
<path d="M55.2679 188.491H6.27495C2.80419 188.491 0 185.844 0 182.593C0 179.341 2.80419 176.694 6.27495 176.694H55.2679C58.7386 176.694 61.5428 179.341 61.5428 182.593C61.5428 185.844 58.7386 188.491 55.2679 188.491Z" fill="#33B261"/>
<path d="M114.247 158.34H42.8785C39.4077 158.34 36.6035 155.693 36.6035 152.441C36.6035 149.19 39.4077 146.543 42.8785 146.543H114.247C117.718 146.543 120.522 149.19 120.522 152.441C120.522 155.693 117.718 158.34 114.247 158.34Z" fill="#33B261"/>
<path d="M358.739 248.144C356.912 247.453 355.889 245.995 356.027 244.223L356.372 239.718L356.763 234.878C356.797 234.371 357.119 233.83 357.659 233.409C358.211 232.988 358.9 232.75 359.567 232.75H359.716L366.014 233.063C366.888 229.185 366.589 225.382 365.152 221.99L364.945 221.504L348.557 183.078L346.051 177.212C345.098 174.976 342.558 173.582 339.409 173.582H291.967L268.948 262.761H292.266C293.105 259.488 294.737 256.376 296.967 253.546C303.517 245.217 315.194 239.372 326.997 239.372C335.835 239.372 342.926 242.656 346.856 247.799C346.994 247.972 347.109 248.134 347.247 248.317C348.373 249.905 349.212 251.666 349.718 253.557C350.488 256.376 350.499 259.498 349.66 262.772H354.303C356.556 262.772 358.751 261.292 359.222 259.455L361.842 249.322L358.739 248.144ZM309.517 230.168H302.219C301.357 230.168 300.805 229.596 300.989 228.893C301.173 228.191 302.012 227.619 302.874 227.619H310.172C311.034 227.619 311.585 228.191 311.401 228.893C311.217 229.596 310.379 230.168 309.517 230.168ZM347.592 221.969L305.184 221.915C303.862 221.915 303.023 221.04 303.299 219.97L312.114 185.843C312.39 184.774 313.688 183.91 314.999 183.91H331.663C333.984 183.91 335.869 184.925 336.57 186.578L350.43 219.073C350.982 220.37 349.419 221.958 347.592 221.958V221.969Z" fill="white"/>
<path d="M295.668 146.056C294.266 151.468 265.534 262.782 265.534 262.782H177.317C178.145 259.509 178.133 256.376 177.363 253.567C175.122 245.238 166.457 239.372 154.642 239.372C142.828 239.372 131.163 245.227 124.612 253.567C122.383 256.387 120.751 259.509 119.9 262.782H67.6091C67.1379 262.782 66.8276 262.458 66.9196 262.058L69.5399 251.968H91.054C96.3866 251.968 100.731 247.885 100.731 242.883C100.731 237.881 96.3866 233.798 91.054 233.798H74.2289L77.3089 221.817H127.52C132.853 221.817 137.197 217.745 137.197 212.732C137.197 207.719 132.853 203.647 127.52 203.647H82.0093L92.8698 161.537H114.246C119.579 161.537 123.911 157.453 123.911 152.451C123.911 147.449 119.579 143.355 114.246 143.355H97.5703L99.3172 136.625C99.8458 134.54 102.363 132.844 104.914 132.844H285.152C296.829 132.844 297.07 140.633 295.68 146.045L295.668 146.056Z" fill="white"/>
<path d="M153.941 242.095C139.931 242.095 126.186 251.353 123.232 262.772C120.279 274.19 129.255 283.449 143.264 283.449C157.274 283.449 171.019 274.19 173.972 262.772C176.926 251.353 167.95 242.095 153.941 242.095ZM145.815 273.553C138.506 273.553 133.829 268.724 135.369 262.772C136.909 256.819 144.08 251.99 151.389 251.99C158.699 251.99 163.376 256.819 161.836 262.772C160.296 268.724 153.125 273.553 145.815 273.553Z" fill="white"/>
<path d="M149.884 257.802C146.528 257.802 143.218 260.027 142.506 262.771C141.793 265.515 143.954 267.741 147.321 267.741C150.689 267.741 153.987 265.515 154.7 262.771C155.412 260.027 153.251 257.802 149.884 257.802Z" fill="white"/>
<path d="M359.292 234.035C358.844 234.014 358.384 234.338 358.361 234.705L357.97 239.545L357.614 244.05C357.51 245.368 358.28 246.469 359.648 246.988L362.188 247.949L365.705 234.348L362.556 234.197L359.292 234.035Z" fill="white"/>
<path d="M326.285 242.095C312.275 242.095 298.53 251.353 295.577 262.772C292.623 274.19 301.599 283.449 315.608 283.449C329.618 283.449 343.363 274.19 346.316 262.772C349.27 251.353 340.294 242.095 326.285 242.095ZM318.16 273.553C310.85 273.553 306.173 268.724 307.713 262.772C309.253 256.819 316.424 251.99 323.733 251.99C331.043 251.99 335.72 256.819 334.18 262.772C332.64 268.724 325.469 273.553 318.16 273.553Z" fill="white"/>
<path d="M322.227 257.802C318.871 257.802 315.561 260.027 314.849 262.771C314.136 265.515 316.297 267.741 319.664 267.741C323.032 267.741 326.33 265.515 327.043 262.771C327.755 260.027 325.594 257.802 322.227 257.802Z" fill="white"/>
<path d="M395 127.724C395 155.369 382.312 180.227 362.108 197.436L357.661 187.011C362.717 182.279 367.188 176.986 370.923 171.228L365.947 168.527C365.154 168.095 364.878 167.133 365.338 166.388C365.798 165.642 366.82 165.383 367.613 165.815L372.59 168.516C379.531 156.881 383.577 143.518 383.864 129.29H378.129C377.221 129.29 376.474 128.588 376.474 127.724C376.474 126.86 377.221 126.168 378.129 126.168H383.864C383.577 111.93 379.531 98.5774 372.59 86.9318L367.613 89.6325C367.349 89.773 367.062 89.8486 366.786 89.8486C366.211 89.8486 365.648 89.5677 365.338 89.06C364.878 88.3146 365.154 87.3639 365.947 86.9318L370.923 84.231C363.327 72.5314 352.765 62.7439 340.215 55.7651L337.342 60.4428C337.032 60.9506 336.48 61.2206 335.905 61.2206C335.618 61.2206 335.331 61.1558 335.066 61.0154C334.273 60.5832 334.009 59.6326 334.469 58.8872L337.342 54.2095C324.953 47.8897 310.806 44.2707 295.762 44.1411V49.5534C295.762 50.4176 295.015 51.1198 294.095 51.1198C293.176 51.1198 292.44 50.4176 292.44 49.5534V44.1843C277.511 44.5732 263.502 48.4191 251.297 54.9009L254.17 59.5894C254.63 60.3348 254.354 61.2962 253.561 61.7176C253.297 61.8688 253.009 61.9336 252.733 61.9336C252.159 61.9336 251.596 61.6527 251.285 61.145L248.424 56.4781C236.196 63.5541 225.933 73.3308 218.566 84.9224L223.542 87.634C224.335 88.0661 224.611 89.0168 224.151 89.7622C223.841 90.2699 223.278 90.54 222.715 90.54C222.427 90.54 222.14 90.4752 221.876 90.3347L216.911 87.634C210.222 99.1068 206.338 112.222 206.062 126.168C206.062 126.168 206.062 126.266 206.062 126.363H194.949C195.316 101.159 206.246 78.3542 223.761 61.6852L215.474 52.0381L214.773 52.5674C213.762 53.3344 212.268 53.194 211.441 52.2433L206.074 46.0964C205.235 45.135 205.395 43.7198 206.418 42.9419L221.382 31.5988C222.393 30.8318 223.876 30.9722 224.703 31.9229L230.082 38.0698C230.921 39.0313 230.771 40.4464 229.737 41.2243L229.07 41.732L237.058 51.0442C250.343 42.1533 266.042 36.2441 283.051 34.3536V19.8019H281.235C279.913 19.8019 278.856 18.7972 278.856 17.5657V2.23622C278.856 0.993876 279.913 0 281.235 0H307.323C308.633 0 309.702 0.993876 309.702 2.23622V17.5657C309.702 18.7972 308.633 19.8019 307.323 19.8019H305.507V34.2131C322.666 35.8984 338.549 41.678 352.018 50.4824L359.523 41.732L358.856 41.2243C357.822 40.4464 357.672 39.0313 358.511 38.0698L363.878 31.9229C364.717 30.9722 366.2 30.8318 367.211 31.5988L382.174 42.9419C383.197 43.7198 383.358 45.135 382.519 46.0964L377.141 52.2433C376.313 53.194 374.831 53.3344 373.808 52.5674L373.107 52.0381L365.43 60.983C383.691 78.0193 395 101.635 395 127.724Z" fill="white"/>
<path d="M358.074 127.411L297.405 124.257L294.038 66.9901C294.038 66.8497 293.819 66.8497 293.808 66.9901L290.257 127.303C290.257 127.303 290.257 127.379 290.268 127.411C290.268 127.444 290.257 127.487 290.257 127.519C290.257 129.421 291.9 130.966 293.923 130.966L358.086 127.627C358.235 127.627 358.235 127.422 358.086 127.411H358.074Z" fill="#54B847"/>
</svg>
