<svg width="148" height="100" viewBox="0 0 148 100" fill="none" xmlns="http://www.w3.org/2000/svg">
<rect width="148" height="100" fill="white"/>
<path fill-rule="evenodd" clip-rule="evenodd" d="M81.6305 77.2935C81.1652 76.9816 81.5223 76.2331 81.9768 76.0979C82.2148 76.4826 82.269 77.3559 81.6305 77.2935ZM66.5127 77.1687C66.2421 76.8672 66.3828 76.4098 66.5451 76.0979C66.9131 76.2746 67.216 76.7113 67.0321 77.1271C66.9563 77.3559 66.6317 77.3455 66.5018 77.1687M74.0445 74.8607C74.0986 74.7048 74.1527 74.5384 74.196 74.3825C74.2393 74.7983 74.5098 75.0894 74.7479 75.3909C74.5964 75.3286 74.4557 75.2558 74.3042 75.183C74.1419 76.0771 74.8561 76.6697 75.0401 77.4702C74.7804 77.1999 74.6181 76.8464 74.3584 76.5657C74.2718 77.1479 74.3908 77.7509 74.2068 78.3227C74.0445 77.7301 74.0661 77.1271 74.0337 76.5241C73.7956 76.7217 73.59 76.9296 73.3627 77.1376C73.5142 76.7529 73.8389 76.493 74.0553 76.1395C74.0986 75.8172 74.0662 75.4949 74.0553 75.1726C73.8281 75.287 73.59 75.4013 73.3411 75.4845C73.5251 75.2246 73.7631 75.0271 74.0229 74.8503M75.3539 73.9043C75.9816 73.9043 76.5984 74.1018 77.1503 74.4033C76.8798 74.3825 76.6093 74.3617 76.3495 74.3513C76.382 74.4657 76.4145 74.58 76.4469 74.6944C76.1223 74.3825 75.7543 74.1122 75.3648 73.8939M70.8846 74.4761C71.5447 74.2162 72.2265 73.9042 72.9407 73.8939C72.5944 74.133 72.2481 74.3721 71.9235 74.6424C71.9235 74.5696 71.9235 74.4137 71.9343 74.3305C71.5772 74.3617 71.2309 74.4241 70.8846 74.4657M75.0726 72.2928C75.4297 71.9289 75.776 71.5235 76.2521 71.3363C75.96 71.7002 75.5812 71.9809 75.3539 72.3864C75.592 72.4072 75.8409 72.428 76.079 72.4592C75.6786 72.7399 75.0726 72.5527 74.7912 73.0309C75.0401 72.5319 74.6721 72.0225 74.8345 71.5235C74.9102 71.7834 74.986 72.0433 75.0726 72.2928ZM71.6205 71.222C72.0966 71.3883 72.4754 71.721 72.8758 72.0329C72.9299 71.8666 72.984 71.7002 73.0381 71.5339C73.1355 72.1369 73.3736 72.6983 73.6874 73.2181C73.2762 72.6983 72.7459 72.3656 72.1074 72.22C72.2806 72.1992 72.4537 72.1888 72.6377 72.1784C72.3455 71.8146 71.9451 71.5546 71.6205 71.2116M80.1479 79.1233C80.1696 79.2792 80.202 79.4456 80.2345 79.6015C80.1046 79.5079 79.964 79.4144 79.8341 79.3208C79.7259 79.851 80.3968 80.1109 80.808 80.2045C80.7648 79.7575 80.6024 79.2792 80.1479 79.1233ZM67.6597 80.2045C68.0601 80.1005 68.6337 79.8718 68.6553 79.3832C68.4822 79.3624 68.3523 79.5079 68.2008 79.5807C68.2441 79.4248 68.2766 79.2792 68.3199 79.1337C67.8545 79.2688 67.6706 79.7574 67.6597 80.2149M78.9467 79.0193C78.6978 79.5495 79.1632 80.0174 79.661 80.0589C79.6501 79.6847 79.6285 79.248 79.293 79.0193C79.3038 79.196 79.3255 79.3832 79.3471 79.5599C79.2281 79.3728 79.1199 79.1649 78.9467 79.0193ZM68.796 80.0797C69.283 80.007 69.77 79.5391 69.4778 79.0193C69.3371 79.196 69.2181 79.3832 69.099 79.5703C69.1207 79.3936 69.1423 79.2168 69.1639 79.0401C68.8068 79.2584 68.796 79.7055 68.796 80.0797ZM79.8557 78.2604C79.8882 78.8946 80.505 79.248 81.0786 79.1649C80.9704 78.7698 80.8081 78.2396 80.3103 78.2396C80.3752 78.3955 80.4509 78.5619 80.5158 78.7178C80.2994 78.5515 80.1046 78.3643 79.8557 78.2708M78.5247 79.8302C78.687 79.456 78.9467 78.9673 78.6329 78.593C78.5571 78.7178 78.4922 78.853 78.4165 78.9777C78.3948 78.7386 78.384 78.4995 78.384 78.25C77.9295 78.697 78.0702 79.4456 78.5247 79.8198M70.073 78.25C70.0621 78.4891 70.0513 78.7386 70.0297 78.9777C69.9539 78.853 69.8782 78.7282 69.8132 78.6034C69.4886 78.9569 69.7699 79.4456 69.8998 79.8302C70.3868 79.4664 70.5166 78.7074 70.073 78.25ZM67.3784 79.1545C67.9627 79.248 68.5579 78.8841 68.6012 78.25C68.374 78.3331 68.1792 78.4891 67.9844 78.645C68.0385 78.5099 68.0926 78.3643 68.1359 78.2292C67.6381 78.2292 67.4758 78.7594 67.3675 79.1545M79.2064 78.3331C79.0225 78.1356 78.7736 78.0108 78.5139 77.9693C78.7195 78.5515 79.2714 78.9153 79.8233 79.0713C79.7259 78.6866 79.78 78.1772 79.4337 77.9069C79.1631 77.7405 79.1848 78.1668 79.2173 78.3227M68.6337 79.0713C69.1748 78.8946 69.77 78.5619 69.9106 77.9589C69.6185 78.0108 69.3912 78.198 69.1964 78.3955C69.2289 78.25 69.2722 78.094 69.3046 77.9485C68.6986 77.7301 68.7311 78.6762 68.6337 79.0713ZM77.778 77.4494C77.7888 77.7301 77.778 78.0004 77.7455 78.2812C77.6697 78.1044 77.594 77.9381 77.5183 77.7613C77.1395 78.1044 77.475 78.6866 77.6589 79.0609C77.8537 78.645 78.2217 78.25 78.1459 77.7613C78.1351 77.5638 77.9836 77.3663 77.778 77.4494ZM70.3219 77.7613C70.2461 78.25 70.6032 78.6242 70.7872 79.0401C71.0361 78.697 71.285 78.094 70.9387 77.7509C70.8738 77.9277 70.8197 78.1044 70.7547 78.2812C70.6573 78.0108 70.7006 77.7197 70.6573 77.439C70.4625 77.3559 70.3327 77.595 70.3219 77.7717M79.9423 77.2727C80.018 77.4078 80.083 77.543 80.1587 77.6886C79.8666 77.6158 79.6501 77.3767 79.3687 77.2727C79.5527 78.0316 80.3752 78.146 81.0137 78.0212C80.873 77.5534 80.4942 76.992 79.9531 77.2727M67.4541 77.9901C68.1034 78.1668 68.9367 78.0212 69.1206 77.2623C68.8176 77.3663 68.6012 77.647 68.2658 77.6782C68.3632 77.543 68.4605 77.4078 68.5579 77.2727C68.006 76.9712 67.6381 77.5326 67.4541 77.9901ZM78.4273 76.441C78.5138 76.7009 78.6004 76.9608 78.6437 77.2415C78.4597 77.0752 78.3191 76.8776 78.1892 76.6697C77.7996 77.4286 78.7086 77.9277 79.3471 77.7613C79.1523 77.2727 79.0982 76.493 78.4381 76.441M69.1531 77.7509C69.7916 77.9277 70.7223 77.439 70.3327 76.6697C70.192 76.8672 70.0405 77.0752 69.8673 77.2311C69.9106 76.9608 69.9972 76.7009 70.0838 76.4306C69.4237 76.493 69.3804 77.2623 69.1531 77.7405M79.7908 76.2954C79.8557 76.4306 79.9207 76.5657 79.9856 76.7113C79.6934 76.6385 79.4012 76.4826 79.0982 76.5657C79.3146 77.2415 80.2237 77.1271 80.6349 76.7737C80.5375 76.4722 80.1046 76.3266 79.8016 76.2954M77.1503 77.6886C77.6481 77.4079 78.1134 76.8984 77.9836 76.2642C77.6698 76.3786 77.6481 76.8049 77.41 77.0232C77.4317 76.7633 77.4641 76.5138 77.5074 76.2538C76.9772 76.5138 77.0638 77.1999 77.1612 77.6886M70.5924 76.2538C70.4301 76.888 70.9062 77.4183 71.4149 77.6886C71.5014 77.1999 71.588 76.5138 71.0577 76.2642C71.0902 76.5241 71.1335 76.7841 71.1443 77.044C70.9279 76.8049 70.8846 76.4202 70.5924 76.2642M67.9303 76.7737C68.3307 77.1479 69.2397 77.2415 69.4561 76.5761C69.1531 76.493 68.8609 76.6385 68.5688 76.7113C68.6337 76.5761 68.6986 76.441 68.7635 76.3058C68.4497 76.3266 68.0169 76.4722 67.9303 76.7737ZM79.1848 75.4845C79.3038 75.6301 79.4337 75.7756 79.5527 75.9212C79.109 76.1499 78.6329 75.9628 78.1784 75.9835C78.7519 76.5657 79.7151 76.389 80.2345 75.8276C79.9099 75.6405 79.5636 75.4949 79.1848 75.4845ZM68.3415 75.8796C68.9042 76.3578 69.8132 76.5657 70.3868 75.9835C69.9323 75.942 69.4561 76.1603 69.0125 75.9212C69.1315 75.7756 69.2613 75.6301 69.3804 75.4949C69.0125 75.5157 68.612 75.5989 68.3523 75.89M79.899 75.4637C80.4834 75.8068 81.2193 75.3494 81.7712 75.8172C81.4682 76.0875 81.1543 76.4306 81.1868 76.8776C81.176 77.3247 81.7495 77.7509 82.1175 77.4079C82.5287 77.044 82.4205 76.4514 82.2581 75.9939C83.0589 75.942 83.8381 77.1272 83.0373 77.6574C82.5395 77.7301 82.7884 77.1376 82.875 76.8776C82.2473 76.9608 82.4313 77.9797 83.0265 77.9173C83.6649 77.7509 83.8056 76.8257 83.3944 76.3578C83.0806 75.8692 82.4962 75.7652 81.9876 75.6509C81.3924 75.183 80.6024 75.2974 79.9207 75.4637M66.5668 75.682C66.0148 75.7548 65.4305 75.9523 65.1383 76.4618C64.792 76.94 64.9868 77.7717 65.5711 77.9277C66.123 77.9485 66.307 77.1687 65.8525 76.888C65.8092 76.9192 65.7227 76.9816 65.6794 77.0128C65.9174 77.2311 65.9283 77.8341 65.4954 77.6366C64.7704 77.0544 65.5495 75.9627 66.3287 76.0043C66.0581 76.5241 66.1014 77.5326 66.8589 77.543C67.703 77.3351 67.4217 76.1603 66.8048 75.838C67.3459 75.3598 68.0926 75.838 68.6445 75.4637C67.9519 75.287 67.1728 75.2246 66.5776 75.6924M81.5547 73.6028C81.5764 74.0186 81.9984 74.1953 82.1716 74.528C81.9984 74.5072 81.8253 74.4969 81.663 74.4761C81.8253 74.9023 82.2473 75.0998 82.6369 75.2454C82.691 74.5384 82.4205 73.53 81.5547 73.5924M65.9824 75.235C66.372 75.0895 66.8373 74.9231 66.9563 74.4553C66.794 74.4761 66.6425 74.4969 66.4802 74.5176C66.6317 74.1642 67.0537 73.9978 67.1078 73.5924C66.2205 73.4988 65.9716 74.528 65.9932 75.235M83.7515 73.5196C83.8814 73.8731 84.3467 73.8003 84.574 74.0602C84.3575 74.0602 84.1519 74.029 83.9463 74.0082C84.1303 74.6112 84.8553 74.4761 85.3099 74.3617C85.0718 73.7275 84.4225 73.2597 83.7515 73.5196ZM82.4313 73.5092C82.6369 73.8835 83.1563 73.8211 83.297 74.2473C83.1239 74.2058 82.9507 74.1746 82.7776 74.133C82.7018 74.9127 83.5459 74.9959 84.0978 74.9439C83.9139 74.1434 83.3187 73.374 82.4313 73.5092ZM64.5647 74.9439C65.1275 74.9959 65.9715 74.9231 65.9066 74.1434C65.7335 74.1746 65.5603 74.2162 65.3872 74.2473C65.5062 73.8211 66.0581 73.925 66.188 73.5196C65.3114 73.3948 64.7812 74.185 64.5647 74.9543M63.3744 74.3721C63.8397 74.4969 64.5323 74.6008 64.7379 74.0186C64.5215 74.0394 64.3158 74.0602 64.0994 74.0706C64.3483 73.8523 64.7054 73.8315 64.9543 73.6028C64.305 73.2077 63.5692 73.7275 63.3636 74.3825M84.812 72.9686C85.0068 73.0621 85.2016 73.1661 85.3964 73.2701C85.1908 73.2909 84.9744 73.3117 84.7688 73.3428C85.1151 73.8419 85.7536 73.6755 86.2297 73.5404C85.97 73.0933 85.2341 72.5215 84.812 72.9686ZM80.4401 72.8438C80.1804 73.1453 80.9271 73.4988 80.8513 73.9354C80.5592 73.7067 80.3427 73.4052 80.0505 73.1765C80.0289 74.0186 80.7972 74.5696 81.3058 75.131C81.5764 74.2785 81.3058 73.1973 80.4401 72.8438ZM67.3134 75.1206C67.8762 74.6216 68.5904 74.0186 68.612 73.1973C68.2982 73.3948 68.1034 73.7483 67.7896 73.9354C67.7571 73.5092 68.493 73.1245 68.2333 72.8542C67.3567 73.1973 67.1187 74.2785 67.3243 75.131M62.4437 73.5612C62.9307 73.7067 63.5475 73.8419 63.9046 73.3636C63.699 73.3324 63.4934 73.3116 63.2878 73.2909C63.4609 73.1453 63.8289 73.1141 63.7856 72.8334C63.2445 72.7399 62.6818 73.0829 62.4329 73.5612M77.7347 72.6983C77.3668 72.927 76.7175 72.8854 76.5768 73.3636C77.7347 73.1349 78.9467 72.1992 80.1263 72.8958C80.1587 72.7295 80.1912 72.5631 80.2237 72.4072C79.3796 72.3032 78.503 72.2928 77.7239 72.6983M68.4281 72.428C68.4605 72.5839 68.5038 72.7399 68.5363 72.8958C69.7159 72.1784 70.9279 73.1557 72.0858 73.3532C71.9343 72.9166 71.3607 72.9374 71.0144 72.7398C70.2136 72.3448 69.3046 72.2616 68.4281 72.4384M82.691 72.2928C82.8317 72.6983 83.2537 72.771 83.6108 72.8958C83.4161 72.927 83.2105 72.9582 83.0157 72.979C83.0157 73.0829 83.0265 73.1973 83.0373 73.3013C83.5351 73.5612 84.0437 73.2181 84.5415 73.1141C84.0762 72.5943 83.3944 72.2304 82.691 72.2824M81.1651 72.6983C81.4032 72.7295 81.6413 72.7502 81.8794 72.7814C81.598 72.8854 81.295 72.9374 81.0028 72.9686C81.4249 73.6859 82.2581 73.3116 82.8966 73.2909C82.7343 72.8126 82.4097 72.272 81.8577 72.2304C81.5331 72.1577 81.3058 72.4488 81.1651 72.6983ZM65.7551 73.3013C66.4044 73.3325 67.2269 73.6755 67.6705 72.979C67.3784 72.9478 67.0754 72.9062 66.794 72.7918C67.0321 72.7502 67.2702 72.7295 67.5082 72.6983C67.3351 72.4799 67.1295 72.1888 66.8265 72.2408C66.2637 72.272 65.9283 72.823 65.766 73.3117M64.1319 73.1245C64.5864 73.2077 65.0409 73.5404 65.5062 73.3532C65.6794 73.3013 65.6361 73.1141 65.6253 72.979C65.4197 72.9582 65.214 72.9374 65.0084 72.9062C65.3655 72.7814 65.7876 72.7191 65.9824 72.3344C65.2898 72.1992 64.5972 72.6151 64.1427 73.1245M84.0221 72.272C84.2926 72.2928 84.574 72.2928 84.8445 72.3032C84.6389 72.3968 84.3792 72.428 84.2277 72.6255C84.6606 72.7606 85.1042 72.6047 85.4722 72.3656C85.1367 71.8873 84.3251 71.6066 84.0221 72.272ZM63.2012 72.3552C63.5691 72.5735 64.0669 72.8542 64.4673 72.5319C64.2617 72.4591 64.0561 72.3968 63.8505 72.3032C64.121 72.2928 64.4024 72.2824 64.673 72.2616C64.3483 71.6066 63.5583 71.8769 63.2012 72.3552ZM82.8858 72.0017C83.1455 71.8873 83.4052 71.7522 83.6758 71.669C83.5784 71.8146 83.4702 71.9601 83.3619 72.1057C83.9138 72.2616 84.3034 71.7106 84.5632 71.3051C83.9247 71.0348 83.0914 71.2947 82.8858 72.0121M64.0778 71.3155C64.3916 71.6898 64.7595 72.2824 65.3223 72.1057C65.2141 71.9601 65.1167 71.825 65.0193 71.669C65.2898 71.7626 65.5387 71.8977 65.7984 72.0017C65.5603 71.2844 64.7379 71.014 64.0778 71.3051M80.3319 72.1057C80.5916 71.9289 80.8297 71.7002 81.1219 71.5547C80.9596 71.9081 80.689 72.1992 80.5267 72.5527C81.3491 72.5527 81.5872 71.5962 81.6738 70.9309C81.1002 71.0764 80.3427 71.3779 80.3427 72.1057M67.0213 70.9309C67.0862 71.5651 67.3351 72.6359 68.1575 72.5111C67.9519 72.1992 67.7247 71.9081 67.5732 71.5754C67.8545 71.721 68.0818 71.9497 68.3631 72.1057C68.3415 71.3883 67.6056 71.0868 67.0321 70.9413M82.0201 71.0556C81.9984 71.1284 81.9551 71.2739 81.9443 71.3467C82.1499 71.3363 82.3555 71.3259 82.572 71.3259C82.3555 71.5131 82.1066 71.6482 81.8361 71.7522C81.8253 71.8146 81.7928 71.9497 81.782 72.0121C82.5936 72.2928 82.9832 71.3467 83.3403 70.7957C82.8858 70.6918 82.4421 70.8997 82.0201 71.0556ZM65.3764 70.7957C65.7227 71.3571 66.1014 72.2408 66.9131 72.0433C66.978 71.5754 66.3503 71.6378 66.1447 71.3051C66.3503 71.3155 66.5559 71.3363 66.7724 71.3675C66.6425 70.7957 65.8525 70.7645 65.3764 70.8061M71.9126 70.12C71.9451 70.3279 71.9668 70.5462 71.9884 70.7541C71.3283 70.463 70.614 70.1303 69.8782 70.3487C70.311 70.5774 70.679 70.9413 70.8738 71.4091C70.7006 71.4299 70.5275 71.4403 70.3435 71.4611C70.614 71.7938 71.0253 71.9289 71.4149 72.0537C71.2525 72.1888 71.0794 72.3136 70.9062 72.4384C71.3175 72.8022 71.9235 72.823 72.3347 73.2077C72.497 73.3429 72.4213 73.6547 72.1832 73.5924C71.4906 73.5196 70.8629 73.1349 70.1703 73.1245C70.2028 73.3013 70.2461 73.4676 70.2786 73.6443C69.7808 73.6028 69.3155 73.7795 68.9151 74.0706C69.0557 74.1849 69.3046 74.2162 69.3263 74.4241C69.1206 74.6736 68.8718 74.8815 68.6553 75.1102C69.099 75.1518 69.5319 75.183 69.9756 75.1934C69.8457 75.4533 69.6834 75.682 69.4994 75.9108C70.073 75.9731 70.6465 75.838 71.1551 75.5573C71.1551 75.734 71.1768 75.9212 71.1876 76.0979C71.7611 75.8692 72.2373 75.4533 72.6593 75.0063C72.7784 74.8503 72.9732 74.8815 73.1463 74.9023C73.2329 75.4013 72.7676 75.6821 72.562 76.0667C72.3455 76.3994 72.2806 76.8049 72.2806 77.1999C72.4754 77.1064 72.681 77.0128 72.8866 76.94C72.5944 77.6574 72.378 78.4891 72.7892 79.2064C72.8866 79.0297 72.984 78.853 73.0814 78.6762C73.4385 79.3936 74.0553 79.9446 74.3584 80.7035C74.6397 79.955 75.3106 79.4456 75.5487 78.6762C75.6677 78.8426 75.776 79.0193 75.8734 79.196C76.4036 78.5203 76.1223 77.647 75.8192 76.94C76.0357 77.0128 76.2413 77.0856 76.4577 77.1583C76.4253 76.493 76.1439 75.89 75.6786 75.4325C75.4297 75.2454 75.5271 74.7152 75.895 74.8919C76.3928 75.339 76.8798 75.8276 77.5074 76.0979C77.5074 75.9004 77.5291 75.7028 77.5399 75.5157C78.0269 75.838 78.6113 75.9419 79.1848 75.89C79.0117 75.6612 78.8602 75.4221 78.7195 75.1726C79.1523 75.1622 79.596 75.131 80.0289 75.0895C79.8233 74.8191 79.4878 74.632 79.3471 74.3201C79.477 74.2057 79.6501 74.1538 79.8124 74.0706C79.412 73.7483 78.9251 73.5716 78.4165 73.6132C78.4598 73.4364 78.503 73.2597 78.5355 73.0829C77.7563 73.1037 77.0638 73.6027 76.2738 73.5508C76.3171 72.7814 77.3127 72.8334 77.7996 72.4592C77.6265 72.324 77.4642 72.1888 77.291 72.0537C77.6589 71.8873 78.081 71.7834 78.3299 71.4403C78.1567 71.4195 77.9836 71.3987 77.8104 71.3779C78.0269 70.9205 78.3732 70.567 78.7952 70.3175C78.0593 70.0888 77.3667 70.463 76.6958 70.7125C76.7174 70.5046 76.7499 70.2967 76.7824 70.0888C76.2305 70.2551 75.8085 70.6606 75.4081 71.0556C75.3648 70.8269 75.3323 70.5982 75.3106 70.3695C74.8453 70.7125 74.683 71.3051 74.3259 71.7314C74.0553 71.2532 73.8389 70.7125 73.3952 70.3799C73.3736 70.6086 73.3519 70.8477 73.3195 71.0764C72.919 70.6606 72.4862 70.2551 71.9235 70.0784M70.9495 69.3194C71.2958 69.4026 71.5663 69.0595 71.9018 69.1011C72.3671 69.1011 72.7351 69.5377 73.2112 69.3922C73.6549 69.2986 74.0229 69.6209 74.3151 69.912C74.6613 69.6833 74.9968 69.2986 75.4513 69.3922C75.895 69.5273 76.2413 69.1635 76.6633 69.1115C77.0962 69.0075 77.4533 69.465 77.897 69.2986C78.687 69.1427 79.9423 69.4442 79.7908 70.5046C79.8666 70.8997 79.1415 71.1284 79.4229 71.4403C79.7908 70.8893 80.2345 70.3591 80.8838 70.1511C81.3816 69.8704 81.9659 70.0472 82.4854 69.8496C82.9724 69.7041 83.5567 69.7145 83.9788 70.0368C84.4116 70.3903 85.1583 70.2135 85.4289 70.7957C85.5587 71.1284 85.8401 71.3467 86.0998 71.5651C86.4136 71.8042 86.4028 72.2616 86.6842 72.5215C87.0521 72.875 87.3876 73.4156 87.1712 73.9458C87.0413 74.3305 86.6626 74.4968 86.3163 74.6112C86.1539 74.9543 85.8942 75.287 85.5046 75.339C85.0393 75.3701 84.8012 75.8276 84.4008 76.0043C84.8554 76.8776 84.693 78.0628 83.8814 78.6554C83.3511 79.0817 82.6044 78.9465 82.085 78.5722C82.3231 79.1856 81.9119 79.7263 81.9335 80.3397C81.901 80.7971 81.4898 81.1714 81.0461 81.1818C80.083 81.109 79.1415 80.953 78.2217 80.6931C77.7996 80.2669 77.3127 79.9238 76.8906 79.4975C76.6958 79.6327 76.4794 79.4975 76.2954 79.4248C75.9816 80.007 75.473 80.4748 75.2457 81.109C75.0509 81.66 74.3259 81.8887 73.8605 81.5664C73.4493 81.2961 73.3952 80.7451 73.1138 80.3812C72.8541 80.0486 72.5836 79.7263 72.378 79.3624C71.5555 79.5079 71.101 80.3397 70.4409 80.7555C69.7699 80.8179 69.1531 81.1298 68.4714 81.0882C67.8762 81.3065 67.0104 81.2129 66.8481 80.4748C66.9131 79.8198 66.4261 79.248 66.6858 78.5827C66.2313 78.8738 65.6469 79.0713 65.1383 78.8114C64.186 78.3643 63.8505 77.096 64.2942 76.1603C63.8072 75.9835 63.6665 75.3701 63.1363 75.3078C62.79 75.235 62.606 74.9127 62.4653 74.6216C61.9675 74.4969 61.4589 74.1018 61.5239 73.5196C61.5455 72.875 62.2273 72.5839 62.3788 72.0017C62.5411 71.4923 63.1255 71.3259 63.3094 70.8373C63.5908 70.1927 64.3916 70.3903 64.8569 69.9848C65.4413 69.5793 66.1447 69.8185 66.7724 69.9536C67.6597 69.8912 68.493 70.3695 69.0882 71.014C68.9259 70.619 68.8177 70.1199 69.1098 69.7665C69.5535 69.2154 70.3435 69.2362 70.9712 69.3194M79.293 65.7742C79.5419 65.8262 79.7908 65.847 80.0505 65.8782C80.1046 65.4 80.1479 64.9217 80.1804 64.4435C79.8665 64.8801 79.5852 65.3376 79.2822 65.7742M78.5139 66.1693C79.0441 65.3688 79.5852 64.5682 80.1046 63.7573C80.4077 63.7781 80.7107 63.8093 81.0137 63.8405C80.9596 64.5578 80.8838 65.2648 80.8297 65.9822C81.0136 65.9614 81.1976 65.9406 81.3816 65.9198C81.3058 66.0861 81.2409 66.2629 81.1651 66.4396C81.0353 66.4396 80.9054 66.4396 80.7756 66.4396C80.7756 66.6787 80.7972 66.9178 80.8513 67.1466C80.4942 67.1154 80.1371 67.0738 79.78 67.0426C79.899 66.8243 79.964 66.5852 79.9964 66.346C79.4986 66.2733 79.0008 66.2525 78.5139 66.1797M89.4221 40.4589C89.4437 40.1262 89.5195 39.6376 89.9523 39.6999C89.909 40.0326 89.79 40.4069 89.4221 40.4589ZM59.0241 39.6999C59.4569 39.6376 59.5435 40.1262 59.5651 40.4589C59.1864 40.4069 59.0782 40.0326 59.0241 39.6999ZM90.6882 37.0177C90.58 36.5706 90.9696 36.1964 91.3159 35.9884C91.2942 36.186 91.2726 36.3939 91.2618 36.5914C91.3808 36.737 91.4998 36.8825 91.6189 37.0281C91.4241 37.236 91.1752 37.3919 90.9804 37.5999C90.8397 37.8598 90.7748 38.2029 90.4718 38.3172C90.4934 37.8702 90.8072 37.4647 90.699 37.0177M57.6822 35.9884C58.0285 36.1964 58.418 36.5706 58.3098 37.0177C58.2124 37.4647 58.5154 37.8806 58.5371 38.3172C58.2341 38.1925 58.1691 37.8598 58.0285 37.5999C57.8337 37.3919 57.5848 37.236 57.39 37.0281C57.509 36.8825 57.6281 36.737 57.7471 36.5914C57.7363 36.3835 57.7038 36.1859 57.6822 35.978M84.7038 28.4614C85.0501 28.4614 85.3856 28.4614 85.7319 28.4614C85.7427 29.002 85.7319 29.5426 85.7319 30.0936C85.3856 30.0936 85.0393 30.0936 84.693 30.0936C84.693 29.553 84.693 29.0124 84.693 28.4718M63.0713 28.4718C63.4068 28.4718 63.7531 28.4718 64.0886 28.4718C64.0886 29.0124 64.0886 29.553 64.0886 30.0936C63.7423 30.0936 63.4068 30.0936 63.0605 30.0936C63.0605 29.553 63.0605 29.0124 63.0605 28.4614M90.1579 72.376C92.7768 73.3844 95.6986 73.8315 98.4473 73.1765C98.0794 72.771 97.6898 72.376 97.3219 71.9809C97.1271 71.7938 97.0946 71.4611 97.2786 71.2636C97.5816 70.8997 97.9279 70.567 98.2309 70.1927C97.56 70.2239 97.6573 70.2759 96.9864 70.2343C96.9972 70.567 96.2397 70.8685 96.2614 71.2012C95.071 71.2324 93.8481 71.0348 92.766 70.5254C92.8958 70.2447 92.6902 70.1511 92.8093 69.86C92.6794 69.8081 92.8742 69.5585 92.7443 69.5065C91.8569 70.4422 91.002 71.3883 90.1688 72.376M56.3944 69.9952C56.3295 70.2551 56.3403 70.2343 56.2104 70.5254C55.1174 71.0348 53.9054 71.2324 52.7042 71.2012C52.7259 70.8789 51.8168 70.5566 51.8277 70.2239C51.2108 70.2551 51.5138 70.2239 50.897 70.1823C51.2217 70.7022 51.9359 71.0244 51.9683 71.6794C51.6762 72.272 51.0918 72.6567 50.6806 73.1765C53.4401 73.8211 56.3511 73.3844 58.97 72.3656L56.3944 69.5065V69.8912M71.9992 65.4C71.8802 65.6183 71.7287 65.8886 71.891 66.1277C72.1075 66.5124 72.8217 66.5124 72.8974 66.0238C72.8541 65.5871 72.3239 65.5351 71.9992 65.4ZM75.8084 65.3376C75.1592 65.8366 76.0032 66.7723 76.5551 66.2213C76.869 65.7223 76.1331 65.5039 75.8084 65.3376ZM75.9708 63.986C75.7435 64.4019 76.3062 64.5994 76.5768 64.7554C77.0529 64.3603 76.4253 63.5598 75.9708 63.986ZM72.1616 63.9653C71.7936 64.3811 72.4429 64.6514 72.7567 64.7658C73.1355 64.3603 72.6377 63.6846 72.1616 63.9653ZM68.8501 63.591C68.9691 64.5371 69.099 65.4831 69.2289 66.4188C69.2397 66.6579 69.3912 66.8451 69.5319 67.0218C69.0882 67.0842 68.6445 67.1362 68.2008 67.2089C68.5579 66.398 68.1359 65.4727 68.0818 64.6202C67.9411 64.5994 67.8004 64.5786 67.6705 64.5578C68.0926 64.2979 68.5363 64.038 68.8176 63.6118C67.7788 63.7365 67.7788 63.7261 66.7507 63.9237C66.8698 64.3291 66.004 64.9009 66.1014 65.3064C64.8245 65.6183 63.212 65.9822 62.1299 65.0153C60.2144 65.6391 58.2882 66.398 56.7299 67.7288C56.4702 67.9055 56.7623 68.207 56.8489 68.4045C57.5307 69.2051 58.2449 69.9744 58.9591 70.7541C59.5976 70.1615 60.3551 69.6729 61.1559 69.3402C64.5756 67.8743 68.2766 67.1674 71.9667 66.8763C71.6205 66.7099 71.1876 66.4812 71.166 66.0341C71.1118 65.6599 71.404 65.3896 71.6529 65.1712C71.2417 64.8905 71.0253 64.2564 71.404 63.8509C71.9343 63.3207 72.9732 63.2791 73.471 63.8717C73.7415 64.2356 73.5467 64.693 73.2221 64.9425C74.0337 65.3064 73.9255 66.5644 73.0706 66.8035C73.9255 66.7619 74.7912 66.7307 75.6461 66.7931C75.3106 66.6163 74.9319 66.3772 74.9319 65.9406C74.8886 65.5455 75.2024 65.296 75.473 65.0777C75.0726 64.7762 74.9211 64.1212 75.3106 63.7469C75.8734 63.2583 76.8798 63.2895 77.3451 63.8925C77.6265 64.2667 77.3992 64.745 77.0421 64.9633C77.8645 65.4208 77.594 66.6995 76.6958 66.8555C80.5267 67.105 84.3792 67.8119 87.9503 69.3298C88.7728 69.6625 89.5411 70.1511 90.2012 70.7645C91.002 69.8081 92.0518 69.0179 92.4522 67.7808C90.8614 66.3876 88.8485 65.6183 86.879 64.9945C85.8185 66.0237 84.1628 65.6391 82.875 65.3272C82.9724 64.9113 82.0742 64.3083 82.204 63.9029C77.4642 62.9672 73.6657 62.884 68.8826 63.6118M69.4129 54.9931C69.4129 55.1283 69.402 55.2738 69.3912 55.409C70.6032 55.6897 71.8477 55.8352 73.0814 55.908C73.0814 55.7209 73.0814 55.5337 73.0814 55.357C71.8477 55.3154 70.614 55.1699 69.402 54.9931M75.7219 55.357C75.7219 55.5441 75.7219 55.7313 75.7327 55.908C77.0746 55.8248 78.4056 55.6377 79.715 55.3258C79.715 55.1803 79.715 55.0347 79.715 54.8892C78.3948 55.1491 77.0529 55.2842 75.7219 55.3466M90.5259 53.8599C90.4718 54.5877 90.1147 55.253 90.0605 55.9808C89.9307 56.8749 90.0822 57.8417 89.6601 58.6735C89.2273 59.526 88.3399 59.9938 87.4742 60.2433C86.7383 60.3993 85.9591 60.2225 85.2341 60.4721C85.2341 61.3142 84.6714 62.1147 83.8381 62.2498C83.6758 62.8008 83.5026 63.3415 83.3403 63.8925C84.0978 64.1316 84.9095 64.2148 85.6886 64.0692C85.7644 63.3311 85.97 62.385 86.76 62.1459C87.0954 62.281 87.3227 62.6345 87.6149 62.8424C88.7836 61.886 90.1904 61.3038 91.6838 61.1686C91.8678 59.7859 93.2096 58.9438 94.4541 58.6943C94.1187 57.8106 94.0321 56.8437 94.1187 55.8976C92.8309 55.3986 91.5647 54.7852 90.5259 53.8495M54.8577 55.8976C54.9335 56.8437 54.8577 57.8106 54.5222 58.6943C55.7667 58.9438 57.1086 59.7859 57.2926 61.1686C58.7752 61.3142 60.182 61.8964 61.3507 62.8424C61.6537 62.6345 61.8702 62.2706 62.2056 62.1459C62.9956 62.385 63.2012 63.3311 63.277 64.0692C64.0561 64.2148 64.8678 64.1316 65.6253 63.8925C65.4629 63.3415 65.2898 62.8008 65.1275 62.2498C64.2942 62.1147 63.7315 61.3038 63.7315 60.4721C63.0173 60.2225 62.2381 60.3889 61.5022 60.2433C60.6581 59.9938 59.7924 59.5468 59.3595 58.7358C58.905 57.8937 59.0565 56.8957 58.9267 55.9808C58.8617 55.253 58.5155 54.5877 58.4613 53.8495C57.4225 54.7852 56.1455 55.3986 54.8686 55.8976M102.029 52.446C102.592 53.2673 102.7 54.2862 102.7 55.2634C103.782 55.6897 104.15 57.1868 103.534 58.1536C103.057 59.1517 101.932 59.6403 101.531 60.68C101.315 61.4493 101.586 62.2498 101.878 62.9568C101.986 63.1751 102.062 63.4766 102.311 63.5702C102.495 63.5078 102.495 63.2583 102.56 63.0919C102.776 62.1459 103.285 61.2934 103.912 60.5656C104.735 59.578 105.86 58.7774 106.239 57.4883C106.52 56.2407 106.239 54.8476 105.449 53.8495C104.605 52.8514 103.285 52.5084 102.051 52.4356M43.4192 54.0678C42.5643 55.3778 42.3371 57.2907 43.3327 58.5903C44.1984 59.7443 45.4104 60.6176 46.0489 61.9483C46.3411 62.4578 46.406 63.0608 46.6441 63.6014C46.9904 63.4662 47.077 63.0608 47.2176 62.7489C47.4665 62.0731 47.7046 61.3142 47.4557 60.6072C47.0337 59.6299 45.984 59.1517 45.5078 58.2056C44.8693 57.2284 45.2048 55.7313 46.3086 55.2738C46.3519 54.307 46.3844 53.2569 46.9687 52.4356C45.6593 52.5188 44.2092 52.9138 43.4084 54.0678M75.7435 52.0925C75.7435 52.6747 75.7327 53.2569 75.7435 53.8391C77.0854 53.7767 78.4165 53.6104 79.7259 53.3609C79.7367 52.8411 79.7367 52.3212 79.7259 51.8014C78.3948 51.947 77.0637 52.0613 75.7219 52.0925M69.3804 51.8326C69.3804 52.3628 69.3804 52.9034 69.3804 53.444C70.5924 53.6728 71.8369 53.7975 73.0706 53.8495C73.0922 53.2673 73.0814 52.6851 73.0706 52.1029C71.8369 52.0613 70.6032 51.9678 69.3804 51.843M75.7219 47.6116C75.7219 48.6097 75.7002 49.6182 75.7327 50.6162C77.0638 50.5642 78.384 50.4603 79.7042 50.3043C79.7367 49.4102 79.7259 48.5057 79.7259 47.6013C78.3948 47.5909 77.0529 47.6013 75.7219 47.6013M69.3804 47.622C69.3912 48.5265 69.3804 49.4206 69.3804 50.3251C70.6032 50.4915 71.8261 50.5434 73.0597 50.6162C73.1247 49.6182 73.0814 48.6097 73.0814 47.6013C71.8477 47.6013 70.6141 47.5701 69.3804 47.622ZM82.0958 43.6298C82.0634 44.4095 82.085 45.1893 82.0958 45.969C82.7559 45.969 83.4269 45.917 84.087 45.9274C84.1303 45.3348 84.1087 44.7318 84.0978 44.1288C83.4377 43.9417 82.7668 43.765 82.0958 43.6298ZM64.8569 44.108C64.8569 44.711 64.8245 45.3244 64.8894 45.9274C65.6145 45.9274 66.3395 45.9586 67.0645 45.9898C67.0645 45.1789 67.0645 44.368 67.0645 43.557C66.3287 43.713 65.582 43.8689 64.8677 44.108M75.7327 42.9229C75.7327 43.9937 75.711 45.0541 75.7543 46.125C77.0746 46.1146 78.4056 46.1146 79.7259 46.125C79.78 45.1685 79.7475 44.2016 79.7475 43.2347C78.4164 43.058 77.0746 42.954 75.7435 42.9229M69.4129 43.1932C69.3912 44.1704 69.4129 45.1477 69.4129 46.1146C70.6357 46.1146 71.8585 46.1042 73.0814 46.1146C73.1463 45.0541 73.103 43.9833 73.103 42.9229C71.8694 42.9436 70.6357 43.058 69.4129 43.1932ZM82.1066 41.1762C82.085 41.4985 82.085 41.8104 82.1283 42.1223C82.7992 42.2263 83.4593 42.4238 84.1195 42.5798C84.1195 42.351 84.1195 42.1327 84.1086 41.904C83.4485 41.6337 82.7884 41.3738 82.1066 41.1762ZM64.8786 41.7792C64.8786 42.0391 64.8786 42.2887 64.8786 42.5486C65.6036 42.3614 66.3395 42.1951 67.0754 42.0496C67.0754 41.7065 67.0754 41.353 67.0754 41.0099C66.3287 41.2178 65.5928 41.4777 64.8786 41.7792ZM75.7435 40.0846C75.7435 40.5317 75.7327 40.9891 75.7543 41.4362C77.0854 41.4362 78.4164 41.5921 79.7475 41.7169C79.7583 41.3322 79.7692 40.9371 79.7259 40.5525C78.4056 40.3237 77.0746 40.1262 75.7327 40.095M69.402 40.4693C69.3804 40.8748 69.3804 41.2698 69.3912 41.6753C70.614 41.5921 71.8369 41.4466 73.0706 41.4466C73.1139 40.9995 73.103 40.5421 73.0922 40.0846C71.8585 40.1158 70.6249 40.2718 69.4129 40.4693M75.7543 37.9949C75.7543 38.1925 75.7435 38.39 75.7327 38.5875C77.0854 38.6603 78.4273 38.8059 79.7583 39.045C79.7583 38.889 79.7583 38.7331 79.7583 38.5771C78.4489 38.2756 77.107 38.0781 75.7652 37.9949M69.4129 38.4836C69.4129 38.6395 69.4129 38.7955 69.4129 38.941C70.6465 38.7747 71.8802 38.6291 73.1247 38.5667C73.1247 38.3692 73.1247 38.1717 73.1138 37.9742C71.8693 38.0469 70.6357 38.2029 69.4236 38.4732M84.1628 36.3211C84.087 37.2568 83.0156 36.9033 82.5179 36.5394C81.9768 36.6954 81.5439 37.08 81.1435 37.4751C81.5547 38.0469 82.1175 38.4836 82.7343 38.7955C83.0589 38.6707 83.3511 38.4628 83.6649 38.3172C84.0762 38.3484 84.1628 38.7643 84.2277 39.1074C84.6606 38.9306 85.1475 38.6603 85.602 38.889C86.2297 39.2217 86.695 39.7935 87.182 40.3029C86.9764 41.2386 86.9764 42.2055 86.8357 43.1516C87.2253 42.7149 87.6473 42.3199 88.091 41.9456C87.9611 41.6753 87.8097 41.4258 87.669 41.1659L87.5824 40.7396L87.5067 40.3341C87.4634 39.7727 87.8205 39.2841 87.9179 38.7851C87.0521 38.1197 86.1215 37.5063 85.3964 36.6642C85.1151 36.2691 84.5632 36.3627 84.1519 36.3211M63.6341 36.6642C62.9199 37.5063 61.9892 38.1197 61.1126 38.7851C61.1992 39.2945 61.5671 39.7727 61.5239 40.3341L61.5022 40.7188L61.3615 41.1762C61.2209 41.4362 61.0693 41.6857 60.9395 41.956C61.394 42.3198 61.816 42.7253 62.2056 43.162C62.0541 42.2159 62.0649 41.249 61.8485 40.3134C62.3355 39.8039 62.8008 39.2321 63.4285 38.8994C63.883 38.6603 64.3808 38.941 64.8028 39.1177C64.8786 38.7747 64.9651 38.3588 65.3764 38.3276C65.6902 38.4836 65.9824 38.6915 66.307 38.8059C66.9239 38.494 67.4866 38.0573 67.887 37.4855C67.4974 37.0905 67.0537 36.7058 66.5235 36.5498C66.0257 36.9137 64.9543 37.2672 64.8786 36.3315C64.4565 36.3731 63.9155 36.2691 63.6341 36.6746M91.9435 32.9839C92.1059 33.3061 92.279 33.618 92.4305 33.9507C91.8028 33.7012 91.1535 32.9215 90.4934 33.5037C90.5475 33.6388 90.6016 33.774 90.6666 33.9195C90.1688 33.7844 89.671 33.8675 89.3247 34.2834C89.4437 34.6265 89.6493 34.9696 90.0389 35.0423C90.093 34.876 90.1579 34.72 90.2229 34.5641C90.4609 34.5641 90.699 34.5641 90.9371 34.5433C90.7098 35.2815 90.461 35.9988 90.0064 36.6226C90.2012 37.9326 89.3463 39.0346 88.9892 40.2302C88.9135 40.5837 89.184 40.8644 89.3247 41.1555C89.487 41.4258 89.6926 41.8624 90.0714 41.7377C90.4177 41.5193 90.4069 41.0411 90.4826 40.6772C90.6558 40.6772 90.8289 40.6668 90.9912 40.6668C90.8614 41.0099 90.6449 41.3114 90.5908 41.6857C90.9155 41.6857 91.305 41.6441 91.489 41.3322C91.792 40.7396 92.1708 40.1782 92.4305 39.5544C93.4585 39.4296 94.3243 38.5667 94.4433 37.5063C94.4974 37.5167 94.6165 37.5479 94.6814 37.5687C94.4974 38.6603 93.7183 39.5856 92.6469 39.8039C91.9002 40.7708 91.673 42.3095 90.3527 42.7045C89.1732 42.8189 88.1992 43.661 87.6257 44.6799C87.1495 45.2828 86.7383 46.0002 86.7816 46.8111C87.2361 46.8111 87.669 46.7176 88.0802 46.5096C88.2317 46.4265 88.2641 46.6032 88.3291 46.6968C86.6301 47.279 84.7904 47.3829 83.0048 47.4453C82.7235 47.4869 82.3447 47.3517 82.1608 47.6428C81.7604 48.1938 81.5114 48.8384 81.2734 49.4726C81.1652 49.7221 81.4249 49.93 81.4898 50.1588C81.7279 50.7514 81.8794 51.3856 81.9984 52.0197C81.901 52.945 81.8253 54.0263 82.5287 54.754C83.4702 54.6085 83.784 55.5961 83.9247 56.3447L85.18 56.8957C85.3099 57.1244 85.483 57.3531 85.5804 57.6026C85.8077 58.1536 85.3423 58.0497 84.7904 58.1536C84.7038 58.164 84.6173 58.1848 84.5199 58.1848C84.4008 58.1848 84.2926 58.1433 84.1844 58.1017C83.7732 57.9353 83.3836 57.6962 83.0589 57.4051C82.9291 57.2907 82.81 57.1556 82.7668 56.9892C82.7451 56.9165 82.7451 56.8333 82.7343 56.7605C82.4962 55.7832 80.202 56.7293 79.6068 56.8437C78.3623 57.0932 77.1179 57.3427 75.8625 57.5818C75.3106 57.6962 74.7371 57.8002 74.1744 57.7586C73.6766 57.7274 73.2004 57.5714 72.7134 57.4571C71.101 57.0828 69.3696 57.166 67.8221 56.5838C67.4108 56.4278 66.9131 56.2407 66.5776 56.5214C66.4369 56.6358 66.3612 56.8125 66.2746 56.9684C65.8525 57.7274 64.9219 58.1848 64.0345 58.0809C63.1471 57.9769 62.368 57.3011 62.1515 56.4694C61.9892 55.8456 62.1299 55.1803 62.0866 54.5357C62.0325 53.8911 61.6754 53.1737 61.0152 53.0594C60.5824 53.2361 60.3118 53.6728 60.2252 54.1094C60.1387 54.5461 60.2036 55.0035 60.2685 55.4506C60.3551 56.0224 60.4309 56.5942 60.5175 57.166C60.5824 57.6026 60.6581 58.0601 60.9611 58.3824C61.6537 59.1309 62.9631 58.6735 63.9479 59.0165C64.5647 59.2349 64.9976 59.7547 65.4088 60.2537C66.0581 61.0439 66.7291 61.886 66.8914 62.8736C71.9018 61.9691 77.0854 61.9587 82.1066 62.832C82.5395 62.2082 82.7992 61.4805 83.1455 60.8047C83.5026 60.129 83.9896 59.474 84.7038 59.1725C85.3099 58.923 85.9916 58.9542 86.6409 58.8814C87.2902 58.8086 88.0044 58.6007 88.3291 58.0497C88.4914 57.769 88.5347 57.4467 88.578 57.1244C88.6429 56.5838 88.7078 56.0328 88.7836 55.4921C88.8485 55.0139 88.9026 54.5149 88.8052 54.0367C88.7078 53.5584 88.4048 53.0906 87.9395 52.9034C87.5499 53.0906 87.1171 53.3193 86.9872 53.7144C86.9006 53.9535 86.9547 54.2238 86.9872 54.4733C87.0846 55.3258 87.0413 56.4382 86.6193 57.218C86.4245 57.5818 86.1431 57.6858 85.7535 57.9041L85.1908 56.9061C85.4722 56.1367 85.6994 55.3258 85.5587 54.5045C85.1259 54.4213 84.574 54.3174 84.4008 53.8287C84.2818 53.4233 84.6064 53.0594 84.9203 52.8722C84.4116 52.0925 83.4918 51.6143 83.2321 50.6682C83.0481 50.2315 83.2645 49.7741 83.4918 49.4102C85.5046 49.3375 87.3984 50.1068 89.3788 50.3771C89.6926 50.0028 89.7792 49.5142 89.9415 49.0672C89.9956 49.0879 90.1038 49.1191 90.1579 49.1399C89.9523 49.6389 89.9199 50.242 89.5195 50.6266C89.0541 50.6474 88.6105 50.4499 88.1451 50.3771C89.4437 52.8411 91.5972 54.858 94.2485 55.6689C94.4217 54.858 94.703 54.0678 95.1251 53.3609C95.19 53.3921 95.309 53.4648 95.374 53.496C94.281 55.2426 94.1187 57.5922 95.1467 59.4116C95.4714 60.129 96.1748 60.7008 96.1207 61.5533C97.1054 61.5949 98.0361 62.5929 97.5816 63.6118C97.2678 64.8282 96.0774 65.3168 95.2874 66.1381C94.9519 66.45 95.3848 66.8659 95.2333 67.2401C95.0601 67.7392 94.4866 67.8847 94.0321 67.9471C94.0537 67.7184 94.0105 67.4792 93.9888 67.2505C93.4477 66.7827 93.6642 65.951 94.0213 65.4208C94.5624 64.4643 95.8285 64.1836 96.2181 63.1231C95.7744 62.988 95.2766 62.9048 94.9844 62.4994C94.6814 62.1771 94.6814 61.7196 94.5948 61.3142C94.4541 60.9815 94.2161 60.7216 93.9996 60.4513C93.6533 60.6696 93.2638 60.9295 93.2205 61.3869C93.1447 62.0003 92.6794 62.5409 92.0842 62.6449C91.1319 62.8009 90.1255 62.9464 89.3247 63.539C88.9676 63.7989 88.5888 64.0276 88.2425 64.3083C90.0281 64.9945 91.8461 65.7638 93.2854 67.0738C93.5884 67.3337 93.7615 67.7184 94.0104 68.0303C93.8373 68.4253 93.6425 68.81 93.4586 69.2051C94.3243 69.6209 95.2982 69.7665 96.2505 69.7561C96.402 69.2259 96.4453 68.6541 96.6726 68.155C96.9107 67.6976 97.4734 67.6456 97.8846 67.8951C98.2417 67.0634 98.0794 66.0965 98.4149 65.2648C98.8153 64.3603 99.4429 63.5806 100.211 62.9776C99.7892 61.9068 99.5836 60.732 99.7243 59.578C100.893 59.0166 102.094 58.164 102.43 56.8125C102.927 55.0659 102.592 52.7995 101.001 51.7598C99.3131 50.9281 97.9604 49.5454 96.7808 48.0795C97.3327 47.4869 97.6574 46.728 98.0902 46.0418C99.562 43.5051 100.287 40.2822 99.1616 37.4647C98.3391 35.4894 96.6077 33.8779 94.5407 33.4205C94.2269 33.2853 93.9672 33.5661 93.7183 33.7012C94.2593 34.0027 94.8113 34.273 95.3848 34.5329C96.5427 35.0735 97.3868 36.1756 97.8088 37.3919C98.4149 38.9826 98.404 40.75 98.0469 42.403C97.798 44.0353 97.0297 45.5739 95.861 46.7072C95.8177 46.4576 95.98 46.2601 96.1315 46.0834C97.679 44.2432 98.2526 41.6961 98.0253 39.3153C97.8738 38.0469 97.5167 36.7266 96.6185 35.8013C96.0124 35.0215 95.0818 34.6577 94.2269 34.2418C93.4694 33.8467 92.9175 32.9527 91.976 33.0254M54.9443 34.2106C54.3599 34.5121 53.7323 34.7512 53.1912 35.1463C52.0549 35.978 51.4056 37.3296 51.1784 38.7123C50.778 41.1555 51.2649 43.8377 52.7691 45.8131C52.9531 46.0938 53.2994 46.3225 53.2453 46.7072C52.3687 45.8443 51.7086 44.7734 51.3407 43.5882C50.7563 41.5401 50.5399 39.2737 51.3623 37.2568C51.7952 36.0716 52.6501 35.0216 53.7972 34.5121C54.3491 34.273 54.8794 34.0027 55.3988 33.722C55.204 33.5972 55.0092 33.4413 54.782 33.3893C51.9792 33.9091 49.7499 36.5083 49.4685 39.3881C49.079 42.559 50.5074 45.6259 52.3255 48.0899C51.622 49.0256 50.778 49.8261 49.923 50.6058C49.2413 51.2192 48.3756 51.5207 47.6721 52.0925C46.3519 53.4544 46.1679 55.6793 46.893 57.3947C47.38 58.4551 48.3972 59.0997 49.3928 59.5987C49.5335 60.7631 49.3279 61.9483 48.895 63.0296C49.6742 63.539 50.2261 64.3291 50.6481 65.1505C51.0593 66.0238 50.8754 67.0426 51.2433 67.9159C51.6545 67.6768 52.2172 67.7288 52.4553 68.1758C52.6934 68.6748 52.7259 69.2466 52.8774 69.7769C53.8297 69.7769 54.8036 69.6521 55.6693 69.2259C55.4854 68.8308 55.2906 68.4357 55.1066 68.0407C55.4529 67.8327 55.6585 67.4792 55.9291 67.1881C57.3575 65.8574 59.1539 65.0569 60.9395 64.3915C60.6798 64.0588 60.2253 63.9341 59.9114 63.6534C59.089 63.0088 58.0501 62.8424 57.0545 62.6865C56.4485 62.5825 55.994 62.0419 55.9183 61.4285C55.875 60.9815 55.4746 60.7112 55.1283 60.4928C54.8036 60.8775 54.4357 61.283 54.4465 61.8236C54.3816 62.6345 53.5916 63.04 52.899 63.1647C53.321 64.2356 54.6088 64.5267 55.1391 65.5247C55.4637 66.0342 55.6585 66.8451 55.1283 67.2921C55.0958 67.5208 55.0742 67.7496 55.0742 67.9783C54.6197 67.9263 54.0569 67.7703 53.8838 67.2817C53.7323 66.9074 54.176 66.502 53.8297 66.1797C53.0397 65.3584 51.8493 64.8697 51.5355 63.6534C51.081 62.6241 52.0116 61.6364 52.9964 61.5845C52.9531 60.628 53.7972 60.0146 54.1002 59.1829C54.9984 57.4051 54.7711 55.1907 53.7431 53.5272C53.808 53.496 53.9271 53.4233 53.992 53.3921C54.414 54.099 54.6954 54.8892 54.8686 55.7001C56.7515 55.0555 58.5371 53.9223 59.7275 52.2693C60.182 51.6767 60.6365 51.0841 60.9719 50.4083C60.5174 50.4811 60.0629 50.6682 59.5976 50.6578C59.1972 50.2627 59.1539 49.6701 58.9591 49.1711C59.0132 49.1503 59.1214 49.1191 59.1864 49.0983C59.3487 49.5454 59.4245 50.0444 59.7491 50.4083C61.7187 50.138 63.6124 49.3583 65.6361 49.4414C65.8633 49.8053 66.0689 50.2627 65.885 50.6994C65.6253 51.6455 64.7054 52.1237 64.1968 52.9034C64.5106 53.101 64.8353 53.4545 64.7163 53.8599C64.5431 54.3485 64.002 54.4525 63.5583 54.5357C63.4177 55.357 63.6341 56.1783 63.9263 56.9373C64.3483 56.7605 64.7595 56.5734 65.1707 56.3966C65.3223 55.6481 65.6361 54.6604 66.5668 54.806C67.0537 54.2966 67.2052 53.548 67.1511 52.8515C66.9672 51.739 67.4108 50.637 67.8545 49.6597C67.6273 48.9736 67.3567 48.2874 66.9347 47.7052C66.7832 47.4349 66.4369 47.5389 66.188 47.5077C65.0084 47.5077 63.8289 47.3933 62.6601 47.2062C62.0216 47.071 61.3507 47.0606 60.7555 46.7591C60.8205 46.6656 60.8529 46.4784 61.0044 46.572C61.4048 46.7695 61.8485 46.8631 62.303 46.8735C62.3247 46.125 62 45.4284 61.5347 44.867C61.1126 44.16 60.5716 43.4843 59.8357 43.11C59.3162 42.7877 58.6453 42.8917 58.1691 42.4758C57.2493 41.8832 57.1086 40.6668 56.4377 39.8767C55.3663 39.648 54.5764 38.7227 54.3924 37.6311C54.4465 37.6207 54.5764 37.5895 54.6305 37.5791C54.7603 38.6395 55.6261 39.492 56.6541 39.6272C56.9247 40.2406 57.2818 40.8124 57.5956 41.405C57.7796 41.7169 58.1692 41.7585 58.4938 41.7585C58.4397 41.3842 58.2233 41.0827 58.0934 40.7396C58.2666 40.7396 58.4397 40.7396 58.602 40.75C58.6778 41.1139 58.6561 41.5921 59.0132 41.8104C59.3703 41.9352 59.576 41.5505 59.7275 41.2906C59.9114 40.9371 60.2469 40.5629 60.0629 40.1366C59.7275 39.3673 59.4028 38.5875 59.1215 37.7974C58.9591 37.3296 59.273 36.7474 58.8942 36.3627C58.4722 35.8637 58.4072 35.1983 58.1583 34.6161C58.3964 34.6161 58.6345 34.6369 58.8725 34.6369C58.9266 34.7928 58.9916 34.9592 59.0457 35.1151C59.4028 35.0424 59.6625 34.7305 59.7275 34.3666C59.4353 33.9091 58.8942 33.8883 58.4181 33.9923C58.4722 33.8572 58.5263 33.722 58.5804 33.5764C57.9202 32.9838 57.2709 33.774 56.6433 34.0235C56.7948 33.6908 56.968 33.3789 57.1411 33.0566C56.2213 32.9838 55.6693 33.8364 54.9551 34.2418M72.7784 32.3081C72.7134 33.5141 72.7784 34.7305 72.7567 35.9364C71.2958 35.978 69.8349 35.9052 68.374 35.9364C68.7311 36.2795 69.099 36.6226 69.3479 37.0696C70.6249 36.7993 71.9343 36.6538 73.2329 36.5706C73.9688 36.1444 74.9644 36.1236 75.7002 36.5706C77.0746 36.6642 78.4381 36.8513 79.78 37.1112C79.9856 36.633 80.3968 36.3003 80.7431 35.9364C79.1848 35.9156 77.6156 35.9676 76.0573 35.9364C76.0357 34.824 76.0573 33.7116 76.0573 32.5992C76.079 32.1729 75.8193 31.7987 75.5054 31.5491C74.6397 30.811 73.103 31.1853 72.7784 32.3185M78.0052 27.5673C78.0052 30.0313 78.0052 32.4952 78.0052 34.9592C79.899 34.9592 81.782 34.98 83.6758 34.9488C83.6541 32.4952 83.6758 30.0313 83.6758 27.5777C83.2862 27.5777 82.8966 27.5777 82.5071 27.5777C82.5071 27.9936 82.5071 28.4198 82.5071 28.8357C82.1391 28.8045 81.7279 28.9084 81.3924 28.7837C81.3708 28.3782 81.3924 27.9832 81.3924 27.5777C81.0137 27.5777 80.6349 27.5777 80.267 27.5777C80.267 28.004 80.267 28.4406 80.267 28.8669C79.899 28.8669 79.5419 28.8669 79.174 28.8669C79.174 28.4302 79.174 27.9936 79.1631 27.5569C78.7844 27.5569 78.4056 27.5569 78.0269 27.5569M65.2573 27.5569C65.2249 30.0209 65.2573 32.4848 65.2465 34.9488C67.1403 34.9488 69.0233 34.9488 70.917 34.9488C70.917 32.4848 70.917 30.0209 70.917 27.5569C70.5275 27.5569 70.1379 27.5569 69.7375 27.5569C69.7375 27.9728 69.7375 28.3886 69.7375 28.8045C69.3587 28.8045 68.98 28.8045 68.6012 28.8045C68.5796 28.399 68.677 27.952 68.5579 27.5673C68.2008 27.5465 67.8329 27.5673 67.4758 27.5673C67.4758 27.9936 67.4758 28.4302 67.4758 28.8565C67.1078 28.8565 66.7507 28.8565 66.3828 28.8565C66.3828 28.4198 66.3828 27.9936 66.3828 27.5569C66.004 27.5569 65.6253 27.5569 65.2465 27.5569M79.3471 26.9123C79.3471 27.2242 79.3471 27.5361 79.3471 27.8584C79.5744 27.8688 79.8125 27.8792 80.0397 27.8688C80.0505 27.5465 80.0505 27.2138 80.0397 26.8915C79.8125 26.8915 79.5744 26.8915 79.3471 26.9123ZM71.0794 26.3717C71.0794 29.2411 71.0794 32.1105 71.0794 34.98C71.5772 34.98 72.075 34.98 72.562 34.98C72.5944 33.9819 72.5619 32.9943 72.5728 31.9962C72.5728 31.0293 73.4277 30.1664 74.38 30.1768C75.3539 30.1352 76.2413 30.9981 76.2521 31.9858C76.2521 32.9734 76.2521 33.9611 76.2521 34.9488C76.7716 34.98 77.291 34.9488 77.8104 34.9696C77.8537 32.1002 77.8104 29.2307 77.8321 26.3613C77.3776 26.3613 76.9122 26.3613 76.4577 26.3613C76.4577 26.7772 76.4577 27.193 76.4577 27.6089C76.0465 27.6193 75.6245 27.6193 75.2132 27.6089C75.2132 27.193 75.2132 26.7772 75.2132 26.3613C74.7046 26.3613 74.1852 26.3613 73.6766 26.3613C73.6766 26.7876 73.6766 27.2138 73.6766 27.6505C73.2654 27.6713 72.865 27.6713 72.4537 27.6505C72.4537 27.2242 72.4537 26.7876 72.4537 26.3613C71.9992 26.3613 71.5339 26.3613 71.0794 26.3613M83.1239 25.1553C83.1239 25.8935 83.1239 26.6316 83.1239 27.3594C83.3728 27.3594 83.6217 27.3594 83.8706 27.3594C83.8706 29.8857 83.8706 32.4224 83.8706 34.9488C84.8012 34.9488 85.7319 34.9488 86.6626 34.9488C86.6626 32.412 86.6517 29.8857 86.6626 27.349C86.9547 27.349 87.2361 27.349 87.5283 27.349C87.5283 26.6108 87.5283 25.8831 87.5283 25.1449C87.2902 25.1449 87.0521 25.1449 86.8032 25.1449C86.8032 25.4464 86.8032 25.7375 86.8032 26.039C86.457 26.0598 86.1106 26.0598 85.7643 26.0494C85.7643 25.7479 85.7643 25.4568 85.7643 25.1553C85.4397 25.1553 85.1151 25.1449 84.8012 25.1553C84.8012 25.4672 84.8012 25.7791 84.7904 26.1014C84.4766 26.1014 84.1736 26.1014 83.8598 26.1014C83.8598 25.7999 83.8598 25.488 83.8598 25.1865C83.6109 25.1761 83.3511 25.1761 83.1022 25.1761M61.4698 25.1969C61.4914 25.9247 61.4697 26.6628 61.4806 27.3906C61.7295 27.3906 61.9784 27.3906 62.2273 27.3906C62.2273 29.9169 62.2056 32.4432 62.2273 34.98C63.1579 34.9592 64.0886 35.0008 65.0084 34.9592C64.9868 32.4432 65.0084 29.9169 64.9976 27.401C65.2898 27.3802 65.5928 27.3802 65.885 27.3802C65.885 26.642 65.885 25.9039 65.885 25.1761C65.6469 25.1761 65.398 25.1761 65.1491 25.1865C65.1491 25.488 65.1491 25.7791 65.1491 26.0806C64.8028 26.0806 64.4565 26.0806 64.1102 26.0702C64.1102 25.7687 64.1102 25.4776 64.1102 25.1865C63.7856 25.1865 63.4609 25.1865 63.1363 25.1865C63.1363 25.4984 63.1363 25.7999 63.1363 26.1118C62.8333 26.1118 62.5195 26.1118 62.2056 26.1118C62.184 25.7999 62.184 25.4776 62.1948 25.1657C61.9459 25.1657 61.6862 25.1657 61.4373 25.1865M70.3002 26.1742C73.0489 26.1846 75.7868 26.1742 78.5247 26.1742C77.172 24.7603 75.776 23.3879 74.4124 21.9948C73.0381 23.3879 71.6529 24.7603 70.3002 26.1742ZM74.38 21.1943C76.2954 22.9721 78.0269 24.9474 79.9098 26.7564C80.3535 26.3925 81.0136 26.6836 81.5439 26.59C81.5439 27.0059 81.5439 27.4218 81.5439 27.848C81.7928 27.8584 82.0417 27.848 82.2906 27.8168C82.269 27.4218 82.269 27.0163 82.2906 26.6212C82.4854 26.6212 82.6802 26.6212 82.875 26.6212C82.8966 25.8207 82.8641 25.0202 82.8858 24.2196C83.2645 24.1988 83.6433 24.1989 84.0112 24.2404C84.0112 24.5419 84.0112 24.8434 84.0112 25.1449C84.1952 25.1449 84.39 25.1345 84.574 25.1137C84.574 24.8122 84.574 24.5107 84.574 24.2196C85.0176 24.2092 85.4613 24.1989 85.905 24.23C85.905 24.5315 85.905 24.8226 85.905 25.1241C86.1215 25.1241 86.3379 25.1137 86.5543 25.093C86.5543 24.8019 86.5543 24.5107 86.5543 24.2196C86.9115 24.2092 87.2794 24.2092 87.6473 24.2196C87.6582 25.6024 87.6582 26.9747 87.6473 28.3574C87.366 28.3574 87.0738 28.3678 86.7924 28.3574C86.7058 30.9254 86.8465 33.5141 86.7275 36.082C87.2902 36.5914 87.8854 37.0697 88.5131 37.4855C88.5563 36.9969 88.4698 36.4978 88.6104 36.0196C88.2533 35.6038 87.9611 35.1151 87.8962 34.5641C88.1668 34.5225 88.4481 34.4705 88.7187 34.4082C88.7944 34.2002 88.8702 33.9923 88.9459 33.7948C88.7944 33.5661 88.6537 33.3373 88.5022 33.119C89.4545 32.4848 90.5367 31.5491 91.7487 31.9754C91.7595 31.8506 91.7812 31.7155 91.792 31.5907C92.5604 31.5284 93.3287 31.7987 93.9347 32.2873C94.1079 32.4536 94.3351 32.4952 94.5732 32.5264C94.6381 32.3601 94.7139 32.1937 94.7788 32.0274C98.1876 32.7447 100.828 35.9988 101.055 39.5232C101.38 42.5902 100.157 45.522 98.588 48.0587C99.075 48.5369 99.5403 49.0463 100.049 49.4934C100.72 50.0756 101.586 50.3667 102.267 50.9385C102.495 51.1464 102.819 51.1048 103.101 51.1672C104.518 51.3959 105.947 52.0821 106.78 53.3193C107.754 54.7956 108.079 56.7709 107.44 58.4551C106.693 60.4721 104.388 61.4389 103.923 63.6014C103.793 64.4123 103.122 65.1712 102.278 65.1193C101.694 65.1505 101.239 64.745 100.861 64.3499C100.309 64.8074 99.8325 65.4104 99.6269 66.1173C99.4646 67.157 99.4862 68.3214 98.7395 69.1427C99.0642 69.1115 99.3888 69.0491 99.7243 69.0491C100.081 69.0803 100.276 69.5897 100.038 69.86C99.5295 70.4838 98.9343 71.0452 98.4257 71.669C98.8694 72.2096 99.3888 72.6671 99.8433 73.2077C100.081 73.4884 99.9082 73.9458 99.562 74.029C97.7223 74.684 95.7311 74.7256 93.8157 74.4761C91.5864 74.1746 89.3788 73.4676 87.4525 72.2408C86.7708 71.8042 86.1539 70.8581 86.7058 70.068C82.9615 68.5501 78.8818 68.0303 74.8778 67.8951C70.6573 67.9367 66.4044 68.5397 62.4437 70.0368C62.9956 70.7957 62.4545 71.7418 61.7836 72.1888C60.2577 73.2077 58.5046 73.8419 56.7299 74.2369C54.3924 74.7256 51.9034 74.8295 49.6309 74.029C49.2738 73.9458 49.1006 73.4676 49.3387 73.1869C49.7932 72.6567 50.3018 72.1888 50.7455 71.6586C50.2261 71.0348 49.6417 70.4838 49.1331 69.86C48.895 69.6105 49.0465 69.1219 49.382 69.0491C49.6633 69.0283 49.9447 69.0803 50.2261 69.1115C49.501 68.2902 49.5227 67.1362 49.3603 66.1069C49.1547 65.4 48.6677 64.8074 48.1267 64.3395C47.5639 65.0985 46.406 65.4104 45.6701 64.7242C45.0425 64.2148 45.0966 63.3207 44.7287 62.6657C44.0361 61.3246 42.705 60.4928 41.9258 59.2141C40.822 57.4779 41.0709 55.1283 42.1206 53.4337C42.9431 52.1237 44.4148 51.3856 45.8866 51.1568C46.1679 51.0945 46.4926 51.136 46.7198 50.9281C47.38 50.3667 48.2132 50.086 48.8733 49.5246C49.4036 49.0672 49.8906 48.5473 50.3884 48.0483C49.3279 46.2497 48.3323 44.3472 48.0184 42.2367C47.6722 40.1054 47.9211 37.8182 49.0032 35.9364C50.1287 34.0027 52.0008 32.4536 54.1868 32.017C54.2625 32.1833 54.3275 32.3497 54.3924 32.516C54.6521 32.4952 54.8902 32.412 55.085 32.2353C55.6693 31.7571 56.4269 31.5283 57.1736 31.5803C57.1844 31.7051 57.206 31.8298 57.2168 31.965C58.4289 31.5387 59.511 32.4744 60.4633 33.1086C60.3118 33.3269 60.1712 33.5557 60.0197 33.774C60.063 34.377 60.5499 34.5433 61.0694 34.5537C61.0044 35.1151 60.7122 35.6038 60.3551 36.0092C60.4958 36.4875 60.4092 36.9865 60.4525 37.4855C61.1018 37.0385 61.7619 36.5706 62.2922 35.978C62.1731 35.9468 62.0541 35.9157 61.9351 35.8949C61.9351 33.3893 61.9459 30.8838 61.9351 28.3782C61.6862 28.3782 61.4373 28.3782 61.1884 28.3782C61.1884 27.0059 61.1884 25.6232 61.1884 24.2404C61.5671 24.1989 61.9459 24.1988 62.3246 24.2196C62.3138 24.6771 62.2165 25.3736 62.8874 25.1449C62.8874 24.8434 62.8982 24.5419 62.8874 24.2404C63.3311 24.1989 63.7748 24.2093 64.2184 24.23C64.2184 24.5211 64.2293 24.8122 64.2184 25.1033C64.4349 25.1137 64.6513 25.1241 64.8677 25.1345C64.8677 24.833 64.8786 24.5419 64.8677 24.2508C65.2357 24.2196 65.6036 24.2196 65.9716 24.2404C65.9824 25.0306 65.9608 25.8207 65.9716 26.6004C66.1231 26.6004 66.2637 26.6212 66.4152 26.6316C66.4369 27.0475 66.4369 27.4737 66.4477 27.8896C66.6858 27.8896 66.9131 27.9 67.1511 27.8896C67.162 27.4633 67.162 27.0371 67.1511 26.6108C67.6489 26.6108 68.1467 26.6108 68.6337 26.6108C68.677 27.0267 68.6661 27.4321 68.6553 27.848C68.9042 27.8688 69.1423 27.8792 69.3912 27.8688C69.402 27.5465 69.402 27.2346 69.3804 26.9123C69.1856 26.9123 68.9908 26.9019 68.7852 26.8915C70.5707 24.9578 72.4537 23.1176 74.2826 21.2255M102.982 17.4308C103.393 17.5139 103.804 17.5971 104.226 17.6387C104.031 16.9733 103.826 16.308 103.62 15.6426C103.339 16.204 103.187 16.8278 102.982 17.4308ZM102.679 13.792C103.382 13.896 104.075 14.0415 104.778 14.1559C105.395 16.0376 105.958 17.9298 106.564 19.8116C106.693 20.2482 106.953 20.6329 107.18 21.0279C106.315 20.8616 105.46 20.6952 104.594 20.5289C105.103 19.9675 104.735 19.2086 104.486 18.6264C103.891 18.4704 103.274 18.408 102.679 18.2833C102.441 18.8655 102.105 19.5516 102.505 20.1442C101.932 20.0403 101.369 19.9363 100.796 19.8427C101.023 19.5516 101.239 19.2501 101.358 18.8967C101.856 17.5035 102.365 16.1104 102.852 14.7069C102.982 14.3846 102.798 14.0831 102.668 13.8024M42.099 14.4366C43.1379 14.2391 44.1551 13.9791 45.2048 13.844C45.9515 13.7192 46.7848 14.2806 46.7523 15.1124C46.8714 16.4743 45.5944 17.5243 44.3499 17.5659C44.9343 17.0461 45.2806 16.1936 45.01 15.4243C44.891 15.0604 44.4906 14.946 44.1443 14.9772C44.1335 16.4847 44.1335 17.9922 44.1443 19.4997C44.1335 19.822 44.2633 20.113 44.4365 20.373C43.6681 20.5081 42.9106 20.6849 42.1423 20.82C42.2938 20.5081 42.4345 20.165 42.4128 19.8012C42.4128 18.2729 42.4128 16.7446 42.4128 15.2163C42.4236 14.9252 42.283 14.6653 42.099 14.447M47.802 13.4489C48.5812 13.3138 49.3603 13.1994 50.1395 13.0747C49.9555 13.3658 49.8148 13.6881 49.8257 14.0415C49.8257 15.5698 49.8257 17.1085 49.8257 18.6368C49.8148 18.9487 49.9555 19.2397 50.1395 19.4789C49.3603 19.5724 48.5812 19.7388 47.802 19.822C47.986 19.5205 48.1158 19.1774 48.0942 18.8239C48.0942 17.3372 48.0942 15.8401 48.0942 14.3534C48.1158 14.0207 47.986 13.7192 47.802 13.4593M96.4345 12.7836C97.2028 12.8875 97.9712 13.0227 98.7503 13.1474C98.3716 13.6673 98.4798 14.3326 98.469 14.9356C98.4798 16.1 98.4473 17.2644 98.4906 18.4288C99.1832 18.7511 99.984 18.8967 100.698 18.5432C100.601 18.9591 100.493 19.3749 100.384 19.7908C99.075 19.5932 97.7656 19.3749 96.4561 19.1566C96.6293 18.8863 96.7592 18.5744 96.7375 18.2417C96.7375 16.7446 96.7375 15.2579 96.7375 13.7608C96.7592 13.4073 96.6293 13.0643 96.4345 12.7732M55.0309 12.4197C55.5395 12.3573 56.0589 12.2741 56.5676 12.2118C55.9074 14.5094 55.1499 16.7758 54.4573 19.0526C53.7864 18.9694 53.018 18.7615 52.6934 18.0857C51.9359 16.4535 51.5571 14.6549 50.7671 13.0331C51.4273 12.9603 52.0874 12.8355 52.7475 12.7732C53.1587 14.2391 53.6349 15.6946 54.2084 17.0981C54.5655 15.8817 54.9551 14.6861 55.3014 13.4593C55.4421 13.0851 55.2581 12.7212 55.0417 12.4197M91.0453 12.1182C92.463 12.2325 93.8698 12.4509 95.2766 12.6172C94.3676 14.3222 93.4369 16.0169 92.5387 17.7323C93.5343 17.9506 94.6056 18.1689 95.5471 17.6491C95.3956 18.0857 95.2333 18.5224 95.0926 18.959C93.4585 18.7927 91.8245 18.5848 90.1904 18.3664C91.0778 16.6822 91.9976 15.0188 92.885 13.3346C92.16 13.0643 91.3592 13.1266 90.6233 13.3554C90.7532 12.9395 90.9155 12.534 91.0453 12.1182ZM57.9852 15.6842C58.3964 15.6426 58.8076 15.601 59.2297 15.5698C59.0673 14.946 58.8293 14.343 58.6237 13.7296C58.3423 14.3534 58.1692 15.0292 57.9852 15.6842ZM57.6281 12.1182C58.3531 12.0454 59.0782 11.9622 59.8032 11.9103C60.4092 13.6049 60.9828 15.2995 61.578 16.9941C61.7078 17.3892 61.9567 17.7219 62.1948 18.0546C61.3291 18.1585 60.4633 18.2209 59.6084 18.3145C60.1062 17.7427 59.7708 17.0357 59.5327 16.4431C58.8942 16.4743 58.2665 16.5471 57.6389 16.6198C57.4874 17.2436 57.0437 17.9298 57.509 18.5224C56.9247 18.5848 56.3511 18.6783 55.7776 18.7199C55.9724 18.3561 56.2104 18.0234 56.3295 17.6283C56.8381 16.0688 57.3575 14.5198 57.8661 12.9603C58.0068 12.6484 57.8228 12.3573 57.6281 12.1182ZM83.3836 11.3904C84.1519 11.4424 84.9203 11.5048 85.6886 11.5984C85.5479 11.8479 85.4072 12.1078 85.4072 12.3989C85.3856 13.4073 85.4072 14.4158 85.4072 15.4243C85.4072 15.8505 85.3856 16.2976 85.6129 16.6718C85.8726 17.1189 86.5111 17.2436 86.9331 16.9733C87.2578 16.7342 87.3119 16.2872 87.3119 15.9025C87.3119 14.8317 87.3119 13.7504 87.3119 12.6796C87.3227 12.3261 87.182 12.0038 87.0197 11.7023C87.8096 11.7543 88.5996 11.8375 89.3788 11.9103C89.184 12.1598 89.0433 12.4509 89.065 12.7836C89.065 14.2806 89.065 15.7777 89.065 17.2748C89.0433 17.6387 89.1732 17.9714 89.3463 18.2833C88.6862 18.2417 88.0261 18.1793 87.366 18.1065C87.366 17.909 87.366 17.7115 87.3551 17.5139C86.5976 18.2209 85.4072 18.3664 84.5415 17.7842C83.9788 17.4308 83.7082 16.755 83.6974 16.1C83.6541 14.8005 83.6974 13.5009 83.6758 12.2014C83.6758 11.9103 83.5351 11.6399 83.4052 11.38M64.8677 12.3573C64.8677 13.0955 64.8677 13.8232 64.8677 14.5614C65.5712 14.3742 66.0798 13.6049 65.8309 12.8667C65.7227 12.4301 65.2465 12.3053 64.8569 12.3573M62.8333 11.5464C64.2076 11.5672 65.6794 11.0474 66.9888 11.6711C68.0926 12.3885 67.584 14.1247 66.491 14.5614C67.097 15.5906 67.6706 16.6406 68.4064 17.5763C67.6598 17.5971 66.7615 17.8882 66.1447 17.3164C65.582 16.6718 65.3223 15.8297 64.8786 15.1124C64.9219 15.9961 64.6621 16.9837 65.1491 17.7842C64.3591 17.8466 63.5692 17.8986 62.79 17.961C63.0064 17.6907 63.1363 17.358 63.1146 16.9941C63.1146 15.497 63.1146 13.9999 63.1146 12.5029C63.1363 12.1598 62.9848 11.8479 62.8333 11.5568M71.469 12.7836C71.2633 13.4281 71.0469 14.0727 70.8521 14.7173C71.2742 14.7173 71.6854 14.7173 72.1074 14.6757C71.9126 14.0415 71.7395 13.3866 71.469 12.7836ZM70.5491 11.1305C71.2633 11.0993 71.9667 11.0993 72.681 11.0785C73.3303 12.8563 73.9038 14.6653 74.5315 16.4431C74.6722 16.8278 74.9211 17.1501 75.1591 17.4828C74.2609 17.5035 73.3628 17.5243 72.4646 17.5139C72.9948 16.9733 72.7134 16.1416 72.3671 15.601C71.7611 15.5802 71.1551 15.6218 70.5491 15.6218C70.3327 16.2456 69.9431 16.9629 70.3976 17.5763C69.8133 17.5763 69.2289 17.6075 68.6445 17.5971C68.861 17.2436 69.0882 16.8902 69.2072 16.4951C69.7159 14.998 70.2245 13.5009 70.7223 12.0142C70.8629 11.7023 70.679 11.4008 70.5275 11.1305M77.9079 11.0785C79.4229 11.1513 80.9487 11.2345 82.4638 11.3281C82.388 11.7855 82.2798 12.2429 82.1608 12.7004C81.7928 12.3989 81.3167 12.3157 80.8513 12.3469C80.873 13.8024 80.8513 15.2683 80.8621 16.7238C80.8621 17.0461 80.992 17.3476 81.1327 17.6387C80.3643 17.6179 79.596 17.5659 78.8277 17.5243C79.0116 17.2228 79.1415 16.8902 79.1199 16.5263C79.1199 15.102 79.1307 13.6673 79.1199 12.2429C78.5896 12.1702 78.0702 12.2845 77.5724 12.4717C77.6698 12.0142 77.7888 11.5568 77.9079 11.0993M37.6405 12.6796C37.6297 28.4822 37.6405 44.2744 37.6405 60.077C37.6188 64.6826 38.0409 69.4962 40.3351 73.5612C41.3415 75.3494 42.7375 76.9088 44.3824 78.094C46.5792 79.7055 49.1547 80.6619 51.6978 81.5249C56.4052 83.1467 61.2858 84.2175 65.8634 86.2136C68.7636 87.4612 71.4906 89.0935 73.9796 91.048C74.1636 91.1727 74.4016 91.4638 74.6072 91.2039C77.5291 88.7608 80.8297 86.8166 84.3143 85.3507C89.9523 83.0531 95.9908 81.8887 101.456 79.1441C103.891 77.9381 106.142 76.2331 107.711 73.9354C109.55 71.3259 110.481 68.155 110.849 64.9945C111.174 62.3954 111.087 59.7547 111.098 57.1348C111.087 42.3095 111.13 27.4737 111.076 12.6484C101.099 10.2052 90.9263 8.46904 80.6674 7.9908C66.1988 7.24226 51.687 9.1448 37.6405 12.6588M68.4497 4.13372C83.0156 3.45795 99.6485 5.39169 113.803 8.84331V65.1608C113.663 66.6059 113.479 67.9263 113.251 69.361C112.851 72.0017 111.271 75.7652 108.63 78.7594C105.579 81.8887 101.001 83.5729 97.1812 84.9661C93.5776 86.2552 89.8874 87.2325 86.2838 88.5113C81.9876 90.0395 77.9403 92.2748 74.4016 95.2066H74.3908C70.9928 92.5139 67.1403 90.4346 63.0713 89.0207C57.9852 87.2117 52.6934 86.0993 47.6938 84.0304C45.1074 82.9492 42.5535 81.556 40.3242 79.1545C36.7098 75.5677 35.2273 70.7853 35 66.3045V8.83291C45.3022 6.30657 57.8553 4.58077 68.4497 4.13372Z" fill="#201E1E"/>
<path fill-rule="evenodd" clip-rule="evenodd" d="M79.9854 59.6094C79.9096 59.1519 79.8122 58.7049 79.7148 58.2578C79.585 58.2578 79.4659 58.2578 79.3469 58.2578C79.2062 58.6841 78.979 59.0791 78.7842 59.4742C78.8708 59.4742 78.9573 59.4638 79.0439 59.4534C79.0439 59.1103 79.3361 59.0479 79.5958 59.1831C79.5958 59.3079 79.5958 59.443 79.585 59.5678C79.7148 59.5782 79.8555 59.599 79.9854 59.6094ZM79.3794 58.9752C79.2495 58.9128 79.3036 58.7049 79.401 58.6425C79.5525 58.6529 79.5633 59.0168 79.3794 58.9752Z" fill="#201E1E"/>
<path d="M68.9905 58.2056C68.5468 58.32 68.3088 58.923 68.6226 59.2869C68.9905 59.7755 69.932 59.5052 69.8995 58.8606C69.9645 58.372 69.4126 58.0497 68.9905 58.2056ZM69.3909 59.3388C68.9148 59.526 68.6334 58.7047 68.9797 58.4344C69.4667 58.1432 69.8021 59.0789 69.3909 59.3388Z" fill="#201E1E"/>
<path fill-rule="evenodd" clip-rule="evenodd" d="M77.5076 57.9873C77.5184 58.4344 77.486 58.8814 77.3994 59.318C77.4535 59.318 77.5617 59.3388 77.6158 59.3388C77.6158 59.0789 77.6483 58.819 77.7024 58.5591C77.9405 58.8814 78.1136 59.2765 78.4707 59.4844C78.5465 59.0269 78.5249 58.5591 78.6439 58.1017C78.5573 58.1017 78.4708 58.1017 78.3734 58.0913C78.395 58.3512 78.3733 58.6111 78.3517 58.8606C78.027 58.6007 77.9946 57.9977 77.5076 57.9873Z" fill="#201E1E"/>
<path fill-rule="evenodd" clip-rule="evenodd" d="M76.7504 57.9769C76.6097 57.9769 76.3825 57.8521 76.35 58.0705C76.2094 58.4655 76.047 58.8502 75.8955 59.2453C76.1552 59.318 76.1877 59.0269 76.2526 58.8398C76.3933 58.8398 76.534 58.8606 76.6747 58.871C76.6963 59.0061 76.7179 59.1413 76.7288 59.2765C76.8586 59.2765 76.9885 59.2765 77.1184 59.2765C76.9885 58.8398 76.8586 58.4136 76.7504 57.9665M76.3176 58.6839C76.3609 58.5487 76.415 58.4135 76.4907 58.2888C76.534 58.4135 76.5664 58.5487 76.5989 58.6839C76.5232 58.6839 76.3825 58.6839 76.3176 58.6839Z" fill="#201E1E"/>
<path fill-rule="evenodd" clip-rule="evenodd" d="M70.2678 58.4137C70.257 58.7984 70.7872 58.736 70.9171 59.0479C70.7764 59.2663 70.5059 59.1415 70.3003 59.1519C70.3219 59.2039 70.376 59.3078 70.3977 59.3494C70.7007 59.3806 71.2093 59.3702 71.1985 58.944C71.2742 58.4969 70.5925 58.6009 70.5708 58.2266C70.7115 58.1642 70.8738 58.1954 71.0253 58.1954C71.0145 58.1538 70.9929 58.0603 70.982 58.0187C70.7007 57.9771 70.2137 58.0083 70.2678 58.4137Z" fill="#201E1E"/>
<path fill-rule="evenodd" clip-rule="evenodd" d="M74.5859 57.9043C74.7807 58.3617 74.7807 59.0167 75.2785 59.2454C75.4517 58.8088 75.5923 58.3513 75.733 57.9043C75.6789 57.9043 75.5707 57.9043 75.5166 57.9043C75.4733 58.2162 75.3867 58.5177 75.2785 58.8088C75.127 58.5281 75.0513 58.2162 74.9539 57.9147C74.8348 57.9147 74.7158 57.9147 74.5968 57.9147" fill="#201E1E"/>
<path fill-rule="evenodd" clip-rule="evenodd" d="M73.4275 57.9454C73.0704 58.1221 72.9405 58.6524 73.211 58.9643C73.5682 59.4321 74.4664 59.2242 74.4988 58.6004C74.5962 58.0286 73.8712 57.6647 73.4275 57.9454ZM73.8171 59.0682C73.3734 59.0266 73.276 58.2573 73.6547 58.0702C74.2066 57.9038 74.3365 58.9851 73.8171 59.0682Z" fill="#201E1E"/>
<path fill-rule="evenodd" clip-rule="evenodd" d="M72.4423 57.9141C72.4531 58.174 72.4748 58.4339 72.464 58.6938C72.2259 58.4651 72.0419 58.1844 71.8255 57.9349C71.7281 57.9349 71.6199 57.9557 71.5225 57.966C71.6199 58.3923 71.609 58.8393 71.5982 59.276C71.6523 59.276 71.7497 59.276 71.8038 59.276C71.8038 59.0161 71.7822 58.7562 71.793 58.5067C72.096 58.7562 72.2692 59.1824 72.6804 59.2864C72.6804 58.8394 72.6479 58.3819 72.6696 57.9245C72.6154 57.9245 72.5072 57.9245 72.4531 57.9245" fill="#201E1E"/>
</svg>
