<svg width="148" height="100" viewBox="0 0 148 100" fill="none" xmlns="http://www.w3.org/2000/svg">
<rect width="148" height="100" fill="white"/>
<path d="M43.1642 91.7572C43.2521 93.4097 44.2301 94.4901 45.7136 94.4901C46.6916 94.4901 47.5487 94.024 47.7575 93.2614H50.8673C50.175 95.5176 48.296 96.7993 45.8565 96.7993C42.0544 96.7993 40.1533 94.7867 40.1533 90.8039C40.1533 87.4036 42.1752 85.2109 45.6806 85.2109C49.186 85.2109 51.0431 87.4036 51.0431 91.7678H43.1752L43.1642 91.7572ZM47.9223 89.9247C47.8784 88.2934 46.7575 87.5095 45.5817 87.5095C44.406 87.5095 43.384 88.3993 43.2631 89.9247H47.9223Z" fill="#201E1E"/>
<path d="M65.3384 96.4921V89.8293C65.3384 88.5053 64.6131 87.5731 63.5472 87.5731C62.4813 87.5731 61.6242 88.5794 61.6242 89.9247V96.5027H58.6133V89.8823C58.6133 88.1133 58.1298 87.6684 56.8001 87.6684C55.5914 87.6684 54.965 88.3887 54.965 89.8187V96.5027H51.9541V85.4969H54.7892V87.107C55.5584 85.6558 56.6243 85.2109 58.1298 85.2109C59.6352 85.2109 60.4264 85.677 61.3055 86.9587C61.9319 85.7512 62.9538 85.2109 64.3933 85.2109C66.69 85.2109 68.2943 86.821 68.2943 88.876V96.5027H65.3494L65.3384 96.4921Z" fill="#201E1E"/>
<path d="M84.2834 91.7572C84.3823 93.4097 85.3493 94.4901 86.8328 94.4901C87.8107 94.4901 88.6679 94.024 88.8767 93.2614H91.9865C91.2832 95.5176 89.4151 96.7993 86.9756 96.7993C83.1735 96.7993 81.2725 94.7867 81.2725 90.8039C81.2725 87.4036 83.2944 85.2109 86.7998 85.2109C90.3052 85.2109 92.1623 87.4036 92.1623 91.7678H84.2944L84.2834 91.7572ZM89.0415 89.9247C88.9975 88.2934 87.8767 87.5095 86.7009 87.5095C85.5251 87.5095 84.5031 88.3993 84.3823 89.9247H89.0415Z" fill="#201E1E"/>
<path d="M93.0742 96.492V85.4862H95.9093V86.8103C96.9093 85.3273 98.0631 85.2002 99.2938 85.2002H99.6894V88.1767C99.4147 88.1344 99.129 88.1132 98.8543 88.1132C96.9972 88.1132 96.0961 89.003 96.0961 90.7719V96.492H93.0742Z" fill="#201E1E"/>
<path d="M117.711 96.4918C117.623 96.227 117.546 95.8457 117.524 95.5067C116.81 96.2694 115.601 96.7778 114.063 96.7778C111.47 96.7778 110.261 95.5491 110.261 93.7589C110.261 90.5811 112.469 90.2316 115.502 89.8185C117.008 89.6172 117.425 89.3312 117.425 88.5685C117.425 87.8482 116.678 87.4245 115.502 87.4245C114.14 87.4245 113.579 88.0707 113.436 89.0558H110.623C110.667 86.7784 111.975 85.1895 115.634 85.1895C119.293 85.1895 120.513 86.7572 120.513 89.5324V96.4918H117.7H117.711ZM117.502 91.1002C117.195 91.3862 116.667 91.5451 115.546 91.7463C113.832 92.0641 113.272 92.5302 113.272 93.4623C113.272 94.2886 113.777 94.6911 114.733 94.6911C116.294 94.6911 117.447 93.6 117.469 92.2971L117.491 91.0896L117.502 91.1002Z" fill="#201E1E"/>
<path d="M101.899 19.9807C102.394 19.1969 102.668 18.3177 102.525 17.3325C102.284 15.6589 101.91 13.1908 100.745 11.8244C99.3497 10.1825 96.3607 9.57871 95.6025 7.48136C95.6684 7.48136 95.7344 7.49196 95.8003 7.50255C96.075 7.52374 96.1409 7.15299 95.9322 7.03647C93.8113 5.74417 91.6685 4.12349 89.317 3.2443C87.4708 2.55577 86.1632 3.47734 84.438 4.1023C84.1413 4.21882 83.8226 4.28238 83.4929 4.33534C83.471 4.12349 83.1303 4.04934 83.0863 4.28238C83.0863 4.32475 83.0863 4.35653 83.0754 4.3989C82.5039 4.47305 81.9215 4.51542 81.3941 4.61075C80.3611 4.80142 79.4711 5.23572 78.6359 5.8395C76.603 7.31188 75.9437 9.69523 73.3503 10.585C73.1306 10.6592 73.2185 10.9875 73.4492 10.9346C73.5042 10.924 73.5481 10.9028 73.6031 10.8922C72.757 11.6549 72.2735 12.8518 71.9438 13.8687C70.4493 18.4342 71.5592 22.9784 74.4712 26.7918C74.5921 26.9507 74.8448 26.8236 74.7569 26.6329C73.8229 24.7156 72.713 22.9361 72.1526 20.8599C71.6141 18.8473 71.8559 16.7923 72.3284 14.7903C72.7679 12.926 73.5921 10.7969 75.8558 10.7121C76.3063 10.6909 76.7019 10.5956 77.0535 10.4473C77.6689 14.3666 75.7239 17.7245 74.5591 21.3895C73.5152 24.6733 74.9107 27.8511 77.0975 30.3403C77.1524 30.3933 77.2184 30.4039 77.2843 30.3827C77.4821 30.4675 77.7019 30.531 77.9326 30.5628C81.9875 36.0816 91.6575 30.4569 95.7344 27.7028C96.0091 27.5121 95.7563 27.0778 95.4596 27.2579C90.7345 30.1285 83.5918 34.7575 78.4821 30.6052C80.0974 30.6263 82.1633 29.8637 83.3061 29.4717C84.5149 29.048 85.5588 28.4866 86.5258 27.7769C88.4379 28.1053 90.1191 28.5184 92.1411 28.0417C94.0751 27.5862 95.9102 26.3681 97.3937 25.1287C97.6134 24.9487 97.3277 24.5885 97.086 24.7368C95.4047 25.7749 93.9322 26.9295 91.9872 27.5015C90.262 28.01 88.6796 27.5439 87.0313 27.3744C87.4049 27.0778 87.7566 26.7494 88.1082 26.4105C88.5807 25.9444 89.0312 25.4783 89.4818 24.991C90.9543 25.1288 92.5037 24.811 93.8992 24.3873C95.108 24.0271 97.086 23.2221 97.3827 21.8768C97.4266 21.7073 97.2178 21.6014 97.086 21.7073C95.8443 22.6818 94.9322 23.4445 93.3608 23.9424C92.24 24.3025 91.0971 24.4296 89.9323 24.5038C90.8554 23.5081 91.7674 22.5124 92.7125 21.5484C93.7784 20.468 95.163 18.985 96.7343 18.36C97.5255 20.0549 97.998 21.9615 99.2178 23.4657C99.5694 23.9 100.031 24.2284 100.361 24.6839C100.383 24.705 100.383 24.7262 100.405 24.758C100.152 25.0864 99.998 25.4783 100.031 25.9232C100.053 26.1033 100.295 26.188 100.394 26.0185C100.449 25.9126 100.514 25.8173 100.58 25.7219C100.536 26.2833 100.284 26.8659 99.954 27.2049C99.4925 27.671 98.6793 27.7875 98.4596 28.476C98.3826 28.7197 98.4266 29.5883 98.1189 29.5777C97.5145 29.5459 96.8882 29.5141 96.2948 29.5989C95.5146 29.7048 94.9542 30.0226 94.3388 30.478C91.6685 32.5012 88.6686 33.6664 85.2841 34.0478C83.8116 34.2067 82.0204 33.5393 80.6688 33.0415C79.2073 32.4907 77.6359 31.6326 76.9327 30.2132C76.7239 29.7895 76.0536 30.1603 76.2733 30.584C77.9546 33.9313 83.383 34.9376 86.8005 34.302C89.0203 33.8889 91.4048 33.1898 93.2509 31.8975C93.9762 31.389 94.6245 30.7746 95.3937 30.3297C96.3058 29.8001 97.5915 29.9908 98.5914 30.0332C98.7013 30.0332 98.8332 29.9272 98.8112 29.8213C98.7123 28.9633 98.8661 28.3383 99.6793 27.9252C100.075 27.724 100.361 27.5015 100.613 27.1519C101.02 26.6117 101.152 25.7961 100.998 25.0864C101.295 24.705 101.624 24.3873 102.152 24.0695C102.69 23.7517 103.218 23.4551 103.569 22.9255C104.306 21.7921 102.734 20.701 101.866 19.9913M97.2508 9.86472C98.8442 10.9558 100.295 11.6972 100.943 13.5827C101.459 15.0763 102.251 17.0889 101.877 18.6778C101.811 18.9532 100.778 20.3409 99.943 21.273C101.394 18.2435 100.679 13.5404 98.3717 11.1888C97.1189 9.91768 95.152 9.87531 93.4707 9.83294C92.0861 9.80116 90.4378 9.79057 88.9653 10.0978C88.8994 10.0978 88.8225 10.0978 88.7675 10.1401C88.2291 10.2672 87.7236 10.4261 87.2621 10.6592C87.2401 10.6698 87.2291 10.6909 87.2181 10.7015C87.0423 10.7015 86.8775 10.7015 86.7016 10.7015C87.1961 10.3626 87.6467 9.92827 88.0862 9.36686C88.9104 8.297 89.6246 7.52374 91.0422 7.17418C92.4048 6.83521 93.8993 7.23773 95.2948 7.41781C95.4487 8.53004 96.3387 9.20797 97.2618 9.84353M88.7016 10.6168C88.6247 10.6168 88.5697 10.638 88.5148 10.638C88.306 10.6486 88.1082 10.6592 87.8994 10.6698C88.1521 10.6062 88.4159 10.5532 88.6796 10.5109C88.6796 10.5426 88.6906 10.5744 88.7016 10.6062M75.2184 10.0872C75.9986 9.52575 76.636 8.77367 77.2513 7.96863C78.8447 5.90306 80.537 5.21453 83.0094 4.81201C82.9215 6.63395 83.9654 8.60419 86.0973 8.75249C86.2731 8.76308 86.339 8.50885 86.1852 8.43471C85.35 7.98981 84.5479 7.78855 83.9545 6.9941C83.471 6.34795 83.3611 5.52172 83.427 4.74846C84.0204 4.64253 84.6028 4.43068 85.1962 4.19764C85.405 4.43068 86.2181 5.37342 86.317 5.46876C86.6247 5.79713 87.5588 6.65514 88.0313 6.15728C88.0972 6.09373 88.0862 6.00898 88.0313 5.93484C87.8664 5.73358 87.5697 5.72298 87.35 5.61706C87.0643 5.46876 86.8335 5.23572 86.6137 5.01327C86.2951 4.69549 86.0203 4.28238 85.6467 4.00697C86.7016 3.59386 87.7566 3.2443 88.8115 3.54089C90.8554 4.12349 92.8004 5.56409 94.6245 6.77166C92.7235 6.45388 90.7125 6.17847 89.0972 7.35425C87.5258 8.50885 87.0643 10.1401 85.2511 10.6592C84.9984 10.6592 84.7456 10.6486 84.4929 10.638C82.7347 10.5956 80.7458 10.1719 80.548 8.18048C80.537 8.011 80.3721 7.83092 80.1634 7.90507C79.3392 8.19107 78.7128 8.64656 78.0535 9.18678C77.1085 9.94946 76.2514 9.8859 75.2184 10.0766M86.0533 27.2791C85.9434 27.2791 85.8115 27.2791 85.7017 27.2791C85.5368 27.2791 85.4819 27.5227 85.6247 27.5757C85.3171 27.7769 84.9984 27.9782 84.6687 28.1477C83.449 28.7832 82.0974 29.1857 80.7567 29.5035C80.3172 27.957 79.6029 26.5164 79.3172 24.9699C80.3282 24.525 81.1084 23.5716 81.7347 22.756C82.6138 21.612 83.5918 19.9701 83.5699 18.4977C83.5699 18.3918 83.416 18.3706 83.394 18.4766C82.7127 20.8705 81.493 23.328 79.2733 24.6839C79.1963 24.1013 79.1744 23.4975 79.2733 22.8725C79.493 21.3472 80.1963 19.8642 80.7348 18.4342C81.504 16.4004 83.0534 12.7777 80.7897 11.0935C80.5919 10.9452 80.3062 11.2312 80.4491 11.4218C81.9325 13.3921 80.9765 16.0402 80.0315 18.3388C79.8007 17.4385 79.3282 16.5487 78.7348 15.8814C78.6469 15.786 78.4931 15.8814 78.526 15.9979C78.6579 16.5169 78.9985 16.9724 79.2733 17.4385C79.526 17.8834 79.7238 18.3388 79.8337 18.8155C79.6249 19.324 79.4271 19.8006 79.2623 20.2561C78.6689 21.8874 78.4821 23.4657 78.6909 25.0016C78.6689 25.0122 78.6359 25.0334 78.6139 25.044C78.526 25.0864 78.592 25.1923 78.6799 25.1817C78.6909 25.1817 78.7128 25.1817 78.7238 25.1817C78.9546 26.6859 79.559 28.1583 80.537 29.5777C79.526 29.8001 78.3282 29.6836 77.3502 29.9908C76.3503 28.5078 75.2953 27.1308 74.8998 25.3512C74.4712 23.4339 75.0426 21.4531 75.7129 19.6523C76.3613 17.9045 77.0645 16.1779 77.5151 14.3666C77.8337 13.1061 78.1194 11.4324 77.4162 10.2461C78.3282 9.76938 79.0425 9.02789 80.0315 8.5936C80.3611 10.1083 81.5699 10.8392 83.1852 11.1041C83.449 11.1464 83.7347 11.1888 84.0314 11.2206C84.0643 11.3265 84.1523 11.4007 84.3061 11.4007C84.6138 11.4007 84.8995 11.3583 85.1632 11.3159C86.394 11.3795 87.7016 11.3371 88.8334 11.1782C89.262 13.9429 88.0313 16.5169 86.9214 19.1015C85.9544 17.8622 86.0203 16.3368 85.8335 14.8115C85.8116 14.6844 85.6247 14.642 85.5808 14.7797C85.0973 16.2839 85.5918 18.2859 86.8005 19.3981C86.317 20.5527 85.8775 21.7073 85.6357 22.8831C85.372 22.4382 85.1412 22.0039 84.9434 21.5272C84.7127 20.9552 84.5478 20.3303 84.2182 19.8006C84.1523 19.6841 83.9325 19.7265 83.9435 19.8748C84.0643 21.0824 84.6907 22.5653 85.5258 23.4763C85.361 24.6627 85.416 25.8808 85.8665 27.1414C85.9104 27.2367 85.9764 27.2897 86.0643 27.3002M94.097 19.3557C93.0641 20.2032 92.1191 21.1565 91.207 22.1416C91.24 21.3048 91.229 20.468 91.2839 19.6206C91.3389 18.5931 91.5916 17.5974 91.6905 16.5805C91.7015 16.4534 91.5037 16.411 91.4378 16.5169C90.4927 18.18 90.6136 20.5845 90.7125 22.417C90.7125 22.4912 90.7455 22.5441 90.7894 22.5865C90.3059 23.1056 89.8334 23.6352 89.3499 24.1542C88.3939 25.1817 87.4379 26.2198 86.339 27.0884C86.339 27.0672 86.339 27.046 86.339 27.0142C85.6907 24.4084 86.317 22.0992 87.2511 19.7583C87.2511 19.7583 87.2511 19.7583 87.273 19.7583C87.3719 19.8218 87.4818 19.6841 87.3939 19.5994C87.3719 19.5888 87.35 19.5676 87.339 19.5464C87.5588 19.0062 87.7895 18.466 88.0313 17.9151C88.9763 15.7331 89.8224 13.4239 89.3939 11.0829C89.8884 10.9346 90.3499 11.0829 90.7675 11.5278C90.6905 11.782 90.5807 12.015 90.5147 12.2693C90.4598 12.5553 90.5807 12.7671 90.7015 13.0001C91.207 13.9853 92.9982 14.5679 93.8992 15.0763C95.13 15.7542 95.8882 16.7076 96.4596 17.7774C95.5915 18.1482 94.8113 18.752 94.097 19.3452M97.6904 18.9426C97.5805 18.6778 97.4706 18.413 97.3387 18.1482C97.5585 18.0952 97.7893 18.0634 98.02 18.0423C98.4486 18.0211 98.4486 17.3855 98.02 17.4067C97.6794 17.4067 97.3607 17.4808 97.042 17.5656C96.4376 16.4745 95.6574 15.5106 94.5696 14.8009C93.7454 14.2607 92.8114 13.8687 91.9652 13.3391C90.7894 12.6082 91.4158 12.0786 91.4048 11.1252C91.3938 10.1825 90.1411 10.3308 89.262 10.4897C89.262 10.4685 89.24 10.4367 89.24 10.4155C90.273 10.2884 91.3279 10.2566 92.3498 10.2461C94.163 10.2143 96.3387 10.1401 97.8222 11.3053C100.591 13.4768 100.602 18.6143 99.1628 21.4531C99.0639 21.6438 99.1848 21.8132 99.3496 21.8768C99.1848 22.0251 99.053 22.1098 98.976 22.1204C98.4596 21.0929 98.1079 20.0019 97.6904 18.932M102.086 23.4127C101.646 23.667 101.152 23.9741 100.756 24.3449C100.701 24.2707 100.657 24.1966 100.613 24.133C100.108 23.5504 99.5475 23.0844 99.1519 22.4276C99.6903 22.2052 100.492 21.5696 100.547 21.5272C100.888 21.2095 101.207 20.8705 101.492 20.5209C101.558 20.6481 101.657 20.7752 101.778 20.9023C101.877 20.9976 102.042 20.8705 101.965 20.7646C101.965 20.7328 101.943 20.701 101.943 20.6798C102.13 20.8387 102.306 20.9976 102.503 21.1671C103.547 22.0992 103.086 22.8301 102.108 23.4127" fill="#201E1E"/>
<path d="M60.2293 20.0862C60.1413 20.0756 60.0534 20.0862 59.9765 20.1075C59.8776 20.1075 59.8776 20.246 59.9765 20.2566C60.0534 20.2566 60.1523 20.2886 60.2293 20.2673C60.3172 20.2566 60.3172 20.1075 60.2293 20.0862Z" fill="#201E1E"/>
<path d="M62.5708 38.7299C60.2082 36.6537 58.8127 34.0479 57.516 31.2514C56.2633 28.5503 54.8128 25.3513 54.582 22.3324C56.56 23.3599 58.3731 24.8641 60.7027 24.9064C60.8126 24.9064 60.8346 24.7581 60.7247 24.7264C58.3841 24.059 56.56 22.5443 54.3842 21.538C54.1754 21.4426 53.8897 21.5591 53.9007 21.8134C53.9666 25.1501 55.582 28.5927 56.9336 31.5904C57.7358 33.3594 58.6478 35.086 59.7357 36.7067C60.3181 37.5647 61.1862 38.9417 62.3071 39.1747C62.5598 39.2277 62.7796 38.9205 62.5708 38.7404" fill="#201E1E"/>
<path d="M75.2953 17.2056C74.0096 15.8286 72.5921 15.8392 71.3833 16.5171C69.801 15.5214 68.0318 15.5002 66.0978 15.7226C65.6692 15.7756 64.7022 15.998 64.1088 16.3688C62.8011 11.8139 60.3726 6.54939 54.7244 8.22303C54.6255 8.23362 54.5266 8.2654 54.4277 8.29718C54.3398 8.32896 54.3398 8.48785 54.4607 8.47725C54.5047 8.47725 54.5376 8.47725 54.5706 8.47725C54.5926 8.51962 54.6365 8.54081 54.6915 8.54081C54.7904 8.54081 54.8893 8.54081 54.9882 8.54081C55.6695 8.73148 56.164 9.36704 56.4826 9.96023C56.7024 10.3627 56.8233 10.8394 56.8782 11.2843C56.9112 11.4856 56.8782 11.6974 56.8782 11.9093C55.5596 11.1572 54.8563 9.94963 54.3288 8.59377C54.2739 8.44548 54.0321 8.50903 54.0871 8.65733C54.5486 10.0979 55.2849 11.5385 56.7573 12.2482C56.8123 12.2694 56.8562 12.2694 56.9112 12.2482C56.9112 12.2906 56.9332 12.3224 56.9442 12.3648C56.9661 12.3965 56.9881 12.4283 57.0101 12.4389C56.9991 12.4707 56.9881 12.4919 56.9771 12.5237C56.9222 12.6508 57.131 12.7355 57.1969 12.619C57.8233 11.4008 58.5815 11.0089 59.4716 12.1953C60.2078 13.1698 60.6474 14.3668 61.0649 15.4896C61.3067 16.1252 61.5265 16.7607 61.7242 17.4069C59.8232 16.1993 57.4606 17.0573 55.9002 18.5085C54.7025 16.0192 52.3399 15.2777 49.8015 15.4472C47.5378 10.6382 38.7029 16.4323 36.2854 18.3284C32.9338 20.9448 27.1977 27.7453 33.5382 30.224C30.0108 34.2916 36.5931 38.0944 40.7907 37.2152C41.2083 37.5224 41.6259 37.7766 41.9775 37.9355C46.0433 39.8104 51.4168 36.4631 54.208 33.8361C54.2849 33.762 54.3179 33.6772 54.3069 33.6031C55.3618 36.1347 56.6914 38.5816 58.3947 40.7319C59.4166 42.0242 61.5374 44.3864 63.4605 43.3165C63.6363 43.2212 63.6253 43.0199 63.5154 42.9034C65.0099 43.3271 66.856 43.1153 68.3395 42.9988C69.9328 42.8822 71.3833 42.4585 72.5701 41.3887C75.3613 38.8782 75.636 34.0056 75.9437 30.5947C76.3063 26.5589 78.57 20.7224 75.2843 17.2268M61.7242 18.1378C61.8012 18.1907 61.8781 18.1907 61.944 18.1695C62.01 18.3708 62.0759 18.5827 62.1308 18.7839C62.2407 19.1653 62.3067 20.0339 62.7682 20.1716C62.8561 20.1927 62.977 20.1504 63.0209 20.0762C63.2956 19.536 62.6693 18.3814 62.4935 17.8624C62.01 16.3582 61.4825 14.8646 60.8012 13.4346C60.3616 12.5131 59.7792 11.3373 58.7133 10.9665C58.1749 10.7865 57.7793 11.0725 57.4826 11.4856C57.4386 10.7865 57.065 9.97082 56.8343 9.54711C56.6255 9.16578 56.3288 8.80563 55.9662 8.562C58.5046 8.66792 60.3616 9.51534 61.7462 11.9622C63.0429 14.2503 63.4605 16.8878 64.1967 19.3559C64.3066 19.7373 64.889 19.5784 64.8011 19.197C64.6582 18.5933 64.4934 17.9259 64.3176 17.2268C64.4055 17.2162 64.4824 17.2056 64.5703 17.1844C64.7681 17.1632 64.7901 16.909 64.6692 16.7925C64.7681 16.7501 64.856 16.7183 64.9549 16.6866C65.3395 16.5383 65.7681 16.3794 66.1747 16.337C67.8669 16.1887 69.3065 16.2417 70.713 16.9726C69.8669 17.6505 69.1746 18.6462 68.768 19.6525C68.746 19.4936 68.6911 19.3347 68.5922 19.1547C68.3395 18.6992 67.79 18.4344 67.2736 18.3814C66.6142 18.3072 65.5593 18.5191 65.2406 19.1441C65.1637 19.2818 65.2516 19.5254 65.4494 19.4936C65.9439 19.4407 66.3395 19.0911 66.845 19.0381C67.2406 18.9852 67.6362 19.0911 67.9109 19.3665C68.7351 20.1716 67.1197 20.7224 66.5593 20.8071C66.3065 20.8495 66.2626 21.1779 66.4164 21.3262C66.79 21.6969 67.1087 22.1948 66.4164 22.3748C65.9 22.5125 65.2846 22.3007 64.845 22.0676C64.7132 21.9935 64.5923 22.0571 64.5483 22.1524C64.5044 22.1312 64.4495 22.1312 64.4055 22.1736C63.5044 23.1057 62.6143 22.968 62.1418 21.7181C62.0759 21.5274 61.8891 21.4639 61.7023 21.5486C60.5265 22.0571 59.2957 22.1524 58.1419 21.7181C58.5925 21.6439 59.043 21.5062 59.4935 21.3262C59.6144 21.4003 59.7463 21.4639 59.8891 21.4956C60.01 21.5274 60.1419 21.4109 60.1089 21.2838C60.0869 21.2202 60.043 21.1567 60.01 21.0931C60.8122 20.7118 61.5484 20.2351 62.1638 19.822C62.2957 19.7267 62.1748 19.5148 62.0319 19.5996C61.2847 20.0233 60.5155 20.4046 59.7133 20.7118C59.2738 20.2775 58.6144 19.9279 58.1639 19.6737C57.5266 19.2924 56.8233 19.017 56.098 18.9004C57.7793 17.6611 59.7463 16.7395 61.7023 18.1166M53.6915 33.3594C51.3069 35.5733 48.1861 37.3635 44.8346 37.6601C43.428 37.7872 42.1973 37.4164 41.0655 36.6749C41.0105 36.569 40.9006 36.4843 40.7688 36.4737C39.4831 35.5415 38.2084 33.8997 39.7578 32.8192C43.0214 34.9695 50.4828 31.4739 52.5267 29.2177C52.8454 28.8681 52.3509 28.3809 51.9992 28.7093C49.351 31.1879 40.6039 35.6051 38.8677 30.277C38.7578 29.9274 38.2523 30.0757 38.3183 30.4253C38.4831 31.3468 38.8457 32.0142 39.3732 32.5014C37.571 33.4442 38.582 35.2237 39.9886 36.5478C36.3623 36.7597 31.2855 34.0903 33.9008 30.3511C33.9228 30.3511 33.9448 30.3723 33.9667 30.3723C34.2415 30.4676 34.4393 30.0439 34.1865 29.9062C34.1865 29.7685 34.0437 29.652 33.9118 29.7685C28.2196 27.1733 33.3624 21.5698 36.5491 18.9852C38.4941 17.4069 46.8126 11.7504 48.9993 15.5002C46.7686 15.8074 44.472 16.7289 42.7797 17.7352C40.494 19.0805 38.3073 20.9236 37.0216 23.2222C36.1975 24.6946 35.8678 26.8979 37.5271 27.9784C37.7359 28.1055 37.9007 27.8301 37.7688 27.6712C34.8019 23.9955 40.4171 19.769 43.3291 18.0424C45.0983 16.9938 47.1202 16.1781 49.1971 15.9451C49.2191 15.998 49.2411 16.051 49.263 16.104C49.4059 16.5277 50.0982 16.3476 49.9553 15.9239V15.9027C50.0213 15.9027 50.0762 15.8921 50.1312 15.8921C52.5487 15.8286 54.186 16.9832 55.2849 18.8581C55.2299 18.8581 55.186 18.8581 55.131 18.8581C55.0761 18.8581 55.0321 18.8898 55.0101 18.9216C49.6037 18.4873 52.4937 28.6987 53.3618 31.1879C53.6256 31.9294 53.9003 32.6815 54.208 33.423C54.0981 33.2747 53.8673 33.2005 53.6915 33.37M75.0426 32.2366C74.68 35.2661 74.2294 38.963 71.7899 41.1662C69.5702 43.1682 65.7571 42.1937 63.0539 42.4903C62.9 42.5115 62.8781 42.681 63.0209 42.7445C63.0868 42.7763 63.1638 42.7975 63.2407 42.8187H63.2187C61.2188 43.3271 59.5155 41.1133 58.5046 39.7786C56.6475 37.3105 55.2958 34.4611 54.197 31.6222C53.219 29.0906 49.6476 18.5827 55.5925 19.4301C55.7134 19.6313 55.9991 19.5784 56.109 19.4195C56.7244 19.589 57.3068 19.8326 57.8782 20.1504C58.2518 20.3516 58.6035 20.6906 58.9551 20.9766C58.2298 21.1673 57.4936 21.2414 56.7683 21.4427C56.6365 21.4851 56.6255 21.6863 56.7683 21.7181C56.9002 21.7499 57.0431 21.7605 57.1859 21.7711C58.5155 22.7456 60.1639 22.7456 61.6803 22.1842C61.977 22.8409 62.4935 23.5824 63.2846 23.5718C64.0539 23.5612 64.5374 23.1375 64.5923 22.4384C64.5923 22.4384 64.5923 22.4384 64.5923 22.449C65.2736 22.9151 66.2626 23.1799 67.0318 22.7138C67.6032 22.3642 67.4714 21.7816 67.1856 21.305C67.856 21.1037 68.5263 20.7012 68.7131 20.1292C68.8559 20.3304 69.2295 20.4046 69.3614 20.1292C69.8339 19.1335 70.3944 18.0001 71.3174 17.3221C71.3833 17.3645 71.4383 17.4069 71.5042 17.4492C71.8009 17.6611 72.1745 17.2056 71.9438 16.962C72.1855 16.8561 72.4383 16.7819 72.724 16.7501C75.0536 16.4535 75.9656 19.8008 76.1634 21.4109C76.603 24.9277 75.4492 28.7304 75.0316 32.226" fill="#201E1E"/>
<path d="M68.5811 23.0738C67.3943 23.275 66.2515 23.9636 65.0867 24.2919C63.9329 24.6203 62.1088 25.1605 60.9989 24.4508C60.867 24.3661 60.7242 24.5567 60.8341 24.6627C61.6802 25.4571 63.0538 25.1711 64.0977 24.991C65.4383 24.7474 67.713 24.2813 68.691 23.2538C68.7679 23.1691 68.691 23.0526 68.5811 23.0632" fill="#201E1E"/>
<path d="M72.4161 24.8217C72.3941 23.7307 72.504 21.7181 71.548 20.913C70.57 20.0974 69.4272 22.3748 69.1525 22.8621C69.0316 23.0845 69.3722 23.2752 69.5041 23.0527C69.8667 22.4384 70.2953 21.5062 71.0206 21.2096C71.515 21.0084 71.7128 22.2371 71.7678 22.4913C72.0535 23.9107 71.9656 25.3937 71.9106 26.8237C71.7348 31.1667 71.2843 35.7428 69.3173 39.6832C69.1525 40.0222 69.658 40.3188 69.8448 39.9798C71.57 36.8762 71.8227 33.4759 72.1854 30.0439C72.3722 28.2961 72.4711 26.5695 72.4271 24.8217" fill="#201E1E"/>
<path d="M65.6907 36.5475C65.4929 36.0073 65.1633 35.52 64.9984 34.9586C64.7897 34.2595 64.6468 33.5392 64.438 32.84C64.1413 31.8549 63.5809 30.8592 62.3831 30.9122C60.2623 31.0075 61.526 35.0433 62.0095 35.9861C62.0974 36.1555 62.3502 36.0073 62.2732 35.8378C61.8776 34.9904 61.7018 34.0476 61.6689 33.126C61.6469 32.7129 61.6908 32.3104 61.8227 31.9185C62.0645 31.1452 62.9875 31.3571 63.3831 31.8867C63.9985 32.7023 64.0864 33.9417 64.3171 34.895C64.471 35.52 64.6908 36.6004 65.449 36.7911C65.5918 36.8229 65.7567 36.6958 65.7017 36.5475" fill="#201E1E"/>
<path d="M68.0324 33.8992C66.7027 32.9777 66.0983 36.4627 66.2192 37.1194C66.2742 37.363 66.7137 37.3101 66.6807 37.0558C66.6148 36.505 66.7467 35.9542 66.9115 35.4352C66.9994 35.1492 67.1313 34.8738 67.3071 34.6301C67.6587 34.0687 67.9884 34.5454 68.1532 34.9585C68.417 35.6047 68.0104 36.5898 67.8236 37.2253C67.6807 37.7126 67.2302 38.4964 67.5159 38.9837C67.5488 39.0473 67.6587 39.079 67.7247 39.0367C68.0543 38.8036 68.0983 38.3905 68.2082 38.0304C68.417 37.3842 68.6148 36.7275 68.7356 36.0601C68.8785 35.2763 68.7356 34.3865 68.0214 33.8992" fill="#201E1E"/>
<path d="M61.9326 27.417C61.9216 27.2793 61.8557 27.2052 61.7238 27.1628C61.6469 27.131 61.5809 27.1522 61.515 27.184C61.4381 27.2264 61.3722 27.3217 61.3832 27.417C61.3941 27.756 61.4381 28.1479 61.2733 28.4657C61.1963 28.6034 61.0974 28.6352 60.9326 28.5611C60.7019 28.4445 60.581 28.1479 60.515 27.9255C60.3942 27.523 60.4381 27.0887 60.559 26.6862C60.603 26.5484 60.3832 26.4955 60.3282 26.6226C60.2843 26.7391 60.2513 26.8662 60.2183 26.9827C60.2183 26.9827 60.2074 26.9827 60.1964 26.9827C59.9876 26.9827 59.7898 26.9616 59.592 26.9933C59.4162 27.0145 59.2404 27.0463 59.0645 27.0569C58.8667 27.0675 58.658 27.0569 58.5371 26.9086C58.3393 26.6967 58.8557 26.1247 59.0426 25.987C59.0865 25.9447 59.0316 25.8811 58.9876 25.9129C58.6909 26.0506 58.4162 26.1671 58.2184 26.4531C58.0646 26.6756 58.0316 26.9298 58.1525 27.1734C58.2733 27.4488 58.647 27.5547 58.9217 27.5865C59.1305 27.6077 59.3393 27.5865 59.548 27.5653C59.7898 27.5336 59.9876 27.4276 60.1744 27.3005C60.1085 27.9043 60.2403 28.5399 60.7788 28.9C61.0425 29.0801 61.3832 29.0165 61.6029 28.7941C61.9436 28.4551 61.9765 27.8513 61.9216 27.417" fill="#201E1E"/>
<path d="M64.6362 26.845C64.3834 26.6331 63.9329 26.5696 63.6142 26.5166C63.5043 26.506 63.4054 26.5802 63.4274 26.6967C63.5043 27.0039 63.845 27.1204 64.1197 27.1946C64.2296 27.2263 64.2625 27.2369 64.2735 27.2899C64.3065 27.4276 64.2076 27.6289 64.1307 27.7877C63.7021 27.7454 63.3065 27.5547 62.9109 27.3958C62.6912 27.3111 62.5593 27.65 62.7571 27.756C63.2296 28.0314 63.7351 28.275 64.2955 28.3068C64.3834 28.3068 64.4823 28.2538 64.5263 28.1797C64.7241 27.8195 65.0427 27.1946 64.6362 26.8556" fill="#201E1E"/>
<path d="M68.571 26.3682C68.4941 25.9763 68.3513 25.5526 67.9007 25.4573C67.8348 25.4467 67.7689 25.4361 67.7029 25.4361C67.7029 25.4361 67.7029 25.4255 67.7029 25.4149C67.67 25.1924 67.2744 25.0335 67.0876 24.97C66.7469 24.8535 66.1975 24.8641 65.8898 25.0441C65.692 25.1607 65.7579 25.4043 65.9447 25.4784C66.1755 25.5632 66.4612 25.4784 66.7139 25.4784C66.7909 25.4784 67.0766 25.5208 67.1315 25.6055C66.9337 25.7327 66.7469 25.9127 66.615 26.0822C66.5491 26.1564 66.6041 26.3258 66.7249 26.2729C66.8788 26.2199 67.0326 26.1458 67.1865 26.0822C67.1645 26.1881 67.0656 26.2199 66.9557 26.2517C66.692 26.3364 66.4282 26.3788 66.1645 26.453C65.9337 26.5165 66.0326 26.8343 66.2634 26.7919C66.604 26.739 66.9667 26.7496 67.2853 26.6436C67.593 26.5483 67.7139 26.2835 67.7469 25.9975C67.7469 25.9657 67.7469 25.9445 67.7469 25.9127C67.9776 25.9339 68.1095 26.2729 68.1644 26.4424C68.2524 26.686 68.615 26.5907 68.571 26.3364" fill="#201E1E"/>
<path d="M65.8114 28.5926C65.7125 28.5502 65.6026 28.5926 65.5697 28.6879C65.4708 28.9527 65.6686 29.2705 65.7125 29.5353C65.7125 29.6095 65.7235 29.6942 65.7125 29.7578L65.6905 29.8213C65.6136 29.8319 65.4268 29.6942 65.3389 29.6201C65.0971 29.3976 64.8884 29.1222 64.7125 28.8574C64.5587 28.635 64.218 28.8256 64.3389 29.0693C64.5367 29.44 64.7785 29.8002 65.1081 30.065C65.3169 30.2239 65.5916 30.3722 65.8554 30.2874C66.1301 30.2027 66.218 29.9167 66.229 29.673C66.229 29.3447 66.1411 28.7409 65.8004 28.5926" fill="#201E1E"/>
<path d="M68.1308 27.0569C67.6693 27.0357 66.999 26.951 66.5924 27.184C66.4715 27.2581 66.4715 27.4276 66.5924 27.5018C66.9111 27.6924 67.4056 27.6819 67.8231 27.6501C67.8012 27.9043 67.7242 28.1585 67.4605 28.2644C67.1199 28.3916 66.7462 28.4233 66.3946 28.5187C66.1089 28.5928 66.2298 28.9953 66.5155 28.9424C66.966 28.8576 67.4495 28.8788 67.8561 28.667C68.3396 28.4127 68.3946 27.8196 68.4385 27.3535C68.4385 27.184 68.2957 27.0675 68.1308 27.0675" fill="#201E1E"/>
<path d="M66.3289 30.4782C66.263 30.4147 66.1751 30.4253 66.1092 30.4782C66.0542 30.5206 66.0213 30.5524 65.9993 30.6159C66.0542 30.4888 65.9333 30.7113 65.9333 30.7324C65.9004 30.849 65.8894 30.9655 65.8564 31.082C65.8015 31.2409 65.7026 31.368 65.5817 31.4316C65.6257 31.4104 65.5707 31.4316 65.5597 31.4316C65.5597 31.4316 65.5048 31.3998 65.5268 31.421C65.4828 31.3892 65.4718 31.368 65.4498 31.3256C65.285 31.0608 65.263 30.6689 65.241 30.3617C65.2191 30.0969 64.8235 30.0969 64.8125 30.3617C64.7795 30.9125 64.8345 32.0777 65.7026 31.9506C66.23 31.8764 66.7685 30.8701 66.3399 30.4888" fill="#201E1E"/>
<path d="M69.0205 29.3343C68.9546 29.239 68.8557 29.2284 68.7568 29.2708C68.4711 29.3873 68.4711 29.7368 68.4381 30.0017C68.4051 30.2453 68.4051 30.4677 68.2952 30.6796C68.1194 30.5419 67.9766 30.3618 67.8337 30.2135C67.6909 30.0546 67.4601 30.1711 67.4711 30.3618C67.4711 30.4254 67.504 30.4677 67.548 30.4995C67.592 30.5948 67.6359 30.6796 67.6909 30.7643C67.8117 30.9762 68.0095 31.1563 68.2293 31.2834C68.3392 31.3469 68.482 31.3257 68.57 31.241C68.8117 31.008 68.9436 30.7325 68.9875 30.4042C69.0095 30.2347 69.0205 30.0758 69.0315 29.9063C69.0535 29.6945 69.1414 29.525 69.0095 29.3343" fill="#201E1E"/>
<path d="M62.9771 29.0054C62.4497 29.3232 62.2629 30.0329 61.6035 30.2236C61.0871 30.3719 61.109 29.4609 61.12 29.2067C61.12 29.0054 60.8014 28.963 60.7574 29.1537C60.6255 29.7151 60.6145 30.6367 61.3947 30.7532C62.1969 30.8697 63.2189 29.9058 63.3178 29.1961C63.3397 29.0266 63.109 28.9207 62.9661 29.0054" fill="#201E1E"/>
<path d="M41.78 54.3014C44.1206 56.0492 46.7359 57.1614 49.7248 57.3309C53.3401 57.5427 56.9224 56.7059 60.5158 56.4623C60.7575 56.5152 60.9883 56.5788 61.219 56.6318C61.6256 56.7377 61.8784 56.1551 61.4718 56.0492C61.1311 55.9644 60.8015 55.8691 60.4608 55.7949C57.5158 55.1382 54.4829 54.8734 51.56 54.1319C48.3403 53.2951 44.5382 51.685 43.3624 48.3907C42.9668 47.289 42.8459 46.1238 42.714 44.9481C44.2634 48.2636 48.9886 50.8905 51.9995 52.1828C54.8126 53.3798 57.6477 54.3755 60.7245 53.5811C65.0211 52.4688 68.7903 49.4393 73.3396 49.8313C73.3835 49.9478 73.4275 50.0749 73.4715 50.2126C73.5374 50.4668 73.955 50.4351 73.911 50.1596C73.889 50.0643 73.878 49.969 73.8561 49.8842C74.0648 49.916 74.2736 49.9478 74.4824 49.9902C74.6253 50.0219 74.6802 49.7995 74.5484 49.7465C74.2846 49.6406 74.0099 49.5665 73.7352 49.4923C72.0649 45.054 62.7465 50.3079 59.7465 50.0855C59.7356 50.0855 59.7246 50.0855 59.7026 50.0855C58.4169 48.3165 57.8125 46.0285 57.2301 43.9841C56.7906 42.427 56.3291 40.8805 55.9005 39.3128C55.5598 38.0734 55.1533 36.7175 54.3291 35.6901C52.9775 33.9952 50.9006 33.2749 48.7578 32.9889C47.3073 32.7983 44.5272 32.5758 43.7909 34.2495C42.9008 36.2832 45.2414 36.9718 46.8568 37.3955C48.4501 37.8192 49.7578 38.2111 50.9226 39.4293C52.1973 40.7745 53.1203 42.3528 53.8566 44.0371C54.6917 45.9544 55.428 48.6449 56.8345 50.4139C50.9775 49.1004 48.3512 42.8401 43.5382 39.8318C43.4173 39.7576 43.2415 39.7576 43.1536 39.8848C42.6701 40.6262 42.3954 41.3465 42.2745 42.0457C42.0108 41.0288 41.5602 40.0648 40.7361 39.2174C40.5273 39.0056 40.2965 38.8361 40.0767 38.709C40.4064 37.0777 40.3515 35.2452 40.0218 33.6351C39.824 32.7135 39.5713 31.0928 38.5493 30.6903C38.4065 30.6374 38.2636 30.7751 38.3185 30.9128C38.846 32.1309 39.4394 33.0843 39.6042 34.4613C39.7691 35.8278 39.7691 37.173 39.6921 38.5289C38.3405 38.0628 36.89 38.942 36.1867 40.2979C33.4615 45.5518 37.5054 51.0706 41.78 54.259M60.4169 51.6108C59.4498 51.6426 58.6696 51.3566 58.0103 50.8376C58.0103 50.7105 57.9444 50.5833 57.7686 50.5622C57.7356 50.5622 57.7136 50.5622 57.6807 50.5516C57.1093 49.9902 56.6587 49.2487 56.2851 48.3907C55.373 46.2933 54.6588 44.1218 53.5159 42.1092C52.4171 40.1602 50.9116 38.0204 48.604 37.3319C47.593 37.0247 46.5161 36.8341 45.5271 36.4421C44.4173 35.9972 43.3294 34.7473 44.8129 33.8787C46.6919 32.7877 49.7908 33.4762 51.6588 34.2706C54.4829 35.4888 55.0873 38.3912 55.8126 41.0076C56.4389 43.2956 57.0213 45.6789 57.9444 47.8716C58.5268 49.2487 59.2521 50.6363 60.3949 51.6108M42.769 43.3592C42.736 43.0837 43.0767 40.1602 43.4832 40.4356C44.5491 41.1559 45.5162 41.9821 46.4062 42.9037C49.6149 46.198 52.494 50.3503 57.4499 51.0812C58.362 51.9074 59.5158 52.3523 61.0542 52.0981C61.252 52.2146 61.4498 52.3311 61.6696 52.4265C61.8784 52.5218 62.0762 52.204 61.8674 52.0875C61.7904 52.0451 61.7245 51.9922 61.6586 51.9498C61.8784 51.7909 61.7904 51.3884 61.4938 51.4625C61.3619 51.4943 61.219 51.5155 61.0872 51.5473C60.7355 51.2719 60.4278 50.9647 60.1421 50.6363C63.4497 50.4033 71.0649 46.2404 73.0868 49.3546C70.955 49.0156 68.8232 49.6512 66.8123 50.5092C64.1091 51.6638 60.7795 53.6976 57.6917 53.2845C53.7797 52.7654 49.4941 50.6893 46.4502 48.3271C44.8678 47.0984 43.0547 45.4247 42.78 43.3592M36.6592 47.2467C36.1318 46.0603 35.7032 44.7362 35.8571 43.4227C36.0109 42.0562 36.6043 39.7259 38.1317 39.1539C39.857 38.4971 41.1317 40.4144 41.5712 41.7702C42.0547 43.3062 41.9888 44.9057 42.2305 46.4734C42.6371 49.058 44.0107 51.2401 46.3183 52.6701C49.9666 54.9158 54.2522 55.2441 58.4059 56.0068C55.7027 56.2398 53.0214 56.886 50.2853 56.7271C47.2304 56.547 44.5382 55.6361 42.1536 53.7823C39.9119 52.0451 37.8021 49.8313 36.6702 47.2467" fill="#201E1E"/>
<path d="M40.45 35.329C42.7246 34.81 43.9114 37.8713 44.285 39.4602C44.34 39.6932 43.9444 39.7885 43.8675 39.5661C43.5927 38.6869 43.296 37.8183 42.7686 37.045C42.1642 36.1341 41.373 35.9964 40.395 35.668C40.2082 35.6044 40.2851 35.3714 40.45 35.3396" fill="#201E1E"/>
<path d="M46.4393 65.7619C45.8898 64.6284 44.3294 64.0988 43.1207 64.2683C41.3845 64.5013 40.2197 65.9419 40.2526 67.605C40.2526 67.7533 40.4724 67.7851 40.5164 67.6368C40.901 66.461 41.3735 65.3276 42.6702 64.8933C43.5822 64.5861 44.6811 64.7979 45.4393 65.3805C46.3184 66.0479 46.2964 67.0754 45.758 67.9439C45.1646 68.8867 44.0328 69.554 42.9559 68.9608C42.0108 68.4418 41.857 67.1707 42.1647 66.2703C42.2086 66.1432 41.9889 66.0479 41.9339 66.175C41.1757 67.8486 42.3405 70.0519 44.4393 69.5646C46.0217 69.1939 47.1206 67.1813 46.4393 65.7619Z" fill="#201E1E"/>
<path d="M52.5817 60.2649C51.7246 58.6866 49.7357 58.8349 48.395 59.7565C46.3731 61.1653 47.3072 64.5444 49.8785 64.502C49.9335 64.502 49.9664 64.4702 49.9664 64.4279C50.8016 64.841 51.8345 64.8622 52.4389 64.1419C53.307 63.1038 53.1861 61.3878 52.5707 60.2649M52.1312 63.8029C51.2191 65.1482 49.8675 63.5487 48.9884 63.1567C48.8785 63.1144 48.7796 63.1991 48.8236 63.3156C48.9884 63.6864 49.3071 64.0147 49.6807 64.269C48.5269 64.0677 47.7797 63.125 47.7247 61.9916C47.6698 60.8158 48.5928 60.0001 49.6587 59.6294C50.8895 59.2057 51.9334 59.7671 52.373 60.9111C52.7136 61.8115 52.7026 62.9873 52.1422 63.8029" fill="#201E1E"/>
<path d="M53.1528 67.0227C52.5923 65.7728 51.0759 65.741 49.9221 66.1435C48.3287 66.7049 47.5925 68.5057 48.7243 69.6603C48.7243 69.7026 48.7463 69.745 48.7793 69.7874C49.8122 70.6348 51.5924 70.7937 52.6253 69.8827C53.4275 69.173 53.5594 67.9443 53.1418 67.0121M52.2297 69.6285C51.2407 70.4971 50.01 69.7768 48.9771 69.459C48.9551 69.459 48.9331 69.459 48.9111 69.459C47.043 67.2345 52.0539 64.777 52.8671 67.5205C53.0868 68.262 52.8231 69.12 52.2407 69.6391" fill="#201E1E"/>
<path d="M50.3399 68.4644C50.3399 68.4007 50.3399 68.3477 50.3399 68.2946C50.318 68.0294 49.9224 68.0294 49.9004 68.2946C49.9004 68.3477 49.9004 68.4114 49.9004 68.4644C49.9004 68.6129 50.0103 68.6766 50.1202 68.666C50.2301 68.666 50.3509 68.6129 50.3509 68.475" fill="#201E1E"/>
<path d="M49.7139 62.2247C49.659 62.1822 49.3843 62.1504 49.3733 62.108C49.3513 61.8533 48.9447 61.8533 48.9667 62.108C48.9777 62.2777 49.0436 62.4157 49.2194 62.4793C49.3733 62.543 49.5711 62.543 49.7139 62.4581C49.8018 62.4051 49.8018 62.2883 49.7139 62.2353" fill="#201E1E"/>
<path d="M44.7903 65.868C44.6145 65.7091 44.3727 65.9527 44.5266 66.1222C44.7573 66.3764 44.6145 66.7154 44.7683 66.9802C44.8233 67.0755 44.9661 67.0755 45.0211 66.9802C45.2298 66.6306 45.076 66.1328 44.7903 65.868Z" fill="#201E1E"/>
<path d="M96.9544 61.5461C97.317 60.3491 96.5039 58.9615 95.4929 58.3153C94.0314 57.3832 92.1743 57.7327 91.0535 59.0039C90.9546 59.1204 91.0974 59.2793 91.2293 59.1945C92.3172 58.559 93.46 57.9976 94.7237 58.506C95.6248 58.8662 96.3061 59.7242 96.4819 60.6351C96.6907 61.705 95.9764 62.4571 94.9654 62.7643C93.8885 63.0926 92.5699 62.8808 92.1743 61.7474C91.8227 60.7516 92.5699 59.703 93.416 59.2263C93.5369 59.1627 93.438 58.9509 93.3061 59.0144C91.5809 59.7983 90.9546 62.1817 92.8556 63.1562C94.2951 63.8977 96.5039 63.082 96.9654 61.5779" fill="#201E1E"/>
<path d="M105.328 61.3239C105.767 59.5867 104.174 58.4321 102.537 58.2838C100.042 58.0507 98.438 61.1862 100.405 62.7963C100.449 62.828 100.493 62.828 100.526 62.7963C100.867 63.6331 101.625 64.311 102.581 64.1521C103.943 63.9191 105.02 62.5632 105.339 61.3239M102.581 63.7072C100.987 64.1309 101.053 62.076 100.658 61.218C100.614 61.112 100.482 61.1226 100.438 61.218C100.306 61.6099 100.317 62.0548 100.438 62.4891C99.7017 61.5993 99.7786 60.4129 100.526 59.5337C101.284 58.6122 102.548 58.591 103.603 58.9935C104.811 59.4596 105.218 60.5506 104.757 61.684C104.394 62.5844 103.581 63.4424 102.592 63.7072" fill="#201E1E"/>
<path d="M101.834 60.9739C101.812 60.9104 101.636 60.6985 101.658 60.6667C101.812 60.4655 101.515 60.2007 101.35 60.4019C101.251 60.529 101.207 60.6773 101.284 60.8362C101.361 60.9739 101.515 61.1116 101.68 61.1328C101.79 61.1434 101.856 61.0693 101.834 60.9739Z" fill="#201E1E"/>
<path d="M95.6356 60.5827C95.6136 60.3496 95.262 60.3814 95.262 60.6039C95.262 60.9322 94.9213 61.1017 94.8554 61.4089C94.8334 61.5148 94.9433 61.5996 95.0422 61.5678C95.4268 61.4301 95.6576 60.964 95.6356 60.5827Z" fill="#201E1E"/>
<path d="M73.3179 52.172C73.8453 52.6063 74.5376 52.5427 75.164 52.3521C75.2849 52.3097 75.2299 52.172 75.109 52.172C74.6695 52.172 74.0541 52.1614 73.7245 51.8542C73.3618 51.5153 73.4497 50.975 73.4827 50.5725C73.5157 50.2441 72.9553 50.1488 72.8783 50.4772C72.7575 51.028 72.8014 51.7377 73.3179 52.172Z" fill="#201E1E"/>
<path d="M57.4937 70.9206C58.4168 66.3552 62.087 62.6054 64.9001 58.8344C67.1638 55.7943 68.3066 51.6102 72.4823 50.0319C72.6032 49.9895 72.5593 49.7988 72.4164 49.82C68.1308 50.5191 66.6363 55.3282 64.6694 58.0399C61.7354 62.0863 57.7575 65.9209 56.7685 70.7935C56.6916 71.1854 57.4058 71.2913 57.4827 70.91" fill="#201E1E"/>
<path d="M79.1966 63.0297C79.6142 63.2415 80.0098 63.4746 80.3724 63.75C80.5922 63.9089 80.757 64.1419 81.0207 64.2373C81.0757 64.375 81.3833 64.3856 81.3943 64.2161C81.3943 64.089 81.4932 63.9936 81.4273 63.8665C81.3504 63.6864 81.1636 63.517 81.0207 63.3793C80.6031 62.9767 80.0647 62.6484 79.5043 62.4259C79.3504 62.3729 79.1526 62.3941 79.0427 62.5107C78.9988 62.5636 78.9768 62.606 78.9658 62.6695C78.9329 62.8178 79.0427 62.9555 79.1966 63.0297Z" fill="#201E1E"/>
<path d="M75.2406 64.2903C76.0537 64.9047 77.3174 64.8517 78.2844 64.6292C78.5152 64.6928 78.724 64.428 78.5042 64.2903C78.1086 64.0572 77.768 63.803 77.4603 63.4958C77.2405 63.284 77.0317 62.8709 76.6801 62.8285C76.5702 62.8179 76.4933 62.8709 76.4713 62.9556C76.3944 63.2734 76.8559 63.6229 77.0867 63.8454C77.2845 64.0466 77.5262 64.2267 77.768 64.375C77.4053 64.4174 77.0427 64.428 76.6471 64.375C76.1966 64.3221 75.801 64.1314 75.3395 64.089C75.2186 64.0784 75.1417 64.2055 75.2406 64.2797" fill="#201E1E"/>
<path d="M72.416 66.4081C72.9545 66.6941 73.5259 66.8424 74.1303 66.9484C74.1412 66.959 74.1522 66.9696 74.1742 66.9907C74.3171 67.139 74.5698 66.9907 74.4489 66.8213C74.2511 66.5564 74.0643 66.2704 73.8445 66.0268C73.7896 65.9738 73.7237 65.9315 73.6358 65.9421C73.5479 65.9421 73.5039 65.9738 73.4599 66.048C73.427 66.1115 73.449 66.1857 73.4929 66.2387C73.6358 66.4187 73.8006 66.5882 73.9654 66.7577C73.4599 66.6518 72.9654 66.5141 72.4819 66.334C72.427 66.3128 72.394 66.3764 72.438 66.4081" fill="#201E1E"/>
<path d="M75.3503 56.9599C76.614 57.8603 78.592 56.9175 79.548 56.0807C79.7787 56.0913 79.9436 55.7947 79.7238 55.6358C79.3612 55.371 78.9546 55.1803 78.526 55.0109C78.1744 54.8732 77.6469 54.6507 77.3283 54.8837C77.2404 54.9473 77.2294 55.032 77.2843 55.1168C77.4711 55.4028 77.9326 55.424 78.2513 55.5193C78.57 55.6252 78.8667 55.7629 79.1524 55.9112C78.6579 56.3349 78.0865 56.6633 77.3832 56.7798C76.7129 56.8964 76.0865 56.6527 75.4272 56.7057C75.2734 56.7057 75.2184 56.8858 75.3393 56.9599" fill="#201E1E"/>
<path d="M73.3064 59.2163C74.1196 59.7777 75.1965 59.4175 75.8118 58.8773C75.8888 58.8137 75.8558 58.729 75.7899 58.676C75.5261 58.3688 75.0097 58.1464 74.5811 58.2629C74.4822 58.2841 74.4602 58.4112 74.5481 58.4642C74.8229 58.6443 75.1745 58.6019 75.4382 58.7608C75.1525 58.9832 74.8338 59.1315 74.4382 59.1739C74.0866 59.2163 73.746 59.0891 73.4053 59.015C73.2734 58.9832 73.2075 59.1421 73.3064 59.2057" fill="#201E1E"/>
<path d="M68.3946 54.8413C68.5814 55.1273 68.7902 55.2438 69.1528 55.3497C69.5484 55.4557 69.955 55.5086 70.3726 55.5404C70.6803 55.5616 70.7462 55.2014 70.4385 55.1273C69.8122 54.9684 69.1858 54.7354 68.5594 54.6718C68.4605 54.6612 68.3397 54.7459 68.3946 54.8519" fill="#201E1E"/>
<path d="M67.4822 57.1403C67.8009 57.3631 68.2734 57.3631 68.647 57.3843C68.9327 57.3949 68.9767 57.0978 68.7129 57.0129C68.3503 56.9174 67.8998 56.7689 67.5262 56.8856C67.4053 56.9174 67.3833 57.066 67.4822 57.1403Z" fill="#201E1E"/>
<path d="M67.2077 59.2591C67.2846 59.3016 67.3945 59.3122 67.4934 59.3228C67.4934 59.3228 67.5374 59.3228 67.5703 59.3228C67.6912 59.344 67.7681 59.2697 67.7791 59.1955C67.7901 59.1212 67.7462 59.0257 67.6253 59.0045C67.6033 59.0045 67.5703 59.0045 67.5484 58.9939C67.4495 58.9727 67.3396 58.9514 67.2627 58.9727C67.0868 59.0045 67.0539 59.1742 67.2077 59.2591Z" fill="#201E1E"/>
<path d="M65.5147 60.8368C65.6905 60.9217 65.8883 60.9429 66.0861 60.9747C66.2839 61.0066 66.3278 60.7413 66.13 60.7095C65.9322 60.6776 65.7564 60.6458 65.5476 60.667C65.4377 60.667 65.4268 60.7943 65.5147 60.8368Z" fill="#201E1E"/>
<path d="M56.746 72.0541C57.0757 72.0117 57.3943 71.927 57.702 71.821C56.6801 73.0816 55.8779 74.4798 55.6581 75.878C55.6361 76.0475 55.812 76.2488 56.0317 76.217C57.8668 75.9416 59.5042 75.3484 60.8997 74.3209C61.2514 74.1196 61.592 73.8972 61.9107 73.6536C67.1193 72.4354 72.2291 70.6453 76.9872 68.5797C79.9652 67.298 87.1628 64.4062 85.965 60.5504C85.8881 60.3068 85.3936 60.3916 85.4595 60.6458C85.4595 60.6458 85.3716 60.6458 85.3386 60.6458C85.2288 60.6881 85.1189 60.7199 85.02 60.7411C85.3496 60.4021 85.6793 60.0844 86.0309 59.7666C88.2397 58.326 90.4814 56.9278 92.8549 55.6566C95.7889 54.0783 99.0416 52.9449 101.943 51.356C102.074 51.2819 101.954 51.1124 101.811 51.1547C98.7119 51.928 95.7779 53.4957 93.0527 54.9045C92.4373 55.2223 91.833 55.5507 91.2176 55.8897C92.4264 55.0846 93.6571 54.2796 94.8549 53.4322C94.9428 53.3686 94.8549 53.2521 94.745 53.2945C91.3495 55.0105 87.4704 57.0019 85.0749 59.8195C84.7782 60.0314 84.4925 60.2538 84.2068 60.4763C84.042 60.6034 84.1519 60.8047 84.3057 60.8364C84.3057 60.847 84.2947 60.8576 84.2837 60.8682C82.998 60.9106 82.3937 59.9255 82.7233 58.6332C85.0749 56.896 87.5803 55.3812 90.2616 54.0042C93.1077 52.5424 96.4482 51.3666 98.9866 49.5235C99.0526 49.4705 99.0745 49.3964 99.0745 49.3328C102.492 48.2841 104.899 45.7313 108.261 44.5131C108.349 45.0428 108.558 45.5406 108.756 46.0597C108.811 46.1974 109.041 46.2927 109.195 46.2292C110.909 45.4665 111.986 44.3225 112.953 42.9136C113.525 42.0874 114.041 41.24 114.733 40.4985C115.173 40.0324 115.711 39.7464 116.36 39.5134C116.876 39.3439 117.404 39.2804 117.953 39.3227C117.865 39.5875 117.788 39.8524 117.711 40.1278C116.261 45.2864 111.294 47.6274 105.558 48.6655C105.074 48.7502 105.162 49.301 105.657 49.3222C106.92 49.354 108.074 49.8095 109.283 49.9684C107.866 51.123 105.635 51.8327 103.932 52.4682C102.888 52.8602 101.822 53.2097 100.734 53.5063C100.272 53.6334 99.8108 53.7394 99.3492 53.8453C99.0086 53.9194 98.3163 54.1737 98.668 53.6864C98.7778 53.5275 98.5471 53.3474 98.3932 53.4851C96.8658 55.0211 101.25 54.0571 101.668 53.93C104.459 53.1144 108.514 51.9492 110.393 49.9048C110.613 49.6718 110.382 49.3646 110.041 49.3646C109.14 49.3646 108.283 49.1421 107.415 48.9409C112.931 47.6168 118.437 44.672 118.382 39.1638C118.382 39.0897 118.294 39.0155 118.206 39.005C116.47 38.7931 114.832 39.6617 113.777 40.7316C113.107 41.4095 112.657 42.2357 112.14 42.9984C111.459 43.9835 109.008 46.8541 108.876 44.0682C108.865 43.8776 108.613 43.7611 108.415 43.8246C104.382 45.1063 101.525 48.0087 97.4812 49.354C97.3054 49.407 97.3493 49.6294 97.5032 49.6718C95.0417 50.7416 92.6571 52.0869 90.3165 53.3051C92.2615 51.8433 94.1296 50.2544 95.8768 48.6655C96.1186 48.4536 95.723 48.0935 95.4483 48.2735C93.9428 49.2375 92.2725 49.979 90.5363 50.6145C92.9099 49.2692 95.0527 47.5956 97.0416 45.9749C99.9317 43.6234 104.129 39.9371 103.503 36.0814C103.47 35.8801 103.206 35.7848 103.008 35.8801C99.9426 37.5749 98.4372 40.4879 96.2614 42.8925C96.0746 41.9285 95.9427 41.2082 96.5361 40.1278C96.668 39.8947 96.3823 39.6829 96.1186 39.7358C94.8878 40.0324 93.8769 40.5939 92.9978 41.293C93.5692 40.1066 93.723 38.8355 93.0857 37.6067C92.9978 37.4266 92.6571 37.4266 92.6351 37.6385C92.3275 39.6617 92.3714 41.1447 90.9429 42.8819C89.9759 44.0471 88.7122 45.011 87.3935 45.9114C90.4044 43.3162 93.0417 39.5558 91.789 35.9225C91.7121 35.7106 91.3605 35.6789 91.2176 35.8272C90.8 36.2826 90.3385 36.6746 89.888 37.0983C90.3385 34.7043 91.822 32.1727 90.2506 29.8953C90.1407 29.7364 89.833 29.7258 89.7231 29.8635C86.921 33.2637 87.1738 37.4161 87.3825 41.4942C87.3935 41.7379 87.8331 41.7485 87.877 41.5154C88.1518 39.8418 88.0199 38.1469 88.0638 36.4521C88.1188 34.3124 88.7561 32.4163 89.9869 30.6367C91.1187 32.7976 89.3495 35.6153 89.2286 37.7974C89.2177 38.0304 89.5473 38.1999 89.7341 37.9986C90.2066 37.4902 90.7781 37.0665 91.3055 36.611C92.0857 40.6256 88.4814 44.5873 85.2727 47.0554C85.1738 47.1295 85.1848 47.2355 85.2397 47.3096C83.2068 48.5489 80.119 50.265 79.6245 52.3835C79.3608 52.0445 79.0641 51.7162 78.6905 51.4302C80.3058 49.9366 81.3168 48.0723 82.1299 46.155C82.9431 44.2271 83.9431 41.8968 83.976 39.8312C83.976 39.5981 83.6244 39.471 83.4925 39.6935C82.5365 41.3883 82.2948 43.4962 81.6354 45.3076C80.8443 47.4791 79.6794 49.4599 78.2179 51.3454C78.0971 51.5043 78.2839 51.6738 78.4597 51.6208C79.3718 53.1568 80.4377 54.841 82.7343 54.3008C82.9211 54.2584 82.8332 54.0042 82.6464 54.0254C81.3058 54.1842 80.6574 53.6652 80.097 52.9873C81.8662 49.8624 85.5035 48.21 88.5254 46.0491C88.9759 45.7313 89.4594 45.35 89.9539 44.9368C90.0418 44.9474 90.1407 44.9368 90.2176 44.8733C92.0857 43.3162 93.2285 41.3353 95.679 40.4667C95.2505 41.5472 95.5252 42.2463 95.7559 43.5598C95.7999 43.7928 96.1515 43.8988 96.3274 43.7187C98.613 41.3777 100.053 38.3906 102.965 36.5686C103.184 40.1066 99.2504 43.4433 96.6241 45.6466C93.4703 48.2841 89.4045 51.017 85.2068 52.3517C84.8991 52.447 85.0859 52.8602 85.4046 52.7754C86.7782 52.4047 88.0858 51.8856 89.3275 51.2607C90.8 50.6781 92.2615 50.0849 93.745 49.5129C90.2396 52.2564 86.9979 55.7943 82.4046 56.9277C82.7673 56.2922 83.1079 55.2435 82.4046 54.6715C82.2398 54.5338 81.9981 54.6715 82.02 54.8516C82.064 55.2117 82.1959 55.5083 82.1519 55.8791C82.097 56.2498 81.9102 56.61 81.7124 56.9383C81.6794 56.9913 81.6464 57.0443 81.6025 57.0972C81.1519 57.1714 80.7014 57.2349 80.2289 57.2667C79.9432 57.2879 79.9212 57.6904 80.2289 57.7116C80.5476 57.7222 80.8662 57.7222 81.1739 57.7116C81.1409 57.7434 81.119 57.7858 81.097 57.8175C80.9981 57.9446 80.8662 58.2412 80.7454 58.3366C80.6465 58.4213 80.7563 58.5802 80.8772 58.5061C81.3058 58.2518 81.6135 57.9764 81.8882 57.648C82.5915 57.5527 83.2618 57.3726 83.9101 57.129C83.4486 57.4786 82.998 57.8387 82.5695 58.2201C82.5035 58.1989 82.4266 58.1989 82.3607 58.2201C77.7454 59.3958 74.1631 61.8427 70.8116 64.6922C69.2512 66.0057 67.7787 67.3933 66.3062 68.7915C67.3941 67.2132 68.3061 65.529 69.1852 63.8871C69.6467 63.0185 70.0973 62.1711 70.5588 61.3237C71.0423 60.7199 71.5258 60.042 71.7016 59.3217C73.4049 56.4299 75.3609 53.7288 78.163 51.3878C78.2289 51.3348 78.13 51.2607 78.0531 51.2819C73.5477 53.3686 71.339 58.0294 69.3171 61.8427C69.1962 62.0652 69.0863 62.2876 68.9654 62.5101C67.7787 63.7494 66.3721 64.8723 65.3282 65.7938C63.9436 67.0014 62.5041 68.156 60.9657 69.2258C60.9766 69.2047 60.9876 69.1835 60.9986 69.1729C61.0646 69.0246 60.8448 68.8233 60.6909 68.9504C60.0646 69.4483 59.4163 70.0309 58.8009 70.6558C58.1306 71.0266 57.4273 71.3444 56.6801 71.4821C56.2515 71.5668 56.3174 72.1494 56.768 72.0859M69.7786 66.4929C73.0642 63.5058 77.0751 59.9255 81.9431 58.845C81.9211 58.9086 81.9651 58.9721 82.031 59.0145C81.8113 60.3916 82.6464 61.4614 84.02 61.4084C84.0749 61.5144 84.2727 61.5779 84.3716 61.472C84.4046 61.4296 84.4486 61.3979 84.4815 61.3555C84.8112 61.2919 85.1518 61.1754 85.5254 60.9847C85.7342 62.7643 83.8442 64.1731 82.3937 65.1583C80.086 66.726 77.3828 67.9018 74.7125 68.9822C70.9214 70.5076 66.9325 71.874 62.8667 72.9121C63.57 72.2977 64.2293 71.641 64.8886 71.0478C66.526 69.5436 68.1193 67.9971 69.7676 66.5035M58.702 72.0117C59.0866 71.5774 59.5151 71.1537 59.9107 70.7194C60.0536 70.6347 60.1855 70.5499 60.3173 70.4652C62.1964 69.2894 63.9106 67.9018 65.548 66.4823C66.46 65.6985 67.3281 64.8828 68.1633 64.0248C66.2732 67.6158 64.1524 71.2278 60.3613 73.4947C60.2953 73.5053 60.2404 73.5265 60.1745 73.5371C60.0426 73.5582 59.9987 73.643 59.9877 73.7171C59.7349 73.8654 59.8118 74.1302 60.0096 74.2679C58.9327 74.9035 57.7679 75.3378 56.4713 75.5814C56.9218 74.2362 57.702 73.1239 58.713 72.0011" fill="#201E1E"/>
<path d="M76.5261 47.2464C76.3942 47.6913 77.2293 47.8184 77.3612 47.3735C78.7458 42.6492 75.581 38.1155 76.3283 33.3912C76.9876 33.7513 77.581 34.1115 78.0974 34.514C78.6689 36.2936 79.3941 38.0837 79.6798 39.8739C80.3611 44.1216 78.6469 47.3629 75.0206 50.064C74.7788 50.2441 75.0426 50.5725 75.3283 50.4242C78.8117 48.5387 80.7897 45.3927 80.7018 41.7912C80.6578 40.0222 80.3062 38.3062 79.8337 36.5796C80.0864 36.7596 80.5259 36.5796 80.3941 36.2512C79.9545 35.2025 79.3941 34.1962 78.8557 33.1793C78.5919 32.3849 78.2733 31.6116 77.8667 30.8913C77.8447 30.8383 77.8007 30.8066 77.7568 30.7854C77.2403 29.1753 77.6359 27.7347 79.0864 26.6013C80.6139 25.4043 81.427 26.2623 82.2292 27.544C84.416 31.0502 83.7017 35.033 81.6468 38.3485C81.5589 38.4968 81.8336 38.6451 81.9435 38.5074C84.8885 34.8953 85.4929 29.0164 81.46 25.5208C79.8337 24.1226 77.3172 27.311 76.9656 28.3173C76.5261 29.5778 76.8997 30.9125 77.515 32.226C77.592 32.6497 77.6909 33.0734 77.8117 33.4865C77.3172 33.1687 76.7788 32.8615 76.1964 32.5544C75.9766 32.4378 75.7129 32.5967 75.6799 32.7874C74.603 37.6812 77.9656 42.3632 76.537 47.2146" fill="#201E1E"/>
<path d="M111.064 25.6695C110.856 25.6907 110.867 25.9661 111.064 26.0085C112.757 26.411 114.02 27.0148 114.757 28.6355C115.416 30.1079 115.35 31.8451 115.042 33.3916C114.471 36.3152 112.658 38.7832 109.966 39.8531C111.614 37.9146 110.779 34.2284 110.471 32.0569C110.449 31.8451 110.119 31.8768 110.13 32.0993C110.273 33.4234 110.493 34.7474 110.526 36.0821C110.559 36.9613 110.416 37.8193 110.086 38.635C109.977 38.8786 109.845 39.101 109.691 39.3023C109.581 39.2493 109.482 39.1964 109.383 39.1434C109.361 39.1434 109.35 39.1222 109.328 39.1222C108.592 38.7515 107.977 38.4019 107.526 37.6286C107.043 36.7918 106.922 35.7855 106.856 34.8322C106.713 32.9679 107.021 31.1036 107.13 29.2498C107.141 29.0062 106.768 28.9427 106.735 29.1863C106.46 31.4002 106.065 33.614 106.328 35.8385C106.515 37.3744 107.372 39.3129 109.097 39.5883C109.01 39.8955 108.944 40.0756 108.658 40.065C108.636 40.0332 108.603 40.0014 108.548 40.0014C108.46 40.0014 108.361 40.0014 108.273 39.9802C108.218 39.9696 108.152 39.9484 108.076 39.9167C107.372 39.6836 106.757 39.2599 106.207 38.7832C105.032 37.7558 104.383 36.241 103.966 34.8004C103.131 31.9298 103.24 28.3283 104.779 25.7013C104.856 25.5742 104.647 25.4894 104.57 25.6166C102.295 29.3452 102.471 37.0778 106.669 39.726C105.032 39.2281 103.922 38.0947 103.339 36.241C102.691 34.1437 103.164 32.0675 102.977 29.949C102.955 29.6947 102.614 29.7265 102.548 29.949C101.9 32.1628 102.262 35.1711 103.109 37.2791C103.515 38.296 104.185 39.0798 105.01 39.5989C104.328 39.7472 103.713 40.0332 103.01 40.1073C102.087 40.2027 101.153 39.9167 100.328 39.5671C98.5483 38.815 97.0978 37.3215 96.1527 35.7114C95.1857 34.0483 95.0319 32.1946 95.7901 30.4362C96.5373 28.7202 98.2516 27.608 99.801 26.6335C101.076 25.8284 102.35 25.0551 103.438 24.0065C104.504 22.979 104.933 21.6443 105.185 20.2461C105.493 18.5513 105.394 16.7823 105.153 15.098C104.955 13.6786 104.636 11.8885 103.724 10.7233C103.559 10.5114 103.24 10.7021 103.317 10.9457C103.9 12.7571 104.493 14.4201 104.68 16.3374C104.889 18.403 104.856 21.1041 103.592 22.8942C101.548 25.7755 97.3395 26.4746 95.5374 29.5994C93.8781 32.4806 94.8561 35.7537 97.1637 38.0312C98.3505 39.2175 99.7461 40.1073 101.416 40.531C102.592 40.8276 104.405 40.7641 105.185 39.7366C105.185 39.7366 105.185 39.726 105.185 39.7154C105.955 40.1497 106.834 40.3721 107.801 40.3827C107.735 40.3827 107.68 40.4039 107.614 40.4039C107.416 40.4145 107.416 40.7111 107.614 40.7323C107.801 40.7535 107.988 40.7641 108.163 40.7641C108.13 40.8488 108.207 40.9442 108.317 40.9018C108.46 40.8594 108.592 40.7959 108.724 40.7429C112.405 40.4463 114.845 36.7177 115.592 33.4763C116.273 30.4786 115.317 25.2564 111.053 25.6695" fill="#201E1E"/>
<path d="M118.371 28.4231C116.481 26.1245 113.745 24.8005 111.47 22.9361C108.514 20.4998 106.833 17.142 106.119 13.4981C106.086 13.3286 105.833 13.3604 105.844 13.5299C106.042 16.2204 107.064 18.6991 108.679 20.8812C110.47 23.2751 113.042 24.7263 115.371 26.5482C117.206 27.9677 119.228 29.8532 119.349 32.2683C119.503 35.1389 116.097 37.1833 113.899 38.4226C113.514 38.6451 113.932 39.1747 114.305 38.9523C116.536 37.6917 118.987 36.1134 119.844 33.6453C120.492 31.7598 119.569 29.8955 118.36 28.4337" fill="#201E1E"/>
<path d="M103.273 38.8572C101.196 37.745 97.0973 33.4655 99.0313 31.0504C99.1082 30.9551 98.9983 30.8068 98.8774 30.8598C97.2731 31.4953 98.2071 33.688 98.7675 34.7367C99.7016 36.5056 101.273 38.264 103.141 39.1432C103.328 39.228 103.449 38.9526 103.273 38.8678" fill="#201E1E"/>
<path d="M36.1206 86.0257C35.9558 84.5003 35.0108 83.7694 33.0328 83.7694C31.2526 83.7694 30.2966 84.3732 30.2966 85.5808C30.2966 86.4282 31.0219 87.0108 32.6922 87.3921C34.6591 87.837 36.0547 88.1972 37.2635 88.6844C38.659 89.2458 39.67 90.1568 39.67 92.5295C39.67 95.3684 37.0217 96.9997 33.846 96.9997C29.3955 96.9997 27.1209 95.2942 27 92.0317H30.1098C30.1318 93.5253 31.5493 94.4892 33.4284 94.4892C35.4503 94.4892 36.5382 93.7053 36.5382 92.4978C36.5382 91.5127 36.1206 90.9089 34.1537 90.5064C29.4395 89.5424 27.3516 88.7374 27.3516 85.5384C27.3516 83.0809 29.2307 81.1318 33.0328 81.1318C36.8349 81.1318 39.0656 83.0809 39.1865 86.0045H36.1206V86.0257Z" fill="#201E1E"/>
<path d="M69.4934 96.4919V81.4609H72.4604V86.9162C73.3175 85.751 74.4383 85.2001 75.8449 85.2001C78.7899 85.2001 80.5261 87.5517 80.5261 90.8778C80.5261 94.5853 78.4602 96.7779 75.5812 96.7779C74.1856 96.7779 73.1197 96.2589 72.4054 95.1467L72.3834 96.4919H69.4824H69.4934ZM77.4712 91.0791C77.4712 88.8228 76.6361 87.6788 74.8779 87.6788C73.1197 87.6788 72.3505 88.8652 72.3505 91.2592C72.3505 93.1129 73.4603 94.4158 74.8999 94.4158C76.3394 94.4158 77.4712 93.0493 77.4712 91.0791Z" fill="#201E1E"/>
<path d="M107.394 96.4919L104.888 91.5557L103.427 93.0069V96.4919H100.383V81.4609H103.427V89.6703L107.185 85.4861H110.877L107.042 89.5431L110.778 96.4919H107.394Z" fill="#201E1E"/>
</svg>
