<svg width="99" height="100" viewBox="0 0 99 100" fill="none" xmlns="http://www.w3.org/2000/svg">
<g clip-path="url(#clip0_5_49)">
<path d="M49.3638 99.9999C49.123 99.9999 48.8822 99.9541 48.6528 99.8597L1.15826 80.3615C0.458718 80.0754 0 79.3946 0 78.6365V21.7695C0 21.1487 0.309635 20.5651 0.82856 20.2219C1.34462 19.8757 2.00116 19.8071 2.58029 20.0474L50.0748 39.5456C50.7744 39.8317 51.2331 40.5125 51.2331 41.2706V98.1404C51.2331 98.7612 50.9235 99.3448 50.4045 99.6881C50.092 99.8969 49.7279 100.003 49.3638 100.003V99.9999ZM3.73855 77.3892L47.4974 95.3513V42.515L3.73855 24.5529V77.3892Z" fill="#552988"/>
<path d="M49.6362 99.9998C48.8994 99.9998 48.2055 99.565 47.9074 98.8441C47.5146 97.8915 47.9705 96.8016 48.9252 96.4125L95.2614 77.3892V24.5528L50.3443 42.9898C49.3896 43.3845 48.3002 42.9268 47.9074 41.9742C47.5146 41.0216 47.9705 39.9317 48.9252 39.5427L96.4197 20.0444C96.9931 19.8041 97.6525 19.8728 98.1714 20.2189C98.6904 20.5651 99 21.1458 99 21.7665V78.6364C99 79.3916 98.5413 80.0725 97.8417 80.3614L50.3472 99.8596C50.115 99.9569 49.8741 99.9998 49.639 99.9998H49.6362Z" fill="#552988"/>
<path d="M2.07284 23.4283C1.33889 23.4283 0.642209 22.9964 0.344042 22.2783C-0.0516023 21.3286 0.401382 20.2358 1.35609 19.8411L48.9882 0.142579C49.4441 -0.0462243 49.9602 -0.0462243 50.416 0.142579L97.8446 19.6408C98.7993 20.0327 99.2523 21.1226 98.8595 22.0752C98.4667 23.0278 97.3715 23.4827 96.4197 23.0879L49.705 3.88146L2.78672 23.2882C2.55449 23.3854 2.3108 23.4312 2.07284 23.4312V23.4283Z" fill="#552988"/>
<path d="M65.8139 6.63997L18.1796 26.3369L19.6109 29.783L67.2452 10.0861L65.8139 6.63997Z" fill="#552988"/>
<path d="M80.0652 12.5999L32.4308 32.2969L33.8621 35.743L81.4965 16.046L80.0652 12.5999Z" fill="#552988"/>
<path d="M65.2412 73.259C64.2091 73.259 63.3719 72.4237 63.3719 71.3939V54.3329C63.3719 53.3031 64.2091 52.4678 65.2412 52.4678C66.2733 52.4678 67.1105 53.3031 67.1105 54.3329V71.3939C67.1105 72.4237 66.2733 73.259 65.2412 73.259Z" fill="#00A036"/>
<path d="M59.4728 61.4093C59.1345 61.4093 58.7905 61.3178 58.4837 61.1261C57.6093 60.5798 57.3426 59.4298 57.8902 58.5573L63.6558 49.3631C63.9482 48.8968 64.4327 48.5822 64.9803 48.5049C65.5222 48.4334 66.0812 48.5936 66.4912 48.9626L71.3078 53.2822C72.0761 53.9716 72.1392 55.1502 71.4482 55.9169C70.7573 56.6807 69.5761 56.7436 68.8077 56.0571L65.6454 53.2193L61.0583 60.5311C60.7056 61.0975 60.095 61.4065 59.4728 61.4065V61.4093Z" fill="#00A036"/>
<path d="M81.5257 66.3528C80.4936 66.3528 79.6564 65.5175 79.6564 64.4876V47.4267C79.6564 46.3968 80.4936 45.5615 81.5257 45.5615C82.5578 45.5615 83.395 46.3968 83.395 47.4267V64.4876C83.395 65.5175 82.5578 66.3528 81.5257 66.3528Z" fill="#00A036"/>
<path d="M75.7573 54.5038C75.419 54.5038 75.075 54.4123 74.7682 54.2206C73.8938 53.6743 73.6271 52.5243 74.1747 51.6518L79.9431 42.4576C80.2356 41.9913 80.7201 41.6767 81.2677 41.5994C81.8153 41.5222 82.3657 41.691 82.7786 42.06L87.5951 46.3796C88.3635 47.069 88.4237 48.2476 87.7356 49.0114C87.0475 49.778 85.8663 49.8381 85.098 49.1516L81.9357 46.3166L77.3485 53.6313C76.993 54.1978 76.3852 54.5067 75.7631 54.5067L75.7573 54.5038Z" fill="#00A036"/>
<path d="M60.2899 85.3761C59.5588 85.3761 58.865 84.9441 58.564 84.229C58.1683 83.2792 58.6185 82.1865 59.5703 81.7888L87.8646 70.0086C88.8222 69.6167 89.9116 70.0601 90.3102 71.0127C90.7058 71.9625 90.2557 73.0552 89.3038 73.4529L61.0095 85.2331C60.7744 85.3303 60.5307 85.3761 60.2899 85.3761Z" fill="#00A036"/>
</g>
<defs>
<clipPath id="clip0_5_49">
<rect width="99" height="100" fill="white"/>
</clipPath>
</defs>
</svg>
