<svg width="168" height="102" viewBox="0 0 168 102" fill="none" xmlns="http://www.w3.org/2000/svg">
<rect width="168" height="102" fill="white"/>
<g clip-path="url(#clip0_5_25)">
<path d="M47.8117 102C47.39 102 46.9656 101.851 46.6425 101.576C45.9278 100.969 29.1391 86.5395 28.0438 70.3595C27.696 65.2189 29.3801 60.3649 32.7866 56.6934C36.5244 52.6663 41.9928 50.3564 47.7898 50.3564C53.5869 50.3564 59.0772 52.669 62.815 56.6934C66.2215 60.3649 67.9055 65.2189 67.5578 70.3595C66.4624 86.5395 49.6738 100.969 48.9591 101.576C48.636 101.848 48.2307 102 47.809 102H47.8117ZM47.8117 53.9508C42.9786 53.9508 38.4604 55.8444 35.3935 59.1493C32.6278 62.1262 31.3188 65.9217 31.6009 70.1197C32.4388 82.4876 44.0657 94.307 47.7981 97.7993C51.5304 94.3015 63.16 82.4683 63.9952 70.1197C64.28 65.9217 62.9683 62.129 60.2026 59.1493C57.1385 55.8472 52.6202 53.9508 47.809 53.9508H47.8117Z" fill="#33B261"/>
<path d="M47.8035 78.9481C42.6418 78.9481 38.4439 74.7198 38.4439 69.5268C38.4439 64.3338 42.6418 60.1055 47.8035 60.1055C52.9653 60.1055 57.1631 64.3338 57.1631 69.5268C57.1631 74.7198 52.9653 78.9481 47.8035 78.9481ZM47.8035 63.6998C44.6106 63.6998 42.0147 66.3128 42.0147 69.5268C42.0147 72.7407 44.6106 75.3538 47.8035 75.3538C50.9964 75.3538 53.5923 72.7407 53.5923 69.5268C53.5923 66.3128 50.9964 63.6998 47.8035 63.6998Z" fill="#33B261"/>
<path d="M115.098 30.5792C114.676 30.5792 114.257 30.4303 113.937 30.1547C113.523 29.8074 103.851 21.4886 103.216 12.0728C103.005 8.96635 104.024 6.0308 106.089 3.80915C108.337 1.38904 111.617 -0.00292969 115.087 -0.00292969C118.556 -0.00292969 121.85 1.38629 124.096 3.80639C126.161 6.0308 127.179 8.96635 126.968 12.0728C126.33 21.4886 116.659 29.8046 116.248 30.1547C115.925 30.4276 115.519 30.5792 115.098 30.5792ZM115.098 3.59415C112.6 3.59415 110.27 4.56716 108.696 6.26233C107.296 7.77283 106.631 9.69954 106.776 11.833C107.195 18.0045 112.663 23.9804 115.092 26.3454C117.518 23.9749 122.995 17.988 123.411 11.833C123.556 9.69954 122.891 7.77283 121.489 6.26233C119.914 4.56716 117.587 3.59415 115.1 3.59415H115.098Z" fill="#00A036"/>
<path d="M115.092 17.633C111.762 17.633 109.054 14.907 109.054 11.5552C109.054 8.20343 111.762 5.47461 115.092 5.47461C118.422 5.47461 121.13 8.20343 121.13 11.5552C121.13 14.907 118.422 17.633 115.092 17.633ZM115.092 9.06893C113.731 9.06893 112.622 10.1853 112.622 11.5552C112.622 12.9251 113.729 14.0387 115.092 14.0387C116.456 14.0387 117.562 12.9251 117.562 11.5552C117.562 10.1853 116.456 9.06893 115.092 9.06893Z" fill="#00A036"/>
<path d="M97.5122 100.847H61.4541C60.4683 100.847 59.6687 100.043 59.6687 99.0503C59.6687 98.058 60.4683 97.2532 61.4541 97.2532H97.5122C106.319 97.2532 108.178 90.7977 108.567 88.022C108.6 87.7932 108.613 87.5645 108.605 87.3302C108.392 82.0186 103.567 77.669 97.3835 77.2115C94.7767 77.0185 92.3998 77.1894 92.3752 77.195L83.7905 77.2005C78.5768 77.2005 74.3351 73.3029 74.3351 68.5123C74.3351 63.7217 78.5768 59.8242 83.7905 59.8242C84.7763 59.8242 85.5759 60.6291 85.5759 61.6214C85.5759 62.6137 84.7763 63.4185 83.7905 63.4185C80.5456 63.4185 77.9059 65.7036 77.9059 68.5123C77.9059 71.3211 80.5456 73.6061 83.7905 73.6061H92.2437C92.2163 73.6061 94.7684 73.4132 97.6464 73.6282C105.64 74.2181 111.886 80.0451 112.176 87.1841C112.195 87.6389 112.168 88.0772 112.107 88.5265C111.27 94.483 106.998 100.845 97.5177 100.845L97.5122 100.847Z" fill="#552988"/>
<path d="M114.424 71.8838C114.194 71.8838 113.964 71.8396 113.745 71.7487L90.0914 61.9525C89.4232 61.6769 88.9851 61.0181 88.9851 60.2904V31.7177C88.9851 31.1196 89.2808 30.56 89.7765 30.2265C90.2694 29.8902 90.8965 29.8296 91.4496 30.0584L115.103 39.8546C115.771 40.1302 116.209 40.789 116.209 41.5167V70.0893C116.209 70.6875 115.914 71.247 115.418 71.5805C115.12 71.7818 114.772 71.8838 114.424 71.8838ZM92.5531 59.0886L112.639 67.4074V42.7184L92.5531 34.3997V59.0886Z" fill="#552988"/>
<path d="M114.561 71.8839C113.857 71.8839 113.195 71.465 112.91 70.7704C112.535 69.8525 112.97 68.8023 113.882 68.4274L136.429 59.0888V34.3999L115.237 43.1762C114.323 43.5648 113.285 43.1156 112.91 42.1977C112.535 41.2798 112.97 40.2296 113.882 39.8547L137.536 30.0586C138.083 29.8298 138.713 29.8932 139.209 30.2267C139.704 30.5602 140 31.1198 140 31.7179V60.2906C140 61.0183 139.562 61.6743 138.894 61.9527L115.24 71.7489C115.018 71.8426 114.788 71.8839 114.564 71.8839H114.561Z" fill="#552988"/>
<path d="M138.215 33.3111C137.987 33.3111 137.757 33.2698 137.536 33.1761L125.364 28.1291C124.452 27.7515 124.019 26.7013 124.394 25.7834C124.769 24.8683 125.816 24.4273 126.725 24.8077L138.896 29.8546C139.808 30.2322 140.241 31.2824 139.866 32.2003C139.581 32.8921 138.916 33.3111 138.215 33.3111Z" fill="#552988"/>
<path d="M90.8718 33.4153C90.1708 33.4153 89.5054 32.9991 89.2206 32.3072C88.8427 31.3894 89.2754 30.3392 90.1872 29.9616L103.827 24.2696C104.733 23.8865 105.782 24.3247 106.16 25.2399C106.538 26.1577 106.105 27.2079 105.193 27.5856L91.5536 33.2775C91.3318 33.3712 91.0991 33.4153 90.8718 33.4153Z" fill="#552988"/>
</g>
<defs>
<clipPath id="clip0_5_25">
<rect width="112" height="102" fill="white" transform="translate(28)"/>
</clipPath>
</defs>
</svg>
