<svg width="168" height="102" viewBox="0 0 168 102" fill="none" xmlns="http://www.w3.org/2000/svg">
<rect width="168" height="102" fill="white"/>
<g clip-path="url(#clip0_5_25)">
<path d="M118.091 80.7534H74.4899C73.2481 80.7534 72.2409 79.7534 72.2409 78.5205C72.2409 77.2877 73.2481 76.2877 74.4899 76.2877H115.845V12.4658H46.1357C44.8939 12.4658 43.8867 11.4658 43.8867 10.2329C43.8867 9 44.8939 8 46.1357 8H118.091C119.332 8 120.34 9 120.34 10.2329V78.524C120.34 79.7568 119.332 80.7568 118.091 80.7568V80.7534Z" fill="#552988"/>
<path d="M49.7093 80.7538H29.9338C28.692 80.7538 27.6847 79.7538 27.6847 78.5209V58.8051C27.6847 57.5723 28.692 56.5723 29.9338 56.5723C31.1755 56.5723 32.1828 57.5723 32.1828 58.8051V76.288H49.7127C50.9545 76.288 51.9618 77.288 51.9618 78.5209C51.9618 79.7538 50.9545 80.7538 49.7127 80.7538H49.7093Z" fill="#552988"/>
<path d="M129.291 80.7538H118.367C117.125 80.7538 116.118 79.7538 116.118 78.521C116.118 77.2881 117.125 76.2881 118.367 76.2881H129.291C130.533 76.2881 131.54 77.2881 131.54 78.521C131.54 79.7538 130.533 80.7538 129.291 80.7538Z" fill="#552988"/>
<path d="M162.837 80.7538H154.548C153.306 80.7538 152.299 79.7538 152.299 78.521C152.299 77.2881 153.306 76.2881 154.548 76.2881H162.505V46.2162H156.441C155.596 46.2162 154.824 45.747 154.441 44.997L145.586 27.7607H118.37C117.128 27.7607 116.121 26.7607 116.121 25.5278C116.121 24.2949 117.128 23.2949 118.37 23.2949H146.962C147.807 23.2949 148.58 23.7641 148.963 24.5141L157.818 41.7504H162.837C165.134 41.7504 167 43.6031 167 45.884V76.6168C167 78.8977 165.134 80.7538 162.837 80.7538Z" fill="#552988"/>
<path d="M140.826 93.9999C133.541 93.9999 127.618 88.1164 127.618 80.8869C127.618 73.6575 133.544 67.7773 140.826 67.7773C148.108 67.7773 154.034 73.6609 154.034 80.8869C154.034 88.113 148.108 93.9999 140.826 93.9999ZM140.826 72.2397C136.021 72.2397 132.113 76.1198 132.113 80.8869C132.113 85.6541 136.021 89.5376 140.826 89.5376C145.631 89.5376 149.539 85.6575 149.539 80.8869C149.539 76.1164 145.631 72.2397 140.826 72.2397Z" fill="#552988"/>
<path d="M61.4339 93.9999C54.1487 93.9999 48.226 88.1164 48.226 80.8869C48.226 73.6575 54.1521 67.7773 61.4339 67.7773C68.7156 67.7773 74.6417 73.6609 74.6417 80.8869C74.6417 88.113 68.7156 93.9999 61.4339 93.9999ZM61.4339 72.2397C56.6288 72.2397 52.7206 76.1198 52.7206 80.8869C52.7206 85.6541 56.6288 89.5376 61.4339 89.5376C66.2389 89.5376 70.1471 85.6575 70.1471 80.8869C70.1471 76.1164 66.2389 72.2397 61.4339 72.2397Z" fill="#552988"/>
<path d="M50.9028 23.9794H29.9338C28.692 23.9794 27.6847 22.9794 27.6847 21.7465C27.6847 20.5137 28.692 19.5137 29.9338 19.5137H50.9028C52.1446 19.5137 53.1518 20.5137 53.1518 21.7465C53.1518 22.9794 52.1446 23.9794 50.9028 23.9794Z" fill="#00A036"/>
<path d="M50.4233 37.4618H10.8722C9.63045 37.4618 8.62322 36.4618 8.62322 35.229C8.62322 33.9961 9.63045 32.9961 10.8722 32.9961H50.4233C51.6651 32.9961 52.6723 33.9961 52.6723 35.229C52.6723 36.4618 51.6651 37.4618 50.4233 37.4618Z" fill="#00A036"/>
<path d="M31.3653 50.9482H3.24902C2.00723 50.9482 1 49.9482 1 48.7153C1 47.4824 2.00723 46.4824 3.24902 46.4824H31.3653C32.6071 46.4824 33.6143 47.4824 33.6143 48.7153C33.6143 49.9482 32.6071 50.9482 31.3653 50.9482Z" fill="#00A036"/>
<path d="M142.554 47.4797H128.577C127.335 47.4797 126.328 46.4797 126.328 45.2469V34.8393C126.328 33.6064 127.335 32.6064 128.577 32.6064H138.742C139.687 32.6064 140.533 33.1921 140.857 34.0756L144.668 44.4832C144.92 45.1647 144.817 45.9284 144.396 46.5277C143.975 47.1236 143.289 47.4797 142.554 47.4797ZM130.826 43.014H139.346L137.169 37.0688H130.826V43.014Z" fill="#552988"/>
</g>
<defs>
<clipPath id="clip0_5_25">
<rect width="166" height="86" fill="white" transform="translate(1 8)"/>
</clipPath>
</defs>
</svg>
